<?xml version="1.0" standalone="no"?>
<!DOCTYPE svg PUBLIC "-//W3C//DTD SVG 1.1//EN" "http://www.w3.org/Graphics/SVG/1.1/DTD/svg11.dtd" >
<svg xmlns="http://www.w3.org/2000/svg">
<metadata></metadata>
<defs>
<font id="markus_inkregular" horiz-adv-x="712" >
<font-face units-per-em="2048" ascent="1536" descent="-512" />
<missing-glyph horiz-adv-x="374" />
<glyph horiz-adv-x="2048" />
<glyph horiz-adv-x="2048" />
<glyph unicode="&#xd;" horiz-adv-x="2048" />
<glyph unicode=" "  horiz-adv-x="374" />
<glyph unicode="&#x09;" horiz-adv-x="374" />
<glyph unicode="&#xa0;" horiz-adv-x="374" />
<glyph unicode="!" horiz-adv-x="282" d="M37 1278v80q0 107 22 133q119 8 177 -18q0 -6 4.5 -16.5t5.5 -14.5q2 -32 2 -47.5t-2.5 -57.5t-3.5 -59q-1 -35 -9.5 -89t-9.5 -73v-74q-4 -43 -6.5 -123.5t-3.5 -99.5q-1 -18 -8 -55t-8 -57q-1 -10 1 -32t1 -32q-1 -13 -7 -41.5t-6 -44.5q-1 -18 1.5 -60t0.5 -63 q-1 -18 -8.5 -53.5t-7.5 -52.5q0 -9 5 -27.5t5 -26.5q0 -101 31 -151q-4 -8 -12.5 -11t-24 -4.5t-22.5 -3.5t-25.5 -9t-31.5 -11t-30 -2.5t-28 12.5q-3 381 6 766q3 70 -5.5 202.5t-2.5 215.5zM50.5 -117.5q0.5 30.5 7 59t-2.5 54.5q6 -1 24 7t34 5q12 10 36.5 8t39.5 -6.5 t40 -12.5t39 -11q2 -22 -13.5 -54t-8.5 -59q-13 -5 -21 -29q-4 -10 -10 -13.5t-19.5 -3.5t-19.5 -1t-15 4t-11 6q-10 1 -28 -1t-32.5 -2t-23.5 7q-16 12 -15.5 42.5z" />
<glyph unicode="&#x22;" horiz-adv-x="327" d="M33 1319q-34 139 2 215q23 2 45.5 1.5t39.5 -12.5t17 -34l-20 -256q-24 -14 -35.5 1.5t-22 45.5t-26.5 39zM178.5 1355.5q-7.5 94.5 5.5 145.5q6 17 27 23.5t42.5 5t35.5 -7.5q0 -11 0.5 -47t0 -51t-3.5 -43t-10.5 -51t-19.5 -46q-24 -47 -37 -55q-18 -10 -39 12 q6 20 -1.5 114.5z" />
<glyph unicode="#" horiz-adv-x="925" d="M-4 702q3 11 4 18t2.5 11.5t5.5 13.5q2 6 6 8.5t12 2.5t16.5 -1.5t25.5 -3.5t34 -3q11 2 52.5 2.5t62.5 7.5q6 24 6 28q-18 5 -74.5 1.5t-82.5 0.5q-11 3 -14 13t-2 27t1 22q-2 19 14 28t41 8.5t54.5 -1.5t54 -3t39.5 5q18 60 45.5 176.5t42.5 169.5q4 12 18.5 60 t19.5 68.5t10.5 57t4.5 68.5q0 81 58 53q32 -12 52 -34t13 -52q0 -25 -4 -35q5 -10 7 -21t3.5 -19.5t0 -22t-2.5 -20t-5 -21.5t-5 -19t-6.5 -19.5t-5.5 -16.5q5 -31 -14.5 -89t-18.5 -81q-17 -27 -29.5 -94t-23.5 -93q9 -8 15.5 -7.5t21 4t24.5 1.5q8 29 30.5 105t31.5 114 q2 10 5 33.5t7 36.5q3 8 18.5 46.5t18.5 53.5q2 7 7 27.5t7 25.5q18 61 18 87q1 6 -1 16t-1 14q7 28 42 34t65 -1q10 -1 16 -3.5t11.5 -9.5t5.5 -20q-1 -12 2.5 -55t-1 -76.5t-24.5 -52.5q10 -16 6.5 -38t-10.5 -36.5t-17 -37.5t-14 -40q-4 -20 -6 -60t-6 -56 q-2 -6 -8.5 -16t-7.5 -15q-4 -12 -7.5 -36t-7.5 -34q27 -17 99 -14.5t104 -11.5q2 -1 4 -3.5t5 -11.5t1 -20q1 -7 -3 -15.5t-9 -12.5l-4 -5q-2 -14 -58.5 -10.5t-107 8.5t-65.5 -12q-4 -5 -6.5 -13t-2.5 -13v-5q9 -5 30.5 -6t41 0.5t45 4.5t33.5 3q21 1 61.5 -4.5t55.5 -5.5 q24 -20 9.5 -51.5t-46.5 -34.5q-28 4 -97.5 2t-89.5 8q-8 -6 -18 -9t-26 -4.5t-21 -2.5q-3 -8 -18.5 -50.5t-21.5 -62t-12.5 -53t-5.5 -58.5q-1 -4 -6 -11t-6 -11q2 -23 -2 -47t-12.5 -57t-11.5 -46q-2 -7 -2.5 -21t-2.5 -20q-1 -4 -6.5 -11.5t-7.5 -10.5q-7 -32 -8.5 -94 t-7.5 -92q-1 -2 -6 -11.5t-6.5 -12.5t-6.5 -11t-8 -11t-9 -8.5t-12 -7.5t-14.5 -4t-17.5 -2q-32 -3 -65 4t-52 20t-12 27q19 31 25 80.5t22 81.5q7 60 37 168t39 156q5 28 21.5 83t21.5 82q-15 12 -39.5 8.5t-36.5 -18.5q-6 -21 -19 -79.5t-24 -90.5q-15 -40 -30 -118 t-31 -117q-7 -24 -22 -95t-24 -94q-6 -26 -22.5 -52.5t-38.5 -31.5q-29 -9 -62.5 5t-43.5 34q-4 10 14 78q6 22 12.5 61.5t9.5 53.5q2 6 9 19.5t8 21.5q20 54 20 73q8 31 27 110t33 130.5t30 97.5q-1 6 -9.5 11t-10.5 8q-26 -7 -52.5 -10.5t-54 -3.5t-45 11t-18.5 33z M383 768q32 -7 47 -4q1 6 5 16.5t5 16.5q-11 -5 -22.5 -2t-21.5 -3t-13 -24z" />
<glyph unicode="$" horiz-adv-x="536" d="M22 244q0 26 0.5 40t3 45.5t3.5 45.5q12 24 63 28.5t70 -18.5q-22 -26 -23.5 -76.5t21.5 -91.5t63 -41q12 0 22 4.5t14 8.5t14 15.5t12 14.5q8 21 10 45.5t2 59.5t2 59q1 16 7 78t7.5 85.5t5 77.5t2.5 85t-3 75t-8.5 80t-16.5 70q-44 47 -94 80q-36 37 -51.5 109t-13 141 t15.5 137q4 3 7.5 9.5t5.5 11.5t5 13.5t4 12.5q4 3 14 10t15.5 11.5t12.5 12t11 15.5q-9 70 11 111q25 16 67.5 17t65.5 -11q4 -65 20 -96q27 -5 86 -31q20 -37 15 -84.5t-37 -71.5q-29 -9 -53.5 -0.5t-37.5 27.5q1 13 -2.5 29t-1.5 26q-28 3 -43 -18q-30 -122 -12 -201 q3 -15 17 -44.5t12 -45.5q8 -9 22 -30.5t21 -29.5q10 -10 34 -29.5t37.5 -35.5t18.5 -35q3 -9 2 -27t2 -32q2 -7 7.5 -25.5t8 -35.5t0.5 -40q-1 -10 -2 -31.5t-2 -31.5q0 -7 -5.5 -21.5t-6.5 -21.5q-4 -28 2 -88t4 -92q-11 -43 -11.5 -93t4 -93.5t-9.5 -82.5t-52 -59 q-14 -8 -56.5 -18.5t-60.5 -22.5q-13 -9 -20 -26t-8 -31.5t-1.5 -38.5t-1.5 -33q-13 -5 -31.5 -21t-38 -25t-47.5 -5q-23 12 -29.5 42t-1.5 57t-1 50q-20 8 -35.5 20t-25 23.5t-15.5 31t-8.5 32.5t-2.5 39z" />
<glyph unicode="%" horiz-adv-x="663" d="M-2 45q168 507 240 688q2 6 10 16.5t10 16.5t3 20t3 21q6 20 23.5 55t23.5 51q70 182 99 236q10 20 49 86.5t59 111.5t33 99q2 9 3.5 26.5t4.5 25.5t10 13q8 5 18 6t17 0t19.5 -4t19.5 -4q21 -52 10 -123q-2 -12 -7 -23t-12.5 -23.5t-10.5 -20.5q-3 -7 -16 -52t-27 -67 q-3 -6 -15.5 -26.5t-19.5 -36.5t-8 -31q-59 -108 -70 -166q-39 -51 -47 -123q-23 -43 -40.5 -104.5t-36.5 -144t-30 -122.5q-2 -6 -8 -18t-8 -18q-2 -7 -3 -24.5t-3 -25.5q-2 -7 -10.5 -21.5t-10.5 -21.5q-3 -11 -9 -40.5t-10.5 -45t-15 -36.5t-24.5 -35q1 -17 -6 -40.5 t-8 -35.5q-12 -11 -39 -44.5t-47 -47.5q-71 -6 -113 53zM178 1356q-8 49 19.5 87.5t72 56.5t90.5 16q70 -26 70 -74q-1 -4 -6.5 -10.5t-7.5 -10.5q0 -31 -13 -97.5t-14 -74.5q-38 -55 -90 -63q-25 -3 -61.5 6.5t-51.5 24.5q-43 38 -8 139zM258 1319q4 -4 9 -11.5t8.5 -12.5 t8.5 -8.5t10.5 -2.5t12.5 8q20 15 18.5 56.5t-26.5 50.5q-18 7 -35.5 -29t-5.5 -51zM319 131q6 -44 55.5 -71t98.5 -27q16 0 31 4.5t24 8t21.5 14t16.5 15t17.5 20t16.5 18.5l45 178q5 20 -0.5 43t-14.5 39t-19 32.5t-11 18.5q-71 32 -130 14t-95 -71q-33 -49 -48.5 -115 t-7.5 -121zM459 221q-4 65 8 96q29 0 37 -6q5 -113 -4 -164q-13 2 -21.5 9.5t-12.5 21.5t-5 21t-2 22z" />
<glyph unicode="&#x26;" d="M10 518q-2 110 86 209q-18 118 0 324q2 26 14.5 75.5t14.5 73.5q3 22 4 65.5t3.5 70t14.5 58t35 52.5q11 10 34 21.5t34 19.5q58 5 117.5 1.5t101.5 -22.5l11 -11t16 -13q5 -3 15.5 -4.5t12.5 -3.5q14 -11 29 -41t18 -50q12 -58 -6 -153q-2 -8 -8.5 -26t-7.5 -27 q-1 -8 -2 -26.5t-3.5 -28.5t-8.5 -15q-26 -21 -74.5 -5.5t-61.5 42.5q6 17 9.5 42.5t5.5 63.5t4 56v14q10 20 0 60.5t-35 45.5q-26 4 -43.5 -2t-28 -24t-15.5 -33.5t-11 -42.5q-2 -8 -1.5 -21.5t-0.5 -19.5q-28 -94 -35.5 -215.5t10.5 -226.5q14 -17 57.5 -29.5t53.5 -17.5 q17 -9 42.5 -10t47.5 2t53 8t49 6q11 1 35.5 6.5t37.5 7.5t34 -4q45 -19 30 -139q-69 -18 -106 -43q2 -126 -12.5 -290t-51.5 -220q-45 -36 -139 -66q-5 -2 -19 -10t-22 -10q-43 -13 -119 -4q-40 7 -99 40.5t-77 65.5q-9 15 -14 37t-6 38.5t-2 44.5t-2 40q-2 34 -10.5 127.5 t-8.5 136.5zM193 556q-1 -25 3 -59t3 -53q-9 -209 26 -270q11 -16 34 -37.5t34 -21.5q17 -1 45 18.5t47 18.5q6 15 9.5 33.5t3.5 32.5v36t1 33q2 54 20.5 145.5t22.5 122.5q7 12 5 26t-11 23q-33 -5 -50 -1t-43.5 15t-37.5 13q-27 4 -55.5 -3.5t-44.5 -29.5q-11 -17 -12 -42 z" />
<glyph unicode="'" horiz-adv-x="163" d="M-4 1278q-5 18 14 39.5t19 36.5q0 4 -5.5 8t-5.5 8q15 28 17 84t14 80q68 14 103 -16q12 -115 -33 -203q-8 -3 -23.5 -13.5t-29.5 -21t-29 -18t-25.5 -4.5t-15.5 20z" />
<glyph unicode="(" horiz-adv-x="342" d="M4 373q0 10 6 30.5t6 30.5q3 62 0.5 113t-1 108.5t11.5 96.5q-6 13 -6.5 26.5t2.5 34.5t4 31q0 14 -0.5 115.5t4.5 121.5q3 39 6.5 102t6 103.5t10 92.5t18 85.5t30.5 63.5t48 45q34 19 90 14q80 -8 106 -24q4 -22 -2.5 -43t-14 -32t-25.5 -31.5t-23 -26.5 q-7 -21 -12 -43.5t-7.5 -49.5t-3.5 -44.5t-2 -51t-2 -47.5q-1 -20 -8.5 -107t-9.5 -143q-2 -71 -24 -191t-26 -165q-2 -27 7 -80t10 -70q1 -13 0 -38t0 -38q3 -23 13 -65.5t13 -56.5q3 -20 9.5 -66.5t11 -69.5t16.5 -54t31 -50q11 -3 41 -5.5t49.5 -9t28.5 -22.5 q-2 -11 -10 -17t-23.5 -10.5t-20.5 -7.5q-7 -3 -26 -14.5t-34 -15.5t-36 -2q-7 1 -21.5 7t-17.5 7q-12 1 -29.5 2t-28.5 2.5t-19 5.5q-26 13 -56 59.5t-41 86.5q-3 13 -8.5 39.5t-7.5 35.5q-6 27 -14 78q-19 112 -19 154z" />
<glyph unicode=")" horiz-adv-x="382" d="M-39 -43q-2 14 8 24t28.5 20t22.5 13q14 11 38 40.5t40 39.5q74 178 70 549q-4 300 -10 432q-8 189 -17 301q-11 91 -43 133q-37 -5 -75 8.5t-35 45.5q5 38 102 43q71 4 137.5 -9.5t91.5 -50.5q0 -17 17 -38.5t20 -32.5q13 -34 14 -85t-6 -130t-8 -101q0 -15 -1 -45 t-0.5 -47.5t5.5 -34.5q-8 -90 1.5 -277t9.5 -239q0 -74 -25.5 -210.5t-28.5 -188.5q-48 -89 -143 -140q-35 3 -78.5 -18t-68.5 -25q-61 -10 -66 23z" />
<glyph unicode="*" horiz-adv-x="616" d="M-6 852q15 27 33 52.5t43 53.5t39.5 43.5t48 48t43.5 42.5q-9 3 -52.5 10t-58.5 20q-4 23 4.5 35t27 14t38 0t44.5 -4.5t40 -1.5q-6 23 -69 96.5t-71 88.5q-9 13 -3.5 22.5t13.5 13t23 11t23 16.5q17 -12 34.5 -29.5t28.5 -31t34 -43t36 -45.5q-3 37 9.5 109.5t12.5 90.5 q15 14 50.5 14t50.5 -14q5 -26 -11.5 -89.5t-33.5 -110.5l149 188q18 15 41 1t35 -34q-21 -31 -89.5 -113.5t-96.5 -136.5q22 -13 78 -7.5t85 -2.5q3 -20 0 -34.5t-10 -23t-18.5 -13.5t-26 -7t-32 -2.5t-37.5 0.5t-41 0q19 -52 60.5 -110.5t76.5 -134.5q-27 -33 -69.5 -49 t-72.5 3q-42 92 -71 160q-12 -33 -21.5 -77t-27.5 -87q-63 -19 -93 25q1 37 19 95t24 89q-28 -26 -77 -81t-76 -78h-10.5h-10.5h-10t-10.5 0.5t-9.5 1t-9 1.5l-7.5 2.5t-7.5 3t-6 4t-5 5.5z" />
<glyph unicode="+" horiz-adv-x="669" d="M0 567q1 5 6 20t3.5 16.5t-3.5 21.5q19 14 52 22t54.5 9.5t69 2t54.5 0.5q0 76 8 228q37 18 86.5 12.5t83.5 -22.5q0 -134 -11 -183q29 -1 82.5 4.5t94 2.5t75.5 -23q-6 -4 -19 -10.5t-22.5 -12.5t-13.5 -14q10 -36 -18 -68q-26 -7 -88 -4.5t-91 -7.5q-9 -59 0 -176 q-24 1 -53 -11t-47.5 -22t-41 -5t-42.5 34q6 29 10.5 89.5t6.5 74.5q-23 2 -76 -1.5t-93.5 0.5t-66.5 23z" />
<glyph unicode="," horiz-adv-x="174" d="M-49 -72q6 13 27 31t26 33q0 4 -5 5.5t-5 4.5q18 19 26.5 49t24.5 49q90 0 123 -26q0 -14 -0.5 -25.5t-2.5 -21.5t-3 -16t-6 -14.5t-6 -11.5t-10 -11.5t-10.5 -10t-14 -11.5t-15.5 -13q-16 0 -40 -9.5t-41.5 -18t-36.5 -6t-31 22.5z" />
<glyph unicode="-" horiz-adv-x="606" d="M2 598q0 8 12 22t29 29t20 19q67 9 142.5 10t132 -3t134 -9.5t128.5 -6.5q-6 -9 -32 -18.5t-31 -24.5q3 -7 15.5 -14t14.5 -14q-1 -15 -12.5 -31t-13.5 -20q-22 -9 -51 -10t-52 2.5t-58.5 8.5t-57.5 7q-28 1 -82.5 -1.5t-91.5 0.5t-64 17q-25 -4 -54 5t-28 32z" />
<glyph unicode="." horiz-adv-x="219" d="M2 20q17 13 25 70q9 10 20 16t25 8.5t24.5 3.5t28.5 -2t26 -4.5t28 -6t24 -5.5q4 -16 1.5 -42t4.5 -38q-19 -2 -50 -13.5t-53 -20t-45.5 -3.5t-37.5 31q-2 2 -10.5 3t-10.5 3z" />
<glyph unicode="/" horiz-adv-x="665" d="M-2 25q22 68 63 206q6 20 23 63.5t22 65.5q42 155 62 211q4 12 14.5 35t16.5 42.5t6 37.5q13 16 22 56t23 55q2 31 24.5 90t26.5 92q4 4 11.5 21.5t15.5 23.5v29q8 11 13 23.5t9 31.5t6 25q8 20 30 65t32 72q1 2 -0.5 11.5t0.5 14.5q2 7 12 26t14 28q2 7 7 27.5t10 31.5 q4 12 10 40.5t12.5 48.5t14.5 28q13 13 94 -1.5t94 -35.5q2 -10 2.5 -16.5t-4.5 -24.5t-9 -28.5t-10 -27.5t-8 -22q-5 -12 -15 -33t-15 -34q-14 -39 -33 -64q-48 -187 -100 -283q-7 -29 -32 -103.5t-32 -125.5q-26 -45 -56 -160.5t-40 -142.5q-69 -251 -90 -303 q3 -67 -13 -96q-11 -6 -28 -16.5t-27.5 -17t-27.5 -15t-28 -10.5t-28 -4t-29 5q-27 11 -65 58z" />
<glyph unicode="0" horiz-adv-x="761" d="M3 549.5q0 34.5 1.5 54t5 65.5t4.5 58q3 90 9 166q1 7 18 102q2 14 4 74.5t18 89.5q-1 30 8 66t19 61.5t28 66.5t25 60q18 11 52.5 47t60.5 47q16 -1 80.5 8t114.5 1q3 -1 28 -7t33 -8q3 -1 7.5 -7.5t8.5 -8.5q9 -6 31 -12t29 -11q36 -23 54 -58.5t31.5 -89t26.5 -81.5 q1 -12 7.5 -71t8.5 -84t4 -72t-2 -83t-13 -69q17 -37 1.5 -113.5t-12.5 -91.5q-16 -52 -23 -135.5t-14 -114.5q-3 -15 -10.5 -51.5t-12 -63.5t-5.5 -53q-18 -52 -51 -117t-54 -73q-53 -53 -133 -47q-4 0 -15.5 0.5t-17.5 0.5t-13 -1.5t-11 -5.5q-248 24 -285 254 q-4 25 -16.5 79.5t-16.5 88.5q0 13 -1.5 24.5t-4.5 26t-4 26.5q-3 28 -3 62.5zM213 600q-1 -24 9.5 -71.5t6.5 -73.5q13 -22 20 -85.5t23 -88.5q1 -6 3.5 -24.5t3.5 -25.5t3.5 -23t4.5 -23.5t6 -20.5t8 -20.5t10 -16.5t13 -15t16 -10q23 45 33 65.5t23 59t16 70.5 q14 36 25.5 85.5t16 78.5t13 100t10.5 88q31 190 31 258q0 55 -12 137q-4 16 -4 47.5v38.5q-6 83 -31 164q-9 32 -33 72q-10 13 -19.5 16.5t-20.5 -4t-18.5 -15t-19.5 -22.5q-43 -116 -69 -209.5t-31 -189.5q-7 -8 -11 -17t-6.5 -22t-3 -19.5t-1.5 -23.5t-1 -20 q-4 -33 -6.5 -75t-4.5 -92.5t-3 -72.5z" />
<glyph unicode="1" horiz-adv-x="352" d="M14 1245q-1 6 1 13.5t4 11.5t9 13.5t9 12.5q11 15 56 83t71 100q31 36 80.5 40.5t89.5 -34.5q9 -82 8 -126t-5.5 -126.5t-2.5 -140.5q1 -25 -0.5 -88.5t0.5 -88.5q6 -146 -15 -286q-5 -17 -2 -96.5t2 -102.5q0 -46 -7 -119t-8.5 -112t9.5 -119q2 -9 5.5 -21t5.5 -20 t0 -12q-4 -10 -55 -26.5t-72 -18.5q-43 -8 -66 12q0 50 3 153t3 154q1 115 21 337t22 335q-14 126 -4 213q-1 4 -2.5 12.5t-2 13.5t-1.5 12.5t-0.5 13t2 12t4.5 12.5q-12 -2 -34.5 -13.5t-41.5 -20t-43 -6t-43 22.5z" />
<glyph unicode="2" horiz-adv-x="526" d="M29 80.5q3 24.5 16 72t16 66.5q5 37 8 174t23 199q1 5 4.5 18.5t5 19t5 16t6.5 17t7.5 15t10 15.5t12.5 14q13 25 49 90.5t55.5 105t40 103t23.5 122.5q4 137 0 215q-4 48 -22 68q-20 2 -37 -10t-30 -30.5t-28 -36.5t-38 -29t-52 -7q-24 3 -34 15.5t-6 31t13.5 36.5 t24.5 38q9 12 35 34t39 28q46 20 126.5 15t117.5 -36q14 -9 53 -78q13 -34 14.5 -84t-3 -115t-3.5 -93q0 -68 -8 -93q-6 -17 -23.5 -49.5t-23.5 -46.5q-10 -30 -23 -55q-16 -33 -34 -68q-4 -11 -19.5 -28t-19.5 -25q-4 -5 -7.5 -13t-6.5 -17.5t-5 -14.5q-41 -74 -47 -96 q-5 -17 -4.5 -50.5t-3.5 -56.5q-1 -10 -9 -37.5t-11 -42.5q-3 -27 -9 -104t-12 -119q-1 -10 -4.5 -30t-5 -34.5t-0.5 -27.5q16 -10 44 -11t55 4t61.5 10t54.5 5q14 -2 26.5 -4.5t26 -11.5t10.5 -21q-3 -17 -48 -25t-54 -16q-43 1 -116 -8.5t-115.5 -12t-118.5 12.5 q-5 52 -2 76.5z" />
<glyph unicode="3" horiz-adv-x="485" d="M-2 96q-24 70 49 78q33 5 67.5 -1.5t43.5 -20.5q2 -4 2.5 -16.5t3.5 -16.5q4 -7 24 -16t29 -7q12 1 28 18t21 31q24 66 10 263q-8 66 -8 88q0 145 -18 237q-16 20 -72.5 21.5t-62.5 3.5q-21 5 -38 24.5t-7 38.5q13 20 59.5 29t60.5 22q46 46 50 144q0 8 1.5 57t0.5 74v86 q0 8 -3.5 25.5t-2.5 27.5t6 34t5.5 36t-7.5 39q-27 0 -51.5 -27t-36.5 -31q-10 -5 -36.5 -4.5t-45.5 8.5q-31 13 -33 42.5t16 57t41 40.5q49 25 158 18q18 -1 40 -8.5t30 -9.5q10 -3 30 -7.5t35 -9.5t27 -14q16 -37 24 -45q12 -219 -16 -379q-11 -80 -28 -127.5t-56 -67.5 q5 -19 32 -34.5t33 -22.5q19 -26 29 -117q1 -23 11 -70.5t12 -66.5q4 -45 5.5 -133t4.5 -127q-5 -17 -9 -57.5t-12 -72t-24 -48.5q-16 -6 -41 -31q-37 -1 -95 -24.5t-89 -26.5q-23 0 -31.5 -1.5t-30 2.5t-29 5.5t-29.5 6.5t-32 7q-1 2 -6 8t-6.5 7.5t-5.5 7t-5.5 7.5t-4.5 7 t-4.5 8.5t-4 8.5t-4.5 10.5t-4 11.5z" />
<glyph unicode="4" horiz-adv-x="602" d="M-6 504q-1 8 3 19t5 16q4 17 13 67t14 74q13 47 27 137t24 133q6 25 18 88t19 95q11 48 30 169t33 173q16 14 23 43q23 6 48.5 8.5t50.5 0.5t43 -14t22 -32q3 -18 -6.5 -61t-10.5 -54q-2 -16 -2 -40t-2 -38q-1 -15 -12.5 -43.5t-14.5 -38.5q-2 -10 -5 -31.5t-6 -36.5 t-7 -28q-1 -4 -7 -16t-7 -19q-5 -20 -8 -62t-7 -59q-2 -9 -8.5 -26t-7.5 -27q-3 -24 -1.5 -44.5t-1.5 -42.5t-13 -36q3 -46 -18 -126t-23 -120q12 -4 26.5 -4.5t25 1t26 4.5t24.5 4q18 53 21 127.5t9.5 142.5t33.5 117q92 18 118 -68q4 -11 4 -23.5t-2 -26.5t-2 -22 q0 -45 7 -120.5t8 -94.5q10 -4 25.5 -4t29.5 2t22 -9t5 -38q-5 -10 -27.5 -16t-28.5 -12q-13 -48 -19 -158t-22 -168q34 -79 -32 -166q-99 -46 -158 -18q-11 76 2 235t8 234q-23 1 -74 -4.5t-73 -6.5q-51 -4 -104 12.5t-58 51.5z" />
<glyph unicode="5" horiz-adv-x="579" d="M8 175.5q-2 27.5 5 45t22 25.5q31 16 112 -6q16 -22 23 -72t20 -72q25 -43 87.5 -31t78.5 56q1 9 -2 49t6 47q-12 95 -16 303q0 6 1 19.5t1 19.5q1 41 -0.5 107.5t0 116t10.5 89.5q-7 25 -13 106.5t-26 113.5q-10 -1 -35 -2.5t-35.5 -2.5t-28 -4t-32.5 -8q-4 -1 -12.5 -7 t-13.5 -7q-24 -2 -40.5 3t-25.5 13.5t-13.5 26t-5.5 31t-2.5 38.5t-2.5 39q0 2 -2 21.5t-2 23.5t-1.5 21.5t-1.5 24v22t1.5 24.5t3 22.5t4 25.5t6.5 24q-4 8 -4 33q32 14 107.5 23.5t92.5 13.5q7 3 7 -6q20 3 41 4t45 -1.5t39.5 -4.5t43.5 -6.5t39 -6.5q10 0 20 -0.5t19 -1 t17 -4.5t14 -12q-1 -14 -12 -28.5t-10 -24.5q-31 -3 -79.5 -29t-90.5 -24q-58 25 -91 12q-5 -11 -8 -22t-3.5 -24.5t-1 -22t1.5 -25.5t2.5 -23.5t4 -27t4.5 -25.5q12 -11 29.5 -15t42.5 -5t35 -3q9 -1 25 -7t22 -7q2 -1 15 -3.5t16 -3.5t13.5 -4t14 -5.5t12 -7t12.5 -9 t9.5 -11.5t9.5 -15q21 -91 21 -177q0 -29 -13 -82t-14 -77q-1 -25 -2 -70t-2 -70q0 -15 -1 -67t-1 -82q0 -16 5.5 -42.5t6.5 -37.5q2 -16 3 -44.5t2 -35.5q3 -26 10 -82t10 -86q-8 -26 -35 -71q-51 -41 -166 -45q-40 -13 -65 -20t-68.5 -14.5t-74 -5.5t-63.5 16t-54 42 q-1 4 -8.5 36.5t-10 51.5t-4.5 46.5z" />
<glyph unicode="6" horiz-adv-x="704" d="M15.5 366.5q0.5 36.5 4.5 59.5q-5 56 -4 84.5t7.5 88.5t7.5 87q2 53 5.5 181t6.5 192t13.5 161.5t27.5 178.5q22 36 90 108q27 13 52.5 17t67 3t52.5 -1q104 0 148 -25q13 -7 39.5 -26.5t41.5 -26.5q56 -97 64 -172q-10 -6 -49.5 -16t-48.5 -27q-67 -18 -107 22 q-2 16 -2 54t-6 66t-23 50q-11 7 -27.5 5t-25 -5.5t-23.5 -10t-24 -9.5q-16 -70 -33.5 -234t-21.5 -192q-10 -21 -14 -51.5t-4.5 -71.5t-2.5 -59q9 -10 62 -6t73 2q38 -4 77.5 -16.5t91.5 -34t63 -25.5q5 -11 27.5 -37.5t27.5 -46.5t5 -67t5 -70q1 -6 6 -18t8 -24.5t1 -27.5 q-2 -8 -9.5 -24.5t-9.5 -24.5q-2 -16 -5 -65.5t-8.5 -78t-18.5 -47.5q11 -17 -5 -51.5t-16 -38.5q-108 -84 -176 -108q-25 2 -55 -15q-11 1 -39 1.5t-49.5 3t-34.5 10.5q-22 -1 -42.5 3.5t-41 15t-32.5 18t-34.5 24t-29.5 21.5q-30 58 -43 94q-1 17 -4 63t-4.5 74.5t-1 65z M201.5 296q0.5 -33 4 -73.5t15.5 -71t33 -51.5q25 -25 69.5 -33t79.5 17q43 84 43 154q1 24 4 76t4 79t-1 76q-1 15 -9.5 44.5t-9.5 35.5q-4 15 -7 45.5t-7 38.5q-16 27 -65 48.5t-89 14.5q-8 -2 -25 -10.5t-28 -9.5q3 -20 -2 -78t2 -82q-10 -22 -10 -59q0 -26 -1 -77 t-0.5 -84z" />
<glyph unicode="7" horiz-adv-x="671" d="M6 1319q10 21 8 62t2 61q2 9 12 21.5t11 21.5q25 14 59.5 19t60.5 3t71 -7.5t65 -6.5q30 9 74 2q4 -1 20 -3t22.5 -3t20.5 -3.5t21.5 -4.5t19 -5t18.5 -5.5t14.5 -6.5t12.5 -8q33 3 43.5 1.5t36 -13t37.5 -14.5q11 -33 1 -74t-35.5 -92.5t-29.5 -61.5q-20 -59 -40 -144.5 t-25 -125.5q-2 -7 -10.5 -25.5t-10.5 -29.5q-3 -15 -11 -76.5t-9 -63.5q-2 -19 -14 -67t-13 -74q0 -3 2 -11.5t2 -11.5q-2 -11 -10.5 -36.5t-9.5 -38.5q0 -5 2 -15.5t2 -15.5q-1 -7 -9 -39t-7 -51q-7 -24 -8.5 -74.5t-2.5 -54.5q-4 -17 -18 -60.5t-16 -66.5 q-1 -28 10.5 -69.5t13.5 -59.5q-18 -10 -55.5 -12.5t-50.5 -6.5q-4 -1 -17.5 -4.5t-23 -5.5t-22.5 -2t-23 4q-7 1 -18 13.5t-13 13.5q4 64 10.5 201.5t11.5 221.5t21 193.5t41 188.5q-9 9 -8 16q61 201 84 315q5 23 20 107q45 82 60 151q-65 22 -160 7q-3 -7 -7.5 -27 t-9.5 -27q-31 2 -80.5 -29.5t-76.5 -29.5q-16 0 -35.5 17.5t-30.5 21.5z" />
<glyph unicode="8" horiz-adv-x="602" d="M4 203q0 45 8 133.5t8 122.5q3 217 35 344q15 72 66 141q-26 28 -36.5 39.5t-28 37t-25.5 50.5q-7 96 10 234q2 12 3.5 31.5t2.5 30.5t5 24.5t11 23.5q3 3 18 15.5t23 21.5q27 26 70 61q99 24 229 -6q9 -2 30.5 -6.5t35 -8t29.5 -9t27 -13t16 -16.5q9 -19 11.5 -44t0 -43 t-8 -50t-7.5 -45q-3 -26 -1.5 -75.5t-0.5 -74.5q-1 -6 -5.5 -15.5t-5.5 -14.5q-2 -10 0 -29.5t0 -28.5q-4 -16 -18.5 -39.5t-18.5 -36.5q11 -10 52 -18.5t51 -24.5q-5 -27 -2 -77q0 -24 -11.5 -71.5t-13.5 -61.5q-4 -24 -5.5 -53t-2 -50.5t-1.5 -56.5t-1 -53q0 -8 -4 -25 t-4 -25q-1 -8 1 -22t1 -21q-14 -176 -96 -333q-12 -4 -20.5 -12t-18 -24.5t-11.5 -19.5q-10 -3 -44 -16t-56.5 -18.5t-46.5 -6.5q-74 -4 -142 16.5t-92 69.5q-6 14 -9 35t-4 35.5t-2 42.5t-1 35zM207 528q1 -14 7 -44t7 -46q3 -71 0.5 -133.5t4 -133t24.5 -118.5q7 3 12.5 7 t10 8t9 11.5t7 12t6 14t4.5 13.5t3.5 15t3 14t3 15t2.5 13q14 3 19.5 40t17.5 46q-6 9 -0.5 36t0.5 42q8 26 8 119q2 67 1.5 206.5t2.5 202.5q-21 26 -75 11q-53 -78 -74 -277q5 -13 4 -21.5t-4.5 -26t-3.5 -26.5zM217 1135q-1 -32 21.5 -73t25.5 -54q24 -17 53 -23 q3 6 11 6q15 19 18.5 39.5t-1.5 53.5t-5 38q0 2 4 3t4 3q0 15 -2 49t-2 52q0 22 -5.5 72t-4.5 77q-10 -4 -34 -8.5t-41.5 -11.5t-25.5 -21q-5 -9 -5 -22.5t2 -31t1 -28.5q-1 -19 -7 -61.5t-7 -58.5z" />
<glyph unicode="9" horiz-adv-x="665" d="M20 182q13 27 51.5 34t75.5 -0.5t72 -20.5q2 -9 2.5 -43.5t9.5 -55.5q42 -28 72 -26q17 2 44 13t30 19q7 31 7.5 175t21.5 190q-5 35 -3 55.5t6.5 60t4.5 66.5q-36 11 -56.5 9.5t-49 -6t-44.5 -3.5q-54 8 -99 45t-56 94q-6 27 -6 99t-1 90q0 10 -2 26t-2 21 q1 14 9.5 32.5t9.5 26.5q1 9 -2.5 29t-3.5 25q0 87 13 175t44 122q34 40 104 62t136 24q99 2 153.5 -22t67.5 -93q7 -40 4.5 -132t3.5 -134q8 -36 1.5 -153.5t-1.5 -172.5q10 -36 -2 -78q-18 -71 -8 -123q0 -6 -7 -9.5t-8 -8.5q2 -49 -7 -118.5t-13 -110.5t8 -115 q1 -5 -5 -8t-5 -9q11 -45 11.5 -97t-9.5 -79q-23 -17 -59 -23.5t-88 -8.5t-80 -7q-10 -1 -58.5 -10.5t-67 -10.5t-75.5 1q-57 8 -82 22q-12 7 -31.5 34t-23.5 46q-4 12 -5.5 27t-1 27.5t-0.5 27.5zM256 1112q-1 -14 0.5 -26.5t5 -28t4.5 -23.5q4 -9 0 -59.5t-4 -61.5 q5 -60 26 -111.5t52 -62.5q13 -6 43 2.5t37 8.5q4 12 12 16q-1 36 8.5 99t10.5 87q2 42 2 85t-0.5 67t-3 73.5t-3.5 65.5q-1 13 -2 41t-2 45.5t-3.5 39.5t-7.5 38t-13 25h-4q-90 -17 -117 -93q1 -33 -17.5 -113.5t-23.5 -113.5z" />
<glyph unicode=":" horiz-adv-x="192" d="M-6 358q-2 22 16.5 57t20.5 48q32 14 78 7.5t71 -28.5q-2 -14 -11 -36t-11 -32.5t6 -37.5q-18 -1 -38 -16t-26 -17q-97 -9 -106 55zM15.5 78q4.5 60 29.5 72q84 -5 129 -31q-7 -19 -4.5 -54.5t-1.5 -48.5q-16 -1 -39 -8t-39 -12.5t-34 -4t-31 14.5q-14 12 -9.5 72z" />
<glyph unicode=";" horiz-adv-x="198" d="M-25 -129q2 22 30 67.5t28 77.5q-1 7 -3 18.5t-3 19t0.5 16t7.5 14.5q15 14 39.5 12t45 -10t36.5 -18v-44t-0.5 -43.5t-5.5 -38.5t-15 -28q-17 -3 -39.5 -16t-38 -23t-39.5 -14.5t-43 10.5zM7 352q4 25 24.5 40t46 21t54.5 -0.5t50 -25.5q7 -22 5.5 -54t-9.5 -34 q-6 -7 -14 -12t-19 -6.5t-20 -1.5t-24 2t-24.5 4t-29 6t-29.5 6q-15 30 -11 55z" />
<glyph unicode="&#x3c;" horiz-adv-x="526" d="M23 616q34 40 133 168q18 24 47 59t48.5 59.5t27.5 37.5q52 21 102 12q3 -6 15 -15t20 -16t13.5 -22t-5.5 -31q-14 -6 -29 -20.5t-24.5 -28.5t-26.5 -39.5t-25 -36.5q-17 -23 -49 -64.5t-45 -60.5q-2 -24 40 -71.5t94 -92t95 -91.5t42 -70q-6 -6 -15.5 -20.5t-15.5 -20.5 q-23 -16 -27 -17t-35 3q-4 3 -19.5 18t-27 25.5t-26.5 22t-25 15.5q-27 30 -108 109t-111 104q-2 2 -26.5 18t-33 30.5t-3.5 35.5z" />
<glyph unicode="=" horiz-adv-x="649" d="M14 743q27 28 109.5 49.5t93.5 26.5q44 -5 154 4q32 2 115.5 0.5t134.5 1.5q-3 -7 -13 -19t-15 -19.5t-7.5 -21t8.5 -22.5q-20 -15 -31 -43q-42 -7 -180.5 -10t-204.5 -20q-9 0 -31 -1.5t-34 -1.5t-31 1t-29.5 5.5t-21.5 12.5t-15 22.5t-2 34.5zM20 463q-20 40 25 80 q11 -3 32 1t27 13q28 -7 120 -1t216.5 16t143.5 8q6 1 10 -5.5t10 -5.5q5 -1 19 3t16 -3q-17 -7 -26.5 -24t-18.5 -44t-14 -38q-28 -2 -205.5 -15t-249.5 -14q-9 -6 -28 -1.5t-27 7t-25.5 11.5t-24.5 12z" />
<glyph unicode="&#x3e;" horiz-adv-x="544" d="M2 301q7 10 4 33q21 31 95 82.5t147 103.5t94 84q-37 19 -136 101.5t-124 119.5q-8 13 -27 29.5t-29.5 26.5t-8 25.5t27.5 31.5q12 1 34.5 4t37.5 2.5t33 -6.5q17 -28 85 -80.5t137 -105t87 -78.5q59 -35 71 -86.5t-43 -67.5q-16 -13 -104 -80q-11 -16 -43.5 -40.5 t-75 -52.5t-51.5 -34q-7 -41 -51.5 -50.5t-91 4.5t-68.5 34z" />
<glyph unicode="?" horiz-adv-x="450" d="M5.5 157q4.5 48 4.5 62q0 13 4 33q0 154 37 272q24 79 60 127q11 14 42 45.5t44 51.5q53 79 63 122q6 23 9.5 49t5 61t2 51t0 61t-0.5 49q1 34 8 106.5t5 112.5q0 43 -10 63q-11 29 -52 31t-65 -20q-6 -12 -10.5 -27.5t-7 -26.5t-6 -30t-5.5 -27q-15 -6 -27 -12 q-7 -3 -14.5 0t-15 11.5t-13.5 16t-12.5 17.5t-9.5 14q-9 82 39 150q48 44 135 44t139 -38q32 -41 44.5 -89t18 -134t9.5 -117q2 -12 2 -59.5t2 -59.5q9 -46 4 -160q-4 -55 -8 -73q-21 -105 -82 -152q-8 -6 -16.5 -15t-14.5 -15t-14 -18l-11 -16.5l-12 -18t-10 -15.5 l-11.5 -11.5t-14.5 -17.5q-1 -4 -1 -12.5t-1 -12.5q-2 -6 -16.5 -38t-16.5 -50q-2 -8 -2 -17t1 -20t1 -16q-2 -14 -11 -43.5t-10 -46.5q-1 -10 0 -33t-1 -39t-9 -28q12 -16 15.5 -36t2 -50.5t-1.5 -40.5q-4 -5 -10 -5t-13.5 2t-12.5 1q-12 -4 -28 -14.5t-26.5 -17.5 t-29 -10.5t-33.5 7.5q-24 17 -30 45.5t-1.5 76.5zM31 -141q-3 14 1.5 45.5t2.5 44.5q10 13 24 17.5t39.5 4t34.5 0.5q19 -5 31 -21t22.5 -40t18.5 -35q-2 -17 -27 -37.5t-58.5 -27.5t-66.5 16q1 0 -4 7.5t-11 15.5t-7 10z" />
<glyph unicode="@" horiz-adv-x="624" d="M29 1029q1 21 6 40q21 83 35 115q5 11 16.5 18t21.5 9.5t30 6t30 5.5q13 3 58 19.5t73 21.5q72 8 113 -4l21 -4q21 -3 41.5 -9t27.5 -14q11 -14 17.5 -31.5t12 -44.5t7.5 -35q-1 -40 25 -146.5t28 -144.5q-5 -17 -5 3q0 10 2 39v34q-1 -1 -3 -12q-1 -18 2 -105.5 t-2 -125.5q-3 -50 -0.5 -90.5t1.5 -89t-9 -81.5q7 -70 -11.5 -120.5t-64.5 -100.5q-11 -6 -53 -26t-64 -37q-8 -5 -68 -13t-92 -10q-73 -12 -141 76q-10 91 -14 131t-6.5 105t-0.5 141q2 88 14 149.5t48 106.5q35 15 58 24.5t55.5 20t54.5 12t44 -2t35 -20t17 -44.5 q10 -58 10 -158q4 -66 4 -94q0 -114 -36 -187q-16 -20 -60 -20.5t-63 14.5q-16 14 -21 35t-1 35l3 14q5 8 21 18.5t20 14.5q6 51 5.5 122.5t-17.5 100.5q-12 9 -39 -18q-2 -2 -5.5 -8t-8 -40.5t-2.5 -88.5q1 -38 -4.5 -120.5t-1 -128t27.5 -57.5q59 -31 191 43 q19 46 27.5 99t9.5 82.5t-2 100t-3 91.5q-1 10 0.5 28.5t0 31.5t-8.5 24q2 16 -4 62q6 19 1 65.5t-21 73.5q2 13 2.5 26t-2.5 28.5t-4.5 24t-8.5 26t-8.5 21.5t-9.5 23q-24 13 -53 13.5t-51 -6t-56 -18.5t-53 -17q-2 -8 -3.5 -67t-19.5 -81q-53 -55 -89 -2q-32 48 -27 128z " />
<glyph unicode="A" horiz-adv-x="665" d="M7 57q0 6 0.5 18.5t0.5 18.5q2 100 2.5 277t1.5 231q0 19 -2 60t-2 63q1 84 13 229.5t14 171.5q1 13 5 40.5t5 47.5q1 23 2.5 40.5t4 40.5t6 41t8.5 38.5t11.5 35.5t14.5 29.5t19 23.5t24 15t29 5.5t35 -6.5q28 25 66 25q12 0 26 -3q12 -2 51 -6q23 -1 49 -11.5t41 -19.5 t44 -29t38 -26q6 -19 17.5 -36.5t27 -36.5t23.5 -31q34 -136 39 -269v-11q0 -35 -5 -95q-6 -70 -6 -105q0 -15 4 -53t2 -59q0 -5 -4 -16.5t-4 -16.5q-1 -12 1 -36.5t1 -37.5q-1 -17 -8 -50t-8 -50q0 -8 2 -24.5t2 -24.5q-1 -12 -8.5 -39t-7.5 -41q-3 -26 -3 -84q0 -35 1 -83 q2 -94 2 -137v-22q-1 -10 -7.5 -15t-24.5 -7.5t-22 -3.5q-6 -2 -22.5 -11t-24.5 -10h-5q-37 0 -64 39q18 78 23.5 180.5t5.5 224.5t3 179q-12 13 -32 17t-33 3t-44 -7t-38 -7q-10 -1 -39.5 -3.5t-47.5 -6.5t-32 -13q4 -40 4 -93q0 -81 -8 -193q-7 -99 -8 -174q0 -67 6 -115 q-8 -1 -48 -15q-38 -14 -63 -14h-3q-26 1 -44 25q-4 6 -5.5 14t-1.5 14zM178 717q22 -4 52 -4q37 1 85 7q81 12 119 11h6q9 37 10 83v16q0 38 -4 78q-5 48 -11.5 93.5t-14.5 102.5t-12 100q-1 8 -3 32t-3.5 39.5t-5 36.5t-9.5 36q-23 6 -48 6q-21 0 -44 -4 q-10 -8 -25.5 -31.5t-25.5 -32.5q-10 -38 -19 -133q-3 -16 -13 -50.5t-13 -55.5q-1 -3 1 -11t1 -12q0 -6 -5 -20.5t-6 -20.5q-5 -44 -6 -132.5t-6 -133.5z" />
<glyph unicode="B" horiz-adv-x="587" d="M6 68q6 69 27.5 300.5t28.5 334.5t8 272v20q0 157 -15 281q-3 8 -11 28.5t-12 35.5t-3 30q1 4 11.5 22.5t8.5 30.5q43 37 103 58q53 18 105 18h15q57 -1 111.5 -36.5t75.5 -82.5q21 -58 26 -120q2 -16 2 -59v-31v-19q0 -53 5 -74q-7 -19 -11 -42t-4.5 -39.5t-1 -44 t-0.5 -38.5q-1 -19 -10 -75q-7 -42 -7 -70q0 -10 1 -18q1 -1 22.5 -24.5t30 -34.5t20 -33.5t13.5 -43.5q1 -9 1 -22q0 -24 -4 -64q-6 -60 -7 -77q0 -53 -13 -177q-1 -4 -5 -15t-5 -17q-3 -22 -4.5 -78.5t-11 -85t-37.5 -43.5q-5 -3 -19.5 -5t-21.5 -5q-10 -4 -32.5 -19 t-33.5 -18q-8 -2 -23 -1.5t-24 -0.5q-62 -10 -112 -10q-62 0 -103 16q-5 4 -38.5 31t-45.5 45zM193 154v-6q0 -24 16 -64q-1 -2 -6 -5.5t-4 -10.5q9 -12 23 -14q4 0 9 -1q11 1 27 3q22 4 37 1q11 2 20.5 8.5t16 19t11.5 22.5t8.5 29t5.5 27.5t4.5 29.5t3.5 24q3 19 6 61.5 t4 53.5q3 20 10 70.5t9 73.5q4 24 6 62q1 21 1 41q0 15 -1 29q-2 30 -9 60q-18 7 -35.5 8t-34 -4t-29 -9.5t-30 -13t-26.5 -12.5q-3 -12 -3 -16.5t3 -14.5q4 -14 4 -21q0 -29 -11 -85q-12 -60 -14 -78q-2 -26 -0.5 -47.5t-2 -44t-13.5 -39.5q3 -16 3 -35q0 -16 -2 -36 q-4 -42 -7 -66zM215 1376q-1 -3 -1 -10q0 -23 15 -86q1 -7 8.5 -23.5t8.5 -27.5q6 -30 6 -62q3 -37 3 -87q0 -67 -5 -157q-8 -157 -8 -165q3 -1 7.5 -1t9.5 1q11 2 13 2t12.5 4t14.5 6q8 29 13.5 61t8.5 74.5t4.5 66.5t2.5 80.5t2 73.5q0 3 1 40.5t1 46t-0.5 39.5t-3 44 t-6.5 36t-11 39.5t-16 31.5q-10 3 -21 3q-12 0 -26 -4q-26 -8 -33 -26z" />
<glyph unicode="C" horiz-adv-x="606" d="M4 942q0 8 1.5 38.5t2 40.5t2.5 34.5t4.5 37.5t6.5 31.5t10 34.5q0 112 53 197q42 66 128 102q69 29 139 29q17 0 34 -2q58 -8 66 -15q6 -3 11 -15t9 -17q3 -4 7.5 -8.5l7.5 -7.5t5.5 -6.5t2.5 -6.5q3 -25 -21 -42t-45 -19q-11 0 -27.5 7.5t-23.5 8.5q-10 2 -20 2 q-31 0 -56 -18q-33 -23 -49 -64q-29 -67 -31 -92q0 -5 2 -15.5t2 -15.5q-1 -9 -8 -27.5t-8 -27.5q-6 -38 -8 -86q-2 -38 -2 -70q1 -8 1 -15v-25q0 -26 -1 -54q0 -5 6.5 -8t5.5 -8q-9 -5 -10.5 -15t1.5 -29.5t3 -29.5q0 -13 -1 -42t-1 -53.5t2 -43.5q1 -9 5.5 -28.5 t4.5 -29.5q-2 -26 -2 -56q0 -100 18 -247q15 -129 84 -176q12 0 21 4t14.5 14.5t8.5 17t7 23.5t5 21q27 19 61.5 24t60 1.5t68.5 -13.5q1 -13 -5 -35.5t-9 -44.5q-104 -73 -187 -96q-39 -9 -80 -9q-34 0 -69 6q-78 14 -123 46q-22 23 -37 71t-20.5 84.5t-12.5 98.5 q-6 57 -10 182q-5 209 -5 342q0 67 1 115z" />
<glyph unicode="D" horiz-adv-x="647" d="M16 90q6 111 8.5 332t8.5 346q1 17 11.5 154t12.5 206q1 21 1 49q0 35 -2 83q-2 61 -1 96v24q-1 7 -10.5 13.5t-11.5 13.5q5 29 30 41.5t64 17.5t53 11q28 -4 84.5 -8.5t95 -12t76.5 -24.5q23 -17 59 -54.5t54 -52.5q3 -7 10 -37.5t16 -42.5q13 -168 19 -346 q0 -39 5 -145q4 -76 4 -134q0 -22 -1 -44q-2 -72 -14 -146q-2 -8 2 -15.5t4 -11.5q-15 -24 -16.5 -83t-14.5 -91q-25 -65 -123 -98q-4 -1 -8 -7t-8 -7q-12 -5 -97 -46.5t-130 -45.5q-4 0 -7.5 -6.5t-7.5 -6.5q-14 2 -46 -2q-14 -2 -26 -1q-15 0 -24 3q-16 5 -27.5 18 t-22.5 32t-20 28zM206 1319q2 -17 8 -50t7 -48q2 -12 2 -49q-1 -8 -1 -20v-6q0 -49 9 -59q-6 -52 -6 -138q1 -27 1 -57q1 -58 1 -104q0 -57 -2 -100q0 -9 -4.5 -23.5t-5.5 -19.5q-1 -20 2.5 -54t3.5 -44v-35q-1 -16 -1.5 -62.5t-2.5 -70.5q0 -7 -3 -20.5t-3 -20.5 q-1 -18 5 -49.5t5 -46.5q0 -14 -2.5 -37.5t-2.5 -35.5t3 -34h4q23 -1 43 9q21 10 49 36t35 31q18 50 30.5 108.5t19 101.5t9 114.5t2.5 103.5t-1.5 115t-1.5 106q0 56 -0.5 123.5t-2.5 128.5t-16 128t-41 120q-40 14 -87 14q-25 0 -52 -4q-3 -25 -3 -40v-11z" />
<glyph unicode="E" horiz-adv-x="565" d="M16 96q-7 52 -7 129q0 133 20 340q4 31 6.5 96.5t7.5 104.5q1 6 5 15t5 14q9 120 9 231q0 134 -13 256q-1 9 2 29t2 30q-1 5 -2.5 30.5t-3.5 39.5q-9 42 -1 54t28 16q7 3 27 3q15 0 39 -2q43 -3 61 -3h8q19 0 79 5q43 4 73 3h22q4 0 27 -0.5t30.5 -1t26 -2.5t28 -4.5 t22.5 -7t22 -11.5q-1 -3 -17 -25.5t-16 -43.5q-8 -9 -17.5 -10.5t-17 2t-21 9t-24.5 7.5q-22 2 -43 2q-31 -1 -59 -5q-50 -8 -74 -32q10 -72 13 -167q2 -63 2 -120q0 -28 -0.5 -55t-0.5 -56q0 -58 2 -126q25 -10 132 -11t139 -19q-14 -8 -35.5 -43.5t-44.5 -37.5 q-5 -1 -11 0.5t-13.5 5t-10.5 4.5q-21 4 -43 4q-58 0 -123 -30q-4 -16 -5.5 -35.5t-0.5 -34t0 -31.5q-1 -5 -7 -15t-7 -15q0 -2 3 -9t3 -10q0 -5 1 -10q0 -23 -7 -57q-8 -42 -11 -67t8 -60q-10 -27 -10 -93q-1 -12 1 -34.5t1 -32.5q0 -5 -2 -19t-1 -25.5t7 -21.5q8 0 45.5 1 t49 1t41 -1t44 -4.5t35 -10t35.5 -16.5q-7 -2 -1 -28q3 -11 0 -12q-1 0 -3 1q-23 -25 -69 -32q-25 -4 -51 -4q-21 0 -42 2q-49 6 -101 6q-3 0 -6 1q-49 0 -83 -8q-74 17 -107 57z" />
<glyph unicode="F" horiz-adv-x="694" d="M6 92q1 39 5 120t5 128q0 2 -5 2.5t-5 3.5q0 12 3 25t3 21t-6 18q-1 6 4.5 8t5.5 4q29 422 31 487q16 74 16 123q0 10 -3.5 33.5t-2.5 36.5q0 4 5 12.5t6 13.5q0 8 -4.5 25t-4.5 25q1 15 7.5 40t7.5 37q2 32 2 65q0 73 -8 155q6 5 16 16t16 16q45 0 89 1.5t98.5 5 t83.5 4.5q24 1 74 5.5t78 6.5q12 1 27 1q18 1 40 -1q39 -2 69 -12q-2 -17 -14.5 -42.5t-15.5 -41.5q-46 -9 -87 -9q-12 1 -24 1q-24 2 -51 1q-31 0 -65 -2q-64 -4 -103 -24q-3 -40 -7.5 -112.5t-9 -127.5t-12.5 -100q7 -14 7 -38q0 -30 -11 -77q20 -5 50 -5q36 0 86 7 q42 6 71 6q34 0 49 -8q0 -1 -4 -19.5t-5.5 -24.5t-7.5 -21.5t-12 -22t-16.5 -14t-23.5 -8.5q-14 -2 -40 5.5t-40 6.5q-70 -3 -117 -53q-2 -31 -5 -145t-13 -175q4 -18 5.5 -44t0.5 -48.5t0 -50.5q8 -12 8 -29t-8 -27q-1 -7 6.5 -10t5.5 -10q-8 1 -9.5 -3t1 -9t1.5 -9.5 t-9 -5.5q2 -12 5.5 -54t8.5 -62q-6 -9 -26 -20t-27 -17q-2 -1 -28 -26.5t-50 -26.5q-52 0 -117 69z" />
<glyph unicode="G" horiz-adv-x="643" d="M2 339q2 56 2 85v18q-1 26 -1 63q0 73 3 187q2 53 12.5 184.5t12.5 172.5q0 4 2.5 95t9.5 140q14 69 35 115q11 25 28.5 51t30.5 35q12 8 47 14.5t39 13.5q2 2 3 2t1 -4q10 -2 69.5 -6.5t86.5 -19.5q20 -11 90 -51q10 -4 16 -9q3 -5 6.5 -18t4.5 -16q2 -6 9 -14t7 -15 q0 -12 -7 -23.5t-13 -17t-21 -16.5t-18 -13q-17 -2 -42 14.5t-32 18.5q-3 1 -14.5 0.5t-14.5 1.5q-5 2 -26.5 22t-36.5 19q-18 -2 -30.5 -22t-17 -40.5t-9.5 -52t-7 -39.5q-2 -6 -7.5 -15t-6.5 -13q-1 -13 3 -49.5t3 -51.5q0 -33 -7 -99t-9 -91v-24q0 -61 7 -168 q9 -118 9 -179v-12q0 -24 -5 -76q-4 -38 -4 -62q0 -10 1 -18q0 -7 4 -19t4 -18q1 -9 2 -31t1.5 -32t2.5 -27.5t5 -28.5t8 -24.5t12 -25.5q13 -22 35.5 -24t55 8t40.5 11q22 28 30 70q6 31 6 61q0 11 -1 22q-3 41 -4 89v11q0 41 4 75q-10 10 -39 21t-49.5 25t-20.5 36 q0 12 8 20.5t17 11.5t26 7.5t25 7.5q17 -2 64.5 -4.5t84.5 -8.5t64 -20q4 -14 4 -38q0 -21 -4 -51q-4 -39 -4 -65q0 -15 2 -26q1 -13 5.5 -37.5t6.5 -43.5q1 -10 1 -19t-1 -17q-2 -17 -17 -62t-14 -67q-9 -9 -19.5 -16.5t-24.5 -14.5l-21 -10.5t-26 -11.5t-23 -10 q-7 -3 -23 -11t-25.5 -12.5t-25.5 -9.5t-31 -8q-36 -6 -70 -6q-47 0 -91 11q-77 17 -130.5 66.5t-60.5 122.5q-2 17 -2 53v53z" />
<glyph unicode="H" horiz-adv-x="630" d="M4 18q1 7 4 15q3 289 37 1122q6 222 6 225q0 6 0.5 25t1.5 29.5t3 26.5t7 28.5t13 23.5q8 1 25 5t24 4h4q6 0 16 -2q13 -2 27 -7q8 -19 13.5 -41t6.5 -50t2 -47t-3 -53.5t-5 -46.5t-6.5 -49t-5.5 -40q-3 -15 -3 -51q1 -14 1 -30q1 -37 0 -57v-20q-2 -26 -13 -80.5 t-12 -85.5q32 -6 65 -7t55 -0.5t60.5 3.5t59.5 4q10 22 11.5 64t7.5 63v8q0 58 12 238q2 42 14 119q1 6 3 33t3.5 35.5t5 27.5t9.5 32t14 25q33 5 61 5q50 0 82 -17q4 -29 6 -58q1 -17 0 -37v-26q-1 -34 -2.5 -56t-5 -66.5t-4.5 -65.5q-20 -266 -26 -314q-5 -45 -7.5 -95 t-3.5 -111.5t-2 -92.5q-13 -192 -12 -336q0 -119 8 -206q-63 -15 -109 -15q-49 0 -77 17v70q0 224 10 632q-31 27 -113 27q-4 0 -7 1q-77 0 -113 -11q2 -24 2 -59q0 -51 -5 -125q-5 -69 -5 -118q0 -37 3 -61q4 -26 11 -31q1 -4 -5 -8.5t-1 -9.5q8 -49 14 -163.5t22 -172.5 q-93 -23 -119 -25q-8 -1 -16 -1q-50 0 -49 33v7z" />
<glyph unicode="I" horiz-adv-x="290" d="M0 53q8 60 15 198t16 212q-4 32 -3.5 48t4.5 48t5 49q18 327 18 593q0 128 -4 243q26 34 84 48q35 8 66 9q21 0 39 -4q0 -34 6 -133q8 -96 8 -234q0 -14 6 -44t6 -46q0 -13 0.5 -48t0.5 -54.5t-1.5 -48.5t-5.5 -51q-3 -17 -9 -108.5t-22 -133.5q7 -31 7 -50.5t-7 -27.5 q1 -11 1 -25q0 -63 -11 -198q-1 -13 -1 -31q0 -35 3 -88.5t3 -91.5q0 -19 -1 -35q-13 -8 -39 -8t-34 -2q-11 -2 -25 -14.5t-21 -14.5q-16 -6 -31 -6q-41 0 -73 49z" />
<glyph unicode="J" horiz-adv-x="612" d="M2 153q1 16 7 49.5t7 53.5q1 14 2 43t2 43q1 7 -0.5 25t0.5 22q18 36 78 36q6 0 12 -1q69 -3 101 -35q3 -14 -1 -27.5t-12.5 -30.5t-11.5 -26q-4 -4 -2.5 -34t0.5 -40q-1 -12 -4.5 -35.5t-4 -34.5t5 -27t20.5 -28q11 -4 23.5 -2t19.5 2.5t16 5.5t13.5 8t12 10t11 11 t10 12.5t10.5 12.5q3 67 9.5 208t11 266t6.5 241q0 54 12 276q2 49 10.5 132t10.5 106q5 80 10 88q13 26 53 29q9 1 17 1q32 0 63 -9q38 -12 60 -27q6 -20 7 -45v-16q0 -16 -1 -28q-2 -20 -6 -48.5t-5 -45.5q0 -6 3 -19.5t2 -21.5q-2 -20 -11.5 -61.5t-11.5 -63.5v-73 q-1 -13 -4 -39t-4.5 -42.5t-0.5 -39.5t5 -43q-12 -67 -13 -194.5t-3 -161.5q-1 -14 -7.5 -42.5t-7.5 -43.5v-17q0 -50 4 -130q6 -95 6 -136q-28 -57 -81 -90q-11 -7 -35.5 -13t-34.5 -10q-6 -3 -22 -13t-25 -13q-46 -17 -98 -23q-28 -4 -55 -4q-24 0 -46 2q-49 6 -85.5 31.5 t-45.5 68.5q-3 25 -3 41q0 6 1 10z" />
<glyph unicode="K" horiz-adv-x="784" d="M8 63v9q0 29 4 84q6 65 6 84q0 11 3.5 29.5t3.5 23.5q-1 7 -1 29q0 66 5 264q0 108 -2 358.5t-2 368.5q0 14 -2.5 38t-3.5 39.5t1.5 32.5t13.5 27.5t32 13.5q9 2 22 2q24 0 64 -8q60 -12 75 -22q17 -11 29 -38t12 -57q0 -56 -5 -202q-4 -104 -4 -171q0 -27 1 -48 q13 5 22.5 15.5t19.5 28.5t15 25q7 10 28 31.5t30 36.5q4 6 7.5 21t8.5 22q4 6 25.5 28t29.5 35q8 11 20.5 35t16.5 31q7 12 22.5 31t20.5 28q6 9 14.5 33.5t16.5 30.5q18 15 46 16.5t51 -5t57 -18t49 -14.5q-2 -27 -25 -57.5t-28 -44.5q-35 -35 -87.5 -117.5t-84.5 -116.5 q10 -25 12.5 -63t2.5 -88t3 -80q3 -26 12.5 -92t12.5 -99q3 -25 4.5 -79.5t5.5 -83.5q2 -22 15.5 -64.5t17.5 -62.5q2 -12 5 -33t4.5 -33t7 -28t13.5 -29q5 -9 14.5 -22.5t17 -23.5t15.5 -25t11.5 -28.5t3 -32t-7.5 -38.5q-15 -11 -72 -19q-6 -1 -31 -8t-38 -9h-7 q-10 0 -23 4q-17 6 -26 24q-2 3 -2 15.5t-2 18.5q-1 4 -4 9t-5.5 8t-2.5 4q-1 3 1 11.5t1 12.5q0 5 -6 17t-7 16q-5 23 -10 72.5t-10 73.5q-2 11 -8.5 34.5t-8.5 36.5q-15 65 -26.5 145.5t-24.5 192.5t-18 150q-10 -12 -32 -39.5t-42 -51.5t-37 -42q-1 -54 -5 -150 q-5 -95 -7 -162q-2 -48 -1 -104v-46q1 -84 7 -147q-7 -1 -64.5 -30t-93.5 -29h-7q-31 0 -56 16q-28 18 -29 49z" />
<glyph unicode="L" horiz-adv-x="536" d="M2 59q1 4 1.5 13.5t1.5 15t5 8.5q-9 14 -9 42q0 9 1 20q0 8 6 128q4 72 4 119q0 31 -2 52q11 30 11 59q0 7 -1 14q-1 36 -1 80q1 128 11 328q14 269 15 365q0 133 10 176q41 12 80 12q45 0 86 -16q1 -40 6 -124.5t6 -129.5t3 -133v-46q0 -56 -3 -90q-5 -128 -17 -365 t-15 -290q-1 -12 1 -38t-0.5 -45t-11.5 -38q1 -6 8.5 -30t6.5 -42q21 -6 55 -6q18 0 40 2q62 6 106 9q6 1 13 0q38 0 81 -19q0 -6 -4.5 -11t-12.5 -10.5t-12 -9.5q-4 -3 -12.5 -14.5t-14.5 -13.5q-1 -6 -30.5 -2t-32.5 4h-4q-22 0 -107 -8q-23 -3 -63 -6t-53 -5 q-6 -1 -26 -8q-18 -6 -27 -6h-3q-53 5 -96 59z" />
<glyph unicode="M" horiz-adv-x="825" d="M-2 137q6 92 21.5 297t21.5 314q1 19 7 112q6 86 6 107l-3 123q-6 78 -26 229q-8 54 -8 85q0 19 3 30q30 20 84 20q41 0 97 -12q88 -106 118 -139l30.5 -61t33.5 -68.5t26.5 -58.5t24.5 -62q8 7 15 17.5t10.5 19t9 23t8.5 20.5q4 10 16 41t17 47q5 18 12.5 56t12.5 56 q1 5 7.5 16t8.5 17q4 12 9.5 34.5t9 35.5t11.5 30t19 29q24 11 46 13q7 1 13 0q17 0 37 -4q28 -6 39 -9.5t45 -15.5q13 -90 13 -180v-33q0 -18 -6.5 -57.5t-6.5 -59.5v-18q0 -37 3 -95q5 -82 5 -119q0 -41 -8 -110q8 -14 8 -42.5t5 -47.5q-9 -26 -11.5 -95t-11.5 -92 q9 -108 8.5 -192t-8.5 -143q-10 -72 -10 -175h-4q-18 0 -58 -24q-44 -26 -65 -29h-9q-34 1 -62 21q-32 24 -9 53q7 61 12.5 133t7.5 119t5.5 134.5t5.5 123.5q2 32 14 203.5t12 271.5q-13 -24 -63 -162q-2 -6 -3 -19.5t-3 -17.5q-21 -42 -75 -60q-22 -7 -41 -7q-29 0 -54 16 q-27 20 -47 62t-30 83.5t-26.5 88.5t-36.5 73q2 -28 1.5 -59.5t-1.5 -65.5q-3 -68 -10.5 -161.5t-9.5 -139.5v-12q-1 -19 1 -55q1 -19 1 -33q0 -23 -2 -33q-1 -7 -8 -20.5t-8 -20.5q-2 -9 -4.5 -30t-4.5 -31q-1 -13 -8 -35.5t-8 -26.5q-1 -11 0.5 -37.5t-0.5 -33.5 q-1 -7 -7.5 -19.5t-8.5 -17.5q-3 -17 -4 -50.5t-5.5 -56.5t-19.5 -36q-21 -14 -44 -14q-13 1 -25 5q-38 12 -58 37z" />
<glyph unicode="N" horiz-adv-x="686" d="M-8 96q8 66 8 164q0 68 -4 152q13 105 22 403q8 234 8 442q0 128 -3 246q34 37 96 37q13 0 26 -2q52 -6 71.5 -18t41.5 -52q60 -109 96 -143q77 -214 107 -354q3 39 3 86q0 39 -2 83q-5 98 -11 165.5t-16 160.5q-2 17 -3 25q21 19 55.5 22.5t57 -0.5t67.5 -15q9 -2 13 -3 q5 -14 8 -27t4.5 -31t2 -28t1 -36t0.5 -36t2 -31.5t2 -31.5q0 -1 -3 -8t-3 -9q0 -12 4.5 -38t3.5 -41v-23q0 -49 3 -129q4 -100 5 -127q0 -5 -2 -17.5t-2 -17.5q-2 -22 -5 -70.5t-5 -70.5q-1 -15 2.5 -38t3.5 -34q1 -11 -4.5 -50t-3.5 -62q1 -17 1 -38q0 -57 -10 -137 q-14 -109 -16 -139q-1 -33 -15.5 -91t-16.5 -71q-9 -5 -25.5 -5.5t-24.5 -4.5q-9 -4 -19 -16t-17 -14q-4 -1 -8 -1q-25 0 -60 25q0 12 1 17.5t-2.5 14t-5.5 11.5t-6.5 9.5t-6.5 9.5q12 20 13 41t-5.5 50t-7.5 36q0 5 2.5 16.5t1.5 15.5q-1 8 -8.5 20.5t-8.5 16.5 q-3 10 -4 21.5t-1 25t-1 21.5q-4 26 -14 74.5t-15.5 88t-5.5 76.5q-7 7 -9 18t-2 29t-1 29q-2 19 -12 61t-11 66q-1 13 -10 39t-10 31q-6 25 -14 69.5t-13 63.5q-8 32 -33 96t-34 96q-1 -11 -7 -156.5t-12 -211.5q-2 -10 -2 -33v-33q2 -48 2 -63q-1 -13 -7 -39.5t-7 -40.5 q-2 -30 -10 -102q-6 -73 -10 -125q-2 -33 -3 -62q0 -16 1 -31q0 -25 -6 -85q-5 -51 -5 -80v-9t5 -11.5t6 -10.5q0 -5 -2.5 -20t-2.5 -21q0 -34 -4 -43q1 -4 8.5 -16.5t6.5 -22.5q-20 0 -43 -9.5t-38 -18.5t-35 -9t-38 16q-6 14 -6 42v24q4 46 -4 57z" />
<glyph unicode="O" d="M0 328q12 251 33 372q41 219 63 461v45.5t4 55.5q5 35 22 95.5t21 80.5q4 4 25.5 31t38.5 36q79 19 115 21q8 0 25 -5t26 -5q17 -1 48.5 1t57 1t49.5 -9q22 -9 50.5 -27t39.5 -34q8 -10 24 -47.5t24 -48.5q3 -6 5 -15.5t1.5 -22.5t-1 -23t-2 -25t-1.5 -21q0 -9 5.5 -28.5 t4.5 -30.5q0 -6 -4.5 -17.5t-5.5 -15.5q-1 -15 4.5 -44.5t5.5 -43.5v-16q0 -29 -4 -69q-6 -46 -6 -66v-5q1 -10 7.5 -30.5t6.5 -32.5q0 -26 -3 -78t-3 -78q0 -9 4.5 -27t5.5 -24q0 -15 -5 -48t-5 -50q0 -9 1.5 -37t0.5 -43q0 -13 -10 -58q-1 -7 -2.5 -21.5t-2.5 -21.5 t-4 -17.5t-8 -18.5q7 -17 -1 -50.5t1 -40.5q-29 -85 -59 -133q-1 -1 -29 -12.5t-45 -19.5q-9 -5 -22.5 -17.5t-20.5 -15.5q-67 -39 -171 -41q-6 0 -12 -1q-97 0 -182 40q-90 42 -108 121q-6 30 -6 79q0 41 4 95zM213 483q3 -30 3 -87v-20v-14q0 -64 4 -116q4 -58 20 -109 q4 -4 13 -18.5t18 -21t24 -7.5q9 7 23 11.5t33 7.5t28 6q12 17 22 37t17.5 44t13 41.5t11 48t8 44t8 47.5t6.5 43q12 75 16 235q2 52 2 94q0 58 -4 93q-1 7 2.5 20t3.5 17q-4 217 -6 335q-4 136 -37 201q-2 0 -4.5 2t-5.5 2q-28 -24 -117 -43q-28 -43 -37.5 -104 t-13.5 -134.5t-14 -117.5q4 -27 4 -38t-5.5 -39t-6.5 -38q-3 -54 -9 -98q-5 -33 -6 -150t-14 -174z" />
<glyph unicode="P" horiz-adv-x="618" d="M-2 691v1q2 0 5 1q3 -1 4.5 -0.5t0.5 3.5q4 107 15 187q1 4 -0.5 5.5t-4 1t-5 0t-1.5 3.5t7 9t6 11q1 27 6 145q4 99 4 159v22q0 13 1 42t1 54t-2 47q-2 32 -27 64q2 5 7.5 20.5t8.5 21.5t9 16.5t14 16.5t19 9q9 2 30.5 -1t28.5 -3q12 1 44 5q28 4 50 3h5q23 0 40 -8 q24 -2 46 -2h26l28 2q20 0 43 -2q38 -4 62 -19q9 -4 30 -24t29 -31q3 -5 7 -17.5t10 -21t16 -12.5q-4 -10 -3 -13.5t6.5 -11t6.5 -12.5q9 -35 12 -106.5t5 -92.5q-12 -85 -12 -179q0 -65 6 -134q-12 -38 -19 -56.5t-22.5 -44t-36.5 -42.5q-3 -3 -13 -8t-14 -9 q-49 -43 -82 -49q-7 -1 -27.5 -4t-31.5 -6q-31 -9 -74.5 -9.5t-68.5 -5.5q-1 -18 -5.5 -68t-6.5 -82q-3 -32 -5 -78q-2 -38 -2 -72v-13q0 -40 4 -76q1 -6 5 -19.5t5 -19.5q1 -8 -1.5 -20.5t-2.5 -15.5q1 -4 8 -23.5t6 -28.5q-3 -44 -60 -84q-42 -29 -80 -29q-15 0 -29 5 q-6 24 -10 54.5t-4.5 49t-1.5 60t-1 51.5q-3 79 -7 241zM203 743q24 -20 64 -20q7 1 15 1q50 4 80 30q7 7 13 15.5t9.5 20.5t6 20.5t4.5 24.5t2.5 23t2 25.5t1.5 23.5q15 204 15 299q-1 55 -3 85t-12.5 71t-29.5 63q-15 -1 -49 1q-21 2 -40 2h-22q-28 -2 -51 -13 q11 -170 11 -286v-43q-2 -126 -17 -343z" />
<glyph unicode="Q" horiz-adv-x="659" d="M-2 1288q8 56 35 107t65 80q16 12 35 18.5t33 8t45.5 4t52.5 5.5q57 6 104 6q184 0 220 -90q11 -33 22 -96q7 -32 15 -127q1 -12 6 -34t6 -31q1 -10 1 -22q0 -30 -5 -73q-7 -62 -8 -79q-1 -8 1.5 -26.5t0.5 -27.5q-1 -5 -5.5 -16t-5.5 -16q-2 -21 2.5 -63.5t2.5 -63.5 q-1 -12 -4.5 -28.5t-5.5 -31.5t-1 -33v-17q0 -29 -4 -72q-7 -56 -8 -74q-2 -19 -9.5 -62t-8.5 -65q0 -3 2.5 -13t1.5 -16q-1 -8 -3.5 -52t-9.5 -82t-22 -71q107 -110 180 -149q20 -10 31.5 -16t34.5 -19t33 -23q5 -7 5 -12q0 -3 -2 -6q-3 -5 -36 -5q-8 0 -18 1q-50 1 -70 8 q-70 20 -117.5 41.5t-67 36t-45.5 39.5q-42 -22 -84 -31q-13 -3 -50 -14.5t-52 -14.5q-31 -7 -60 -7q-36 0 -70 10q-62 20 -101 69.5t-40 116.5q0 2 4.5 11t4.5 11t-5.5 8.5t-5.5 8.5q-1 5 3 16.5t4 17.5q0 13 -3.5 40t-3.5 40q0 7 10 192q5 113 5 193q0 50 -2 86 q-2 44 -15 158q-12 100 -12 155v15q-12 43 -12 95q0 38 6 81zM198 1238q1 -17 6.5 -54t6.5 -56v-133q0 -23 4 -62t5 -59t-5 -55q12 -53 15 -117q2 -38 2 -70q0 -21 -1 -40q-2 -47 -7 -123.5t-7 -116.5q7 -23 7 -90q0 -22 -1 -48v-23q0 -88 21 -115q16 -6 30 -6q2 -1 3 -1 q13 0 25 5q12 4 21.5 9t20 15.5t16 17.5t15.5 19l-56 45q-10 9 -16.5 16.5t-11.5 16.5t-7 13t-7 17.5t-7 18.5q-3 5 3 19t16 32t12 23q6 5 12 8t12.5 3t11.5 -0.5t12.5 -5t11.5 -6.5t12.5 -9.5t12 -11l13 -13t13.5 -12.5q2 79 21 318q18 227 18 364v14q0 31 -8 85.5t-9 74.5 q-1 12 -2.5 45.5t-3 56.5t-6.5 55.5t-12.5 54.5t-21.5 42t-34 28q-20 9 -40 9q-24 0 -47 -15q-40 -26 -56 -69q2 -16 1 -22t-5.5 -20t-5.5 -20q-3 -28 -3 -44v-8z" />
<glyph unicode="R" horiz-adv-x="600" d="M-4 82q9 53 15 106.5t9 121t4.5 103t3 122t1.5 108.5q1 34 1 78q0 87 -4 211q-6 186 -6 258q0 5 1.5 16t1.5 17q1 9 1 19q0 26 -4 60q-5 48 -7 76v11q0 26 7 63q28 5 82 22q55 18 104 28q38 8 73 8q10 0 20 -1q13 -1 38 -9.5t36 -10.5q6 -1 20 0.5t19 -0.5 q32 -9 65 -35.5t51 -56.5q29 -51 29 -131q0 -23 -2 -49q1 -4 4.5 -13.5t5.5 -13.5q-3 -28 -3 -83q0 -64 4 -166q2 -53 2 -95q0 -109 -13 -150q-17 -12 -59 -24t-58 -21q7 -17 17.5 -42t16.5 -39t13 -36.5t11 -46.5q2 -13 6.5 -51.5t9.5 -58.5q4 -16 16 -46.5t15 -45.5 q4 -27 6 -121t16 -129q-8 -11 -27 -17.5t-30 0.5q-32 -24 -68 -30q-8 -1 -15 -1q-29 0 -58 17q-6 16 -8 36.5t-2 49t-1 45.5q-2 18 -10.5 157t-23.5 208q-3 14 -5 24t-7 25t-11.5 23.5t-15 15.5t-20.5 6t-27 -10q-21 -226 -21 -374q0 -67 4 -118q-7 -8 -16 -11.5t-25 -5 t-24 -3.5q-13 -4 -30.5 -16.5t-35.5 -18.5t-41 0q-27 8 -51 45zM193 1380q10 -25 13.5 -48.5t3 -63.5t-0.5 -51q2 -36 24 -271q2 -26 2 -70q0 -22 -0.5 -49t-0.5 -49q0 -45 2 -73q14 -2 27 -2q55 0 104 30q24 184 28 283q7 98 7 148q0 17 -1 28q0 22 -0.5 50.5t-1 55 t-4.5 55t-12 50.5q-28 21 -76 21q-12 0 -26 -2q-67 -6 -88 -42z" />
<glyph unicode="S" horiz-adv-x="622" d="M-2 226q2 50 3 78q0 16 -1 26q18 14 43 17.5t51 -3.5t47.5 -16t40.5 -21q-12 -35 -12 -77q0 -20 2 -42q8 -66 41 -102q13 -2 28 3.5t25 6.5q21 19 36 47t24.5 71t14 67t10.5 81.5t7 69.5q2 16 10.5 57t10.5 64q2 17 1.5 59t2.5 58q0 3 4.5 10.5t5.5 9.5q2 18 2 41 q0 35 -4 83q-6 78 -6 85q-9 3 -41 13t-46 15t-38.5 15t-41.5 21.5t-32 25.5q-42 38 -53 82q-11 42 -11 106.5t11 151.5q9 75 59 125t121 51q51 0 80 -4q6 -1 24.5 -10t31.5 -12q51 -14 98 -41q6 -3 19 -8t21.5 -10t14.5 -11q-4 -15 -10.5 -56.5t-16.5 -64.5q-9 -19 -27 -46 t-30 -30q-3 -1 -7 -1q-21 0 -53 28q-36 32 -46 55q-2 6 -2 16t1 24t1 22q-10 3 -20 3q-25 0 -42 -21q-24 -29 -31 -73q-5 -31 -5 -65q0 -14 1 -29q1 -12 6.5 -36.5t6 -34.5t-8.5 -29q22 -44 37 -61q29 -8 82 -29t80 -29q12 -9 21 -21t15.5 -22.5t10.5 -27.5t6.5 -27.5 t2.5 -31v-30t-2.5 -33t-3.5 -30.5t-4.5 -33t-4.5 -30q-3 -18 -3 -50t-1 -47q-3 -27 -13 -73q-12 -46 -16 -82q-2 -19 -2 -35q0 -15 2 -29q-14 -37 -23 -103.5t-24.5 -116t-50.5 -77.5q-28 -2 -82 -22.5t-80 -24.5q-29 -3 -56 -3q-91 0 -167 38q-4 8 -16 23t-19 28.5t-8 28.5 q-3 15 -3 49q0 24 1 56z" />
<glyph unicode="T" horiz-adv-x="831" d="M-3 1460q0 4 -0.5 8t0.5 10q1 11 1 13q0 24 45.5 36.5t93.5 14.5q25 0 69 -7t62 -7q21 1 60 7.5t57 8.5q23 2 71.5 4t73.5 4q26 1 50 0q187 0 233 -34q-7 -20 -12 -30t-7.5 -12.5t-11 -5.5t-14.5 -6q-25 -3 -128.5 -7.5t-162.5 -20.5q3 -55 3 -191.5t7 -208.5 q-5 -58 -5 -130q0 -18 -1 -35q-1 -49 1 -91q2 -54 5.5 -136.5t4.5 -131.5q0 -9 -7 -26t-8 -27q0 -2 5 -8t5 -9q1 -7 -4.5 -27.5t-5.5 -27.5q0 -82 4 -123q0 -7 -2.5 -11.5t-6.5 -8t-5 -6.5q14 -38 14 -90q-1 -8 -1 -16q-1 -21 0 -39q0 -36 3 -62q-13 -4 -39.5 -4.5 t-40.5 -3.5q-11 -2 -31 -14t-32 -13q-16 0 -25.5 7.5t-27.5 27.5q13 111 17 237q3 84 3 155q0 37 -1 69q-1 39 -1 82q0 66 2 143q2 153 2 218t-2.5 229t-3.5 245q-23 22 -57 26q-12 1 -24 1q-22 0 -44 -4q-33 -8 -72 -9h-5q-36 0 -66 13q-3 1 -11 2.5t-13.5 3.5t-8.5 6 q-4 5 -5 12z" />
<glyph unicode="U" horiz-adv-x="755" d="M2 258q2 56 4 90t8 87t10.5 85t12.5 85.5t12 86.5q-1 16 -1 33t1 35q2 36 6.5 82t5.5 73q1 10 1 30v36q-1 29 -1 49v21t2 43t2.5 47.5t1 42.5t-1 47.5t-4 41.5t-6.5 44q6 19 6 38q-1 13 -3 25q-5 26 -5 55q1 7 1 13q2 34 22 47q31 5 68 5h12q44 -1 77 -21q1 -8 -6 -10.5 t-8 -4.5q-1 -70 3 -202q3 -115 4 -212v-28q0 -108 -9 -215q1 -4 1 -7.5v-4.5v-3t1.5 -3.5t3.5 -4.5q0 -2 3 -8.5t3 -9.5q-2 -25 -2 -63q0 -46 3 -111q4 -80 4 -132q0 -26 -1 -44q-1 -14 -8.5 -46.5t-7.5 -47.5q0 -9 4.5 -56t-4.5 -61q12 -16 15.5 -51.5t17.5 -51.5 q23 -25 57.5 -22t68 21.5t50.5 41.5q5 14 15 42.5t15.5 45t14 46t11 46t6.5 45t-1 42.5q19 72 19 264q2 64 2 116q0 79 -4 132q5 36 5 96q0 116 -20 319q0 5 2.5 14.5t2.5 14.5q-1 12 -5.5 30.5t-5 26.5t5.5 25q-4 4 -7.5 19.5t-8.5 19.5q10 19 30 29q18 9 43 9h5 q28 -1 51 -4.5t55 -10.5t45 -9q5 -15 3.5 -37t-7.5 -32q6 -4 5 -50t-1 -53q1 -28 9 -99t8 -112q0 -26 -8 -76.5t-9 -72.5q-1 -16 -3.5 -48.5t-3 -48.5t0.5 -49q3 -76 3 -143q0 -180 -23 -301q-3 -20 -14 -37q1 -37 -13 -77.5t-35.5 -86t-29.5 -69.5q-14 -6 -33 -27t-21 -23 q-21 -7 -59 -24t-71 -27.5t-66 -11.5h-6.5h-7.5q-8 1 -20 3t-19 3q-4 0 -26.5 1.5l-30 2t-28 2.5t-29.5 4t-26 6t-26.5 9t-20.5 12t-18 16q-19 9 -25 11q-8 15 -23.5 48.5t-23.5 49.5q-3 25 -3 59q0 16 1 35z" />
<glyph unicode="V" horiz-adv-x="700" d="M2 1473q6 26 36 34.5t62.5 2.5t57.5 -19q56 -98 86 -260q10 -49 40 -152t40 -155q2 -10 5 -26t4.5 -26t6 -22.5t10.5 -22.5q3 -56 31.5 -140t32.5 -105q-11 -25 6 -60q4 50 69 971q29 36 83 36h9q61 -3 89 -36q-2 -21 -17 -43q4 -20 -3 -59.5t-7 -47.5q-1 -18 -6.5 -55.5 t-5.5 -56.5q0 -5 3 -15.5t3 -15.5q-1 -17 -10 -46.5t-11 -43.5q-4 -36 -4 -98v-40q0 -25 1 -46q0 -57 -3 -92q-4 -63 -4 -84v-7q1 -17 -7 -47.5t-9 -40.5q-1 -13 -1 -35.5t-1 -35.5q-25 -204 -31 -236q-2 -6 -8.5 -23t-7.5 -26q-1 -6 2.5 -15t3.5 -12q0 -7 -6 -21.5 t-6 -21.5q-2 -13 -2 -62.5t-9 -74.5q2 -8 6 -20t5 -21q-16 -11 -37.5 -22t-49.5 -20q-19 -6 -37 -6q-9 -1 -18 1q-27 4 -43 25q-4 39 -10 84t-11.5 82.5t-16.5 93.5t-17 87.5t-20 96.5t-19 89.5t-21 96.5t-20 89q-4 15 -9 45t-9 45q-35 156 -150 491q-14 48 -22 68 q-24 53 -24 71q0 3 1 5z" />
<glyph unicode="W" horiz-adv-x="1028" d="M-11 1448q3 20 21 31q19 12 37 12q17 1 35 -11q36 -22 59 -61q63 -115 97 -360q3 -27 12 -75t13 -85q2 -21 2 -42q0 -16 -1 -32q18 -32 24.5 -110.5t12.5 -102.5q10 -42 12 -75q5 -45 27.5 -126.5t26.5 -119.5q10 10 17.5 24.5t10 25.5t7 30t6.5 28q4 20 18 61t18 62 q4 26 -3.5 59t-22 76t-19.5 66q-5 25 -19 75t-20 84q-4 26 -4 50v16q18 9 34 10t29 -6.5t24 -17t21.5 -25.5t18 -29t16.5 -29.5t15 -25.5q14 -1 22 9.5t14 28t9 22.5q14 15 29.5 26t30.5 17t26 -1t14 -28q1 -7 5.5 -25.5t4 -23t-4.5 -19.5q-40 -68 -40 -171q0 -98 40 -177 q10 36 22.5 65t20 50t19 103.5t24.5 234.5q1 12 11.5 185t24.5 261q2 14 8 49t10 68t5 62q22 25 64 29q11 1 23 1q30 0 57 -9q38 -12 55 -34q-7 -14 -13.5 -30.5t-10.5 -29.5t-8.5 -34.5t-6 -32.5t-5.5 -37t-6 -36q-30 -192 -34 -246q-3 -23 -9 -43q-8 -50 -8 -78 q0 -14 2 -23q-5 -8 -7 -18t-3 -24.5t-2 -22.5q-3 -15 -13.5 -41t-13.5 -39q-2 -4 -0.5 -16.5t0.5 -16.5q-1 -5 -7 -13.5t-7 -12.5q-1 -5 -1.5 -19t-2.5 -22q-2 -9 -9.5 -35.5t-8.5 -40.5q-1 -18 -5 -80q-1 -24 -12.5 -71t-13.5 -70q-2 -60 -2 -84.5t2.5 -83.5t3.5 -84 q-4 -6 -10.5 -10.5t-12.5 -7t-17 -7t-17 -6.5q-27 -12 -42.5 -18t-42.5 -6.5t-44 14.5q-5 5 -8 12t-5 16.5t-4 14.5q-42 121 -78 164q-8 -28 -30 -76q-23 -48 -37 -92q-13 -42 -13 -86v-6q-16 -38 -76 -54q-21 -5 -39 -5q-35 0 -61 20q-6 46 -26 130.5t-27 125.5 q-59 322 -70 405q-2 13 -9 82.5t-13 104.5q-7 36 -21 57q-2 10 -8.5 52.5t-9.5 60t-10 56.5t-12 62.5t-12.5 56.5t-15.5 61t-16 54q-3 8 -13.5 32.5t-15.5 40.5q-3 10 -3 22q0 6 1 14z" />
<glyph unicode="X" horiz-adv-x="681" d="M-1 78q9 114 116 393q36 92 43 115q2 7 10.5 43t15.5 57q1 4 9 24t10.5 28t5.5 22.5t2 25.5q0 12 -4.5 28t-13.5 40t-13 35q-14 59 -28 96q-43 119 -74 264q-5 22 -18 72.5t-19.5 79t-5.5 61.5t16 49q8 4 24 5q5 0 11 -1q24 -2 29 -10q40 -54 72.5 -135.5t65 -178 t60.5 -153.5q12 5 19.5 30t15.5 30q-2 5 0 10.5t3 8t-3 5.5q9 21 150 322q4 9 8.5 25t9.5 25t14 13q11 7 28 7q16 0 38 -6q44 -12 47 -38q2 -9 -2 -18t-13.5 -21.5t-11.5 -15.5q-4 -11 -10 -42.5t-12 -43.5q-2 -4 -9 -10t-7 -8q-3 -9 -4 -29.5t-3 -30.5q-8 -10 -14 -21.5 t-12.5 -29t-9.5 -24.5q-52 -118 -60 -138q-46 -109 -67 -172q-13 -35 -13 -57q-4 -22 0 -39q1 -16 4.5 -34t11 -43t11 -36.5t15.5 -45.5t14 -38q36 -113 67 -184q6 -15 25.5 -55.5t27.5 -61.5q10 -26 29 -94t35 -102q2 -5 7.5 -14.5t8.5 -17.5t2 -17q-15 -1 -63 -13 q-42 -10 -77 -10h-11q-18 5 -26.5 16t-16.5 38t-10 32q-5 10 -14.5 28.5t-16 33.5t-10.5 30q0 3 -1.5 16t-3.5 19q-1 4 -7.5 13t-8.5 14q-11 26 -27 94t-32 98q-13 -5 -24 -14.5t-19 -26.5t-12.5 -28.5t-11.5 -34t-9 -29.5q-28 -78 -45 -180q-15 -23 -23 -81t-16 -73 q-10 -7 -24 -9q-6 -1 -14 -1q-10 0 -22 1q-20 2 -30 1q-8 -1 -16 -1q-65 0 -64 90q0 13 1 28z" />
<glyph unicode="Y" horiz-adv-x="704" d="M-8 1464q10 21 34 28.5t44 6t52 -7t40 -6.5q145 -269 194 -373q31 38 55 97.5t52 157t33 112.5q20 22 48 23q3 1 6 1q27 0 68 -13q46 -15 54 -17q-1 -12 -7.5 -33t-7.5 -35q-18 -24 -56.5 -121t-78.5 -129q-4 -33 -13.5 -53t-29.5 -43q2 -14 0 -20t-9 -16.5t-9 -16.5 q-3 -16 -4 -56t-8 -61q-5 -18 -8 -38t-4.5 -57.5t-2.5 -48.5q-2 -29 -2 -79v-70q2 -74 2 -111v-24q0 -8 -4 -22.5t-4 -22.5q-2 -15 0.5 -43t1.5 -39q-1 -7 -6.5 -22.5t-5.5 -24.5q-1 -5 2.5 -15t3.5 -16t-3 -21t-3 -22v-12q0 -46 12 -158q-4 -8 -21.5 -16t-21.5 -17 q-25 8 -50.5 3.5t-44.5 -13.5q-17 -8 -35 -8h-5q-20 1 -35 18q-10 12 -10 68q1 16 13 148q9 88 9 138q0 24 -2 39q6 8 7.5 17.5t0 24t-1.5 18.5q1 6 5.5 16.5t5.5 16.5q2 19 0.5 56.5t-0.5 49.5q1 14 12 158q9 106 9 166q0 22 -1 37q-129 290 -270 501z" />
<glyph unicode="Z" horiz-adv-x="669" d="M0 31q12 26 18 55.5t10 74t7 62.5q2 23 11 65t11 58q4 25 12.5 112.5t18.5 133.5q1 10 7.5 28t8.5 25q2 10 3.5 32t3.5 32q2 7 10 24.5t10 26.5q31 121 43 151q10 25 33.5 71t32.5 67q2 4 17.5 38.5t19.5 42.5t17.5 36.5t20.5 40.5t19 34t23.5 38t23.5 32q-4 10 20.5 46 t18.5 44q-14 3 -19.5 3.5t-35.5 -2.5t-37 -3q-25 -1 -67.5 -5.5t-71.5 -7t-58.5 -3t-45 6t-15.5 19.5q-3 13 -3 24t2.5 18t5.5 12.5t9.5 8.5t12 5t14.5 2.5t15.5 1t17 1t16.5 0.5q14 1 30 0.5t37 -1t33 0.5q20 1 63 7t60 8q31 4 90 11.5t80 9.5q10 -6 38.5 -2.5t45.5 -2.5 q-3 -38 -17.5 -73.5t-27 -53t-39.5 -51.5q-15 -49 -58 -122.5t-55 -100.5q-8 -30 -38.5 -84t-39.5 -82q-2 -8 -19.5 -79.5t-33.5 -106.5q1 -22 -3 -43.5t-12 -50.5t-11 -41q-12 -52 -19.5 -111.5t-13.5 -133.5t-12 -118q-2 -8 -11 -25.5t-10 -27.5q-1 -9 3 -38t-3 -38 q40 -17 87 -17h13q55 2 99 15t96 19q16 2 30 1q32 0 58 -8q-2 -10 -10 -16.5t-21.5 -11.5t-19.5 -9q-11 -7 -38 -33t-44 -34q-29 -2 -184 -18t-246 -17q-33 22 -37 27z" />
<glyph unicode="[" horiz-adv-x="321" d="M15.5 1578.5q0.5 19.5 7.5 31.5q14 24 62.5 29.5t76.5 -5.5q6 0 71 1t72 -5q39 -8 53.5 -37.5t-12.5 -68.5q-64 2 -85.5 -20.5t-20.5 -92.5q0 -13 10 -80q1 -9 1.5 -35.5t2.5 -44.5q2 -25 -5.5 -76.5t-8.5 -62.5q-1 -33 2.5 -109.5t1.5 -117.5q-1 -18 -8 -59.5t-7 -63.5 q2 -25 -2 -80q-3 -40 4.5 -114t8.5 -95q1 -18 -3.5 -51.5t-5.5 -42.5q-6 -44 -3.5 -95t5.5 -71q2 -11 8.5 -37.5t9.5 -41t1.5 -33.5t-10.5 -31q5 -11 2 -27q25 -24 96 -27t82 -6q17 -36 7.5 -59t-29 -33t-53 -14.5t-64 -5t-61.5 -4t-46 -11.5q-21 2 -45.5 7.5t-49.5 15 t-42.5 26t-20.5 35.5q0 4 1.5 16t3 27.5t2.5 22.5q21 148 8 313q-1 23 2 72t2 74q-2 52 2 157q1 21 0 65.5t0 67.5q1 9 6 34t4 38q-1 16 -3 43t-3 48.5t0 41.5q0 12 4.5 36.5t3.5 37.5q1 6 -2.5 14.5t-3.5 11.5q-1 12 2.5 37.5t3.5 36.5q0 112 -18 303q-1 13 -6 36.5 t-8.5 41t-3 37z" />
<glyph unicode="\" horiz-adv-x="595" d="M-29 1468q4 11 9.5 19.5t14.5 13.5t16.5 8t20 3.5t21 1t23.5 -2t22.5 -3.5t23.5 -4.5t21 -4.5q7 -7 13.5 -17t10.5 -18t9 -23t6.5 -21t5.5 -23.5t5 -20.5q7 -9 18.5 -34.5t21.5 -34.5q9 -24 13.5 -52t8.5 -62.5t7 -53.5q4 -22 19.5 -72t19.5 -78q7 -39 18 -76 q2 -7 3.5 -21.5t3.5 -21.5q2 -6 9 -18t9 -18q38 -115 53 -193q0 -3 -1 -10t-1 -10q2 -8 9 -21.5t10.5 -25.5t-0.5 -23q22 -33 43.5 -121t46.5 -125q0 -12 9.5 -40t10.5 -32q1 -12 15 -66t16 -58t14.5 -22t12.5 -30q-23 -26 -39 -53q-83 -45 -146 -10q-1 2 -6.5 10t-7.5 10.5 t-6.5 10t-6 12t-4.5 12t-4.5 13.5t-2.5 14t-1 16q-24 55 -57.5 174t-58.5 174q-5 16 -9.5 36t-7.5 28q-21 85 -69 243.5t-68 235.5q-8 32 -48 212t-69 273z" />
<glyph unicode="]" horiz-adv-x="405" d="M-57 -37q-23 35 10 58t74 16q5 3 11 14t11 15q9 0 15.5 -13.5t15.5 -13.5q3 2 19.5 4.5t29 8.5t14.5 18q-11 159 -14 352q0 20 -5 116t1 113q4 31 4 94q0 2 -3 9.5t-3 9.5q0 3 5 8.5t5 9.5q0 22 -3.5 64.5t-4.5 58.5q0 38 9 115t9 115q0 7 -4 21.5t-4 21.5q1 18 10 58.5 t11 61.5q1 12 0 34t0 32t4.5 32t5.5 35t3.5 31.5t0.5 34.5q-13 4 -68 10.5t-84 16.5q-18 6 -37.5 26t-21.5 31q-1 15 12 23.5t15 15.5q28 5 58.5 5.5t51 -1t56.5 -5t57 -5.5q88 9 153 -23q22 -56 13 -121q9 -17 11 -37t-0.5 -34.5t-8.5 -37.5t-8 -34q-1 -7 0 -21.5t0 -21.5 q-1 -9 -13.5 -63t-13.5 -86q-10 -287 -10 -330q0 -7 1 -22t0.5 -24.5t-3.5 -17.5q4 -8 6 -35.5t10 -37.5q-8 -39 -5 -106t9 -115t14.5 -115.5t10.5 -108.5q1 -10 -1 -28.5t-0.5 -31.5t9.5 -24q-9 -30 0.5 -78.5t5.5 -68.5q-7 -28 -45 -55.5t-72 -36.5q-12 1 -38 3t-48 3 t-43 0q-12 0 -35.5 -7.5t-41.5 -4.5q-2 0 -29 16l-31.5 10.5t-39.5 17.5t-23 25z" />
<glyph unicode="_" horiz-adv-x="858" d="M1 80q-9 23 1 29q9 27 34 30.5t58 -4.5q57 -6 120 -7t138 0.5t115 0.5q42 -1 157.5 15.5t176.5 5.5q10 1 17 -1t12.5 -10t7.5 -12t6.5 -18.5t5.5 -16.5q-2 -17 -20.5 -34.5t-55.5 -30.5q-56 -4 -210 -6t-247 -15q-35 5 -79.5 4.5t-84 -4.5t-81 5t-70.5 34q8 12 -1 35z " />
<glyph unicode="a" horiz-adv-x="671" d="M10 1260q-1 14 -1 28q0 136 65 180q38 26 119 28h25q64 0 106 -11q5 -1 17.5 -6t18.5 -6q14 -2 38 -2.5t36 -2.5q4 -1 16.5 -6t20.5 -6q31 -10 49.5 -22.5t36.5 -40.5q25 -41 31 -115q3 -40 4 -78q0 -30 -2 -59q-1 -16 -2 -33q0 -48 10 -98q-4 0 -7 -16.5t-3 -22.5 q10 -140 10 -146q0 -10 5.5 -33.5t6.5 -35.5q1 -10 -2 -30.5t-2 -29.5q1 -2 5.5 -9.5t4.5 -10.5q3 -10 9 -70q2 -42 1.5 -85t-1.5 -85q4 -13 4 -37q0 -15 -1 -33q-1 -12 -1 -21q0 -33 10 -48q-6 -10 -6.5 -20t2.5 -24t4 -20v-5q-1 -14 -5 -40q-6 -30 -7.5 -49.5t8.5 -48.5 q-9 -3 -36.5 -14.5t-41 -16t-36.5 -9.5t-42 -1.5t-37 14.5v23q0 44 2 114q4 90 4 136q1 11 5.5 42.5t3.5 45.5q-4 35 -4 156q-1 2 -4.5 6.5t-5 6.5t-0.5 5.5t5 7.5q-18 22 -83 28q-16 2 -30 2q-42 0 -63 -15q-16 5 -24.5 2.5t-24.5 -11t-26 -10.5q-3 -26 -1.5 -39t7 -39.5 t6.5 -40.5q2 -14 0.5 -48t-0.5 -48q1 -5 5.5 -16.5t4.5 -16.5q3 -29 3 -56q0 -21 -2 -40q-2 -26 -2 -57v-41q2 -55 17 -97q-9 -8 -30 -10.5t-29 -5.5q-9 -3 -23.5 -12.5t-24 -15t-26.5 -9.5q-5 -1 -9 0q-12 0 -23 6q-7 3 -17 16.5t-16 18.5q4 16 4 41q0 17 -2 39q0 13 4 43 t4 47q-3 71 -5 226t-5 235q-2 58 -3 155t-3 156q-2 38 -9.5 130t-9.5 137zM166 1285q0 -4 -1 -9q-1 -16 1 -40q2 -32 2 -44q0 -11 3 -96q1 -36 1 -59q0 -31 -2 -38q-1 -23 3.5 -60.5t4.5 -45.5q7 -121 23 -186q48 5 250 10q-3 50 -13.5 271.5t-23.5 336.5q-10 7 -17.5 30.5 t-21.5 26.5q-3 1 -7 1q-18 -1 -58 -17q-42 -17 -65 -16h-7q-9 1 -22.5 8.5t-27.5 7.5q-12 -17 -17 -40.5t-5 -40.5z" />
<glyph unicode="b" horiz-adv-x="600" d="M6 49q2 58 8 161.5t9 185.5q2 41 1.5 79t-1.5 74q2 3 5.5 11t4.5 11v13q-1 98 13 334q14 253 17 342q0 16 6 68q3 28 3 48q0 16 -2 25q-2 8 -10 17.5t-13 15t-3 15t15 21.5q21 18 67.5 27.5t86.5 9.5q18 0 35.5 -1t30.5 -1.5t30.5 -3.5t26.5 -4t28 -5t25 -5t27 -6t26 -6 q24 -16 40.5 -42.5t24.5 -50.5t12 -65t4.5 -63t0.5 -67v-20q0 -9 1 -19q0 -47 -13 -101q-2 -6 -8.5 -18.5t-7.5 -20.5q-1 -6 -3 -45t-8 -62q-2 -3 -10.5 -13.5t-9.5 -19.5q7 -7 45 -29q37 -23 53 -49q9 -14 9 -31q0 -15 -7 -34q11 -35 13 -77v-17q0 -31 -4 -58 q-6 -34 -12 -82.5t-7 -84.5v-70q-1 -5 -6 -18.5t-6 -22.5q-1 -2 2.5 -9.5t3.5 -11.5q-4 -72 -10 -124q-5 -44 -26.5 -80t-53.5 -43q-5 -2 -25 -0.5t-28 0.5q-14 -2 -42 -14t-42 -13q-17 -2 -55 0.5t-54 1.5q-15 0 -44 -4q-19 -3 -31 -3q-6 0 -9 1q-6 1 -16.5 8t-16.5 8 q-8 2 -33.5 2.5t-35.5 8.5q-2 7 -10.5 14.5t-10.5 11.5zM197 229q9 -20 9 -52q0 -9 -1 -18q-2 -22 -1.5 -43t1.5 -40q19 -6 47.5 -6t66.5 6q21 23 35 69t17.5 72.5t11.5 93.5q4 40 10.5 101.5t10.5 102.5t8 91q3 44 3 84q-1 6 -1 12q0 46 -4 89q-31 18 -69 18q-16 1 -34 -3 q-59 -10 -88 -48q-2 -55 -2 -143.5t-2 -143.5q-1 -16 -6.5 -63t-5.5 -76q0 -11 1.5 -34t0 -37.5t-7.5 -31.5zM223 1021q0 -74 2 -134q8 -1 17 -1q22 0 46 9q32 13 44 37q16 29 26 112q3 23 5.5 74t5.5 76q5 50 5 90q0 76 -18 123q-21 -5 -55 5q-24 7 -39 6q-7 0 -12 -1 q-10 -2 -16 -7.5t-8 -15t-2.5 -17t0.5 -23t1 -23.5q0 -49 -1 -142.5t-1 -167.5z" />
<glyph unicode="c" horiz-adv-x="641" d="M2 236q0 20 6.5 57t7.5 53q3 51 3 110q0 35 -1 72q0 59 7.5 179t7.5 182q0 45 -3 152t-3 155v24q0 106 32 169q3 6 17.5 23t15.5 30q34 28 102 41q49 9 98 9l38 -1q10 0 38 -0.5t45.5 -1.5t37 -4.5t28.5 -9.5q17 -12 29.5 -46.5t9.5 -56.5q-1 -11 -7 -19t-16.5 -15.5 t-15.5 -12.5q-2 -2 -8.5 -10t-9.5 -11t-11 -10.5t-13.5 -8t-17 -4t-20.5 0.5q-20 4 -32 21t-23.5 42t-21.5 37q-62 -11 -70 -63q-1 -9 3 -27t3 -30q0 -35 -8 -102q-8 -68 -11 -108q-1 -9 -1 -20q0 -36 8 -86q-10 -36 -10 -76v-9q0 -35 4 -77q3 -37 2 -62v-13q0 -23 -8 -65.5 t-9 -57.5q-1 -10 -1 -23q0 -45 9 -119q9 -79 9 -121v-14v-24q0 -122 37 -183l11 -8q10 -7 15 -9t15.5 -5t21 -0.5t20.5 10.5q16 11 31.5 43t22.5 60q2 11 5 32t5 30t12 18.5t27 13.5q13 2 28 2q19 0 43 -3q42 -5 66 -16q-1 -22 -0.5 -30.5t-1 -25t-6.5 -48.5q-6 -8 -23 -36 t-33 -46t-36 -25q-5 -2 -22 -3t-25 -3q-13 -4 -46.5 -22.5t-56.5 -20.5q-12 -1 -34 -2t-33 -2q-25 -2 -47 -2q-54 0 -93 12q-63 22 -94 56t-39 108q-1 8 -5.5 29t-4.5 27z" />
<glyph unicode="d" horiz-adv-x="600" d="M-2 48q0 7 3 17q4 13 5 21q0 7 -4 21.5t-4 21.5q0 17 4.5 55.5t3.5 57.5q-1 6 0.5 19.5t1.5 17.5q1 18 5 53.5t5 56.5q1 15 -2 42.5t-2 39.5q0 4 6 43t6 50t-3 44q17 139 22 240q7 123 7 231q0 194 -23 338q13 9 34 27.5t31 25.5q17 1 57.5 8.5t64.5 9.5q10 1 22 1 q18 0 43 -2q49 -4 63 -23q4 0 10.5 4t14.5 2q11 -6 47.5 -18t50.5 -29q29 -29 48 -107t24 -89q-2 -11 -2 -27q-1 -32 7 -86q6 -42 6 -71t-5 -48q5 -49 7 -97q2 -40 3 -87q-1 -9 -1 -19v-90.5t-4.5 -103t-6 -89.5t-8 -103.5t-7.5 -94.5q-1 -13 -1.5 -46.5t-3.5 -56t-11 -36.5 q-3 -5 -17 -14.5t-18 -12.5q-41 -38 -98.5 -65t-114.5 -27q-38 -21 -84 -31q-29 -6 -56 -6q-16 0 -30 2q-15 -8 -34 -8q-11 0 -23 2q-39 8 -39 36zM188 348q0 -18 6 -58t5 -61q0 -7 -2 -26.5t-2.5 -29.5t3 -24.5t11.5 -25.5q66 37 87 60q17 18 26 40q21 143 26 203 q1 15 8.5 108t9.5 121q2 29 7 109q5 73 5 114v8q0 42 -1.5 108t-7.5 120.5t-15 106.5q-15 90 -53 165q-21 13 -47 13q-4 -1 -8 -1q-32 -2 -45 -24q5 -41 5.5 -110.5t4.5 -98.5q-10 -8 -12 -18t2 -26t4 -19v-13q0 -38 -8.5 -107t-8.5 -107v-13q0 -7 5 -19.5t6 -17.5 q2 -27 2 -69q1 -37 -1 -87q-1 -44 -2 -77q0 -48 3 -74q2 -7 -4 -12.5t-4 -13.5q6 -29 5 -46.5t-5.5 -48.5t-4.5 -49z" />
<glyph unicode="e" horiz-adv-x="542" d="M4 31q8 141 11 274.5t3 340v253.5q0 53 5 303q0 16 2 68q1 29 1 54v32q-2 34 -8 59q0 1 -7 13.5t-7 19.5q0 10 4 19.5t12.5 21.5t10.5 16q9 1 25 3q16 4 25 4h7q8 0 21 -1q10 -2 27.5 -8t29 -10t27 -1.5t28.5 13.5q6 0 9.5 -6.5t5.5 -7.5q30 2 90 9q60 8 84 9h8 q24 0 69 -4q-6 -7 -22.5 -17t-24.5 -18q-1 -8 -3.5 -26t-4 -23.5l-4.5 -16.5t-8 -18t-12 -14q-51 12 -100 12q-76 0 -144 -30q1 -6 1.5 -12t-0.5 -10.5t1 -7.5t8 -3q-7 -22 -5 -33.5t8 -34t7 -34.5q1 -13 -1.5 -41.5t-0.5 -44.5q3 -48 3 -144.5t3 -136.5q16 -2 36 -2 q50 0 130 14q105 19 155 19h5q-2 -8 -8 -12.5t-15.5 -8.5t-13.5 -6q6 -28 -3.5 -49.5t-31 -44t-28.5 -33.5q-26 -14 -113.5 -23.5t-116.5 -35.5q2 -46 2 -92q0 -140 -14 -291q6 -14 6 -42q0 -15 -2 -31q-1 -16 -1 -28q0 -28 7 -41q28 0 88 9t109.5 8.5t87.5 -17.5 q2 -14 18 -27.5t19 -17.5q-9 -23 -35 -25.5t-31 -8.5q-116 -7 -260 -43q-11 -2 -33 -6.5t-36 -6.5q-5 -1 -23.5 -5.5t-25.5 -4.5q-2 0 -5 -1q-6 0 -15 1q-13 1 -21 9t-15 22z" />
<glyph unicode="f" horiz-adv-x="618" d="M4 139q5 36 6 47v296q-1 3 -1 6q0 54 8 306q8 269 8 277q0 108 12 264q0 4 2.5 24.5t2.5 27.5v22.5t-2 26.5t-7 22q21 25 65 39t82.5 17t102.5 5.5t90 4.5q14 2 29.5 4t31 3.5t19.5 2.5q8 0 33.5 -0.5t40.5 -1.5t34 -5.5t29 -13.5q-13 -59 -60 -79q-44 4 -87 4 q-124 0 -232 -33q-19 -122 -23 -254q-1 -54 -1 -107q0 -74 3 -145q24 -5 47 -5q20 0 39 4q39 8 80 8h6q44 -1 68 -23q-4 -41 -41 -78h-22.5h-24t-22 -0.5t-23 -1.5t-21 -2t-22 -4t-19.5 -6t-20 -8t-18 -11q8 -97 16.5 -296.5t13.5 -278.5q0 -37 6 -58q2 -9 9 -23.5t8.5 -22 t-2.5 -17.5t-19 -19q-3 -3 -13 -5t-15 -5q-6 -4 -22 -19t-25 -18q-32 -16 -71 -16h-2q-40 1 -61 22q-14 14 -19 36q-4 19 -4 32q0 11 7 55z" />
<glyph unicode="g" d="M10 538v16q0 57 4 126q3 79 5.5 120t11 146t10.5 137q7 58 14 101q0 4 -2 13t-2 13q2 12 14 43t17 47q3 9 9 32.5t10.5 37.5t9.5 23q31 49 89 71q51 21 105 21q6 0 13 -1q60 -2 126 -22q71 -64 71 -113q0 -27 -21 -49q-21 -5 -39 -5q-33 0 -54 18q-9 8 -16 25t-16.5 26 t-30.5 8q-28 0 -44 -22t-28.5 -63t-21.5 -56q-8 -86 -8 -226q0 -119 6 -278v-12q0 -49 -6 -133q-8 -94 -9 -115q-1 -18 -1 -36q0 -86 12 -183q16 -101 43 -154q27 -7 53 -7q16 0 32 3q42 7 68 31q41 193 41 436q-10 11 -22 13.5t-23 0t-27 0.5q-40 7 -67 41q-14 18 -14 31 q0 15 18 25q8 4 18 6q25 7 63 7q24 0 54 -3q50 -5 71 -8t54 -12.5t64 -26.5q8 -24 8 -53q1 -4 1 -7q0 -25 -3 -45q-4 -23 -9.5 -55t-7.5 -53q-2 -27 -0.5 -48.5t-0.5 -48t-11 -47.5q1 -8 1 -18q0 -27 -10 -66q-11 -46 -11 -79v-9q-33 -45 -43 -51q-9 -5 -21 -8.5t-32 -7 t-27 -4.5q-10 -2 -42 -8.5t-42 -8t-36 -5.5q-22 -4 -37 -4q-2 0 -3 1q-16 0 -39 1t-47 5q-59 10 -120.5 42.5t-82.5 70.5q-41 73 -41 190q0 43 6 93q-3 66 -4 130z" />
<glyph unicode="h" horiz-adv-x="649" d="M4 1374q-2 22 -2 42q0 39 8 69q25 13 54 15q4 0 7 1q25 0 46 -16q4 -4 6.5 -17t5 -33t4.5 -30q3 -14 9.5 -42t7.5 -36q3 -30 3.5 -94t2.5 -92q10 -123 10 -135v-61.5t4 -72.5q11 -7 29 -10.5t42.5 -5t43 -1.5t46 0.5t36.5 0.5q7 4 10 14.5t3.5 19.5t-0.5 25t-1 21 q3 62 13.5 209t13.5 225q5 85 16 94q14 9 47 9q20 0 47 -3q6 0 42 -10.5t40 -15.5q16 -16 18 -94v-35q0 -48 -4 -64q-2 -15 -16 -102q1 -31 1 -63q1 -40 -1 -84q-2 -78 -8.5 -188t-7.5 -138q-8 -140 -10 -220q-1 -31 0 -67q0 -59 2 -135q4 -123 18 -217q-27 -7 -86.5 -15.5 t-97.5 -19.5q-5 3 -21 9.5t-24.5 13.5t-10.5 18q-3 11 2.5 30.5t5.5 26.5q1 12 -2.5 36.5t-3.5 35.5v29q0 88 9 261q8 141 8 230q0 40 -2 70q-2 0 -21.5 2t-27.5 2.5t-27.5 1.5t-31 0t-27 -2.5t-27 -5.5t-19.5 -10q-6 -40 -8 -80q-1 -15 0 -32q0 -28 2 -56q2 -46 5 -76 t9.5 -86.5t8.5 -79.5q2 -15 2 -45.5t2 -44.5q3 -23 10 -43.5t17.5 -43t15.5 -36.5q-15 -4 -46.5 -18.5t-53.5 -23t-50.5 -6.5t-50.5 23q1 37 5 104t6 113q1 31 1 66v37q-1 58 -8 100q4 66 4 111q-1 13 -1 25q-2 50 -7 146t-6 150q-1 83 -18.5 232t-20.5 188z" />
<glyph unicode="i" horiz-adv-x="249" d="M4 586q0 32 3 99t3 103q0 439 -6 660q20 25 68 25q37 0 92 -15q16 -35 21 -76t5.5 -91.5t4.5 -80.5v-86v-8q0 -35 7 -94q8 -66 9 -94q0 -19 -4 -58.5t-4 -60.5q0 -74 -2 -111q-1 -9 2.5 -24.5t3.5 -22.5q0 -17 -5.5 -47t-6.5 -43q-2 -19 0 -62t0 -63q-2 -11 -10 -29 t-9 -28q0 -17 3 -49.5t2.5 -57.5t-7.5 -47q17 -83 29 -182q0 -13 -50 -31q-38 -14 -65 -14q-9 0 -18 2q-11 2 -19 8.5t-16.5 18t-14.5 16.5q-1 86 -8 266t-8 277z" />
<glyph unicode="j" horiz-adv-x="589" d="M8 195q1 11 8 32t9 29q4 24 5 95t15 106q14 4 34 4q26 0 61 -7q61 -13 65 -40q1 -9 -11 -21.5t-14 -17.5q-9 -31 -12 -62q-1 -4 -4 -27t-4 -31t-3.5 -29t-2 -31.5t1 -27.5t3 -28t7.5 -22.5t12 -20.5q21 -3 41.5 2.5t31 12.5t31 22.5t27.5 20.5q10 28 14 64q3 28 3 54v14 v34v38q1 5 5.5 25.5t4.5 30.5q3 91 3 169q0 65 -2 122q-4 96 -4 214q0 36 1 73q1 162 16 292q1 16 1 48.5t1 49.5q3 27 3.5 34.5t4.5 24.5t8.5 22.5t14 12.5t23.5 11q95 -9 153 -45q5 -38 5 -90q0 -84 -13 -206q-19 -179 -19 -266v-16q1 -25 1 -56q0 -63 -3 -150 q-4 -131 -4 -179q0 -3 11 -184q1 -30 1 -55q0 -79 -12 -107q-6 -14 -33 -37t-47 -33q-13 -7 -27.5 -10.5t-34.5 -6t-32 -5.5q-28 -5 -81 -21.5t-76 -21.5q-10 2 -75 10.5t-89 22.5q-25 51 -25 121q0 20 2 43z" />
<glyph unicode="k" horiz-adv-x="739" d="M4 29q-1 5 -1 12q-1 15 3 39q4 35 6 43q0 23 1 66t1 59q3 146 21 557q2 52 13 226.5t13 268.5q5 180 5 209q20 29 62 31h12q36 0 66 -10q36 -12 68 -29q11 -24 12.5 -57.5t-3 -61.5t-11 -67.5t-8.5 -63.5q-1 -12 0.5 -44t-0.5 -44q-13 -123 -26 -209q-1 -6 -5.5 -21 t-4.5 -20.5t3 -23.5q53 80 101 166t119 225.5t90 175.5q7 2 15 12.5t15 12.5q7 -1 21.5 -2.5t22.5 -2.5t20.5 -3t20 -5t15 -7.5t11.5 -10.5q6 -8 6 -18q0 -22 -37 -88q-39 -68 -41 -75.5t-3 -20t-3 -17.5q-2 -4 -18 -28.5t-15 -39.5q-95 -146 -131 -225q-1 -13 -1 -26 q0 -96 32 -228q19 -87 90 -229q36 -122 76 -207q1 -1 13 -16t14 -23q2 -5 3 -15.5t3 -15.5q4 -9 13 -22t16 -22.5t12 -21.5q4 -10 4 -20q0 -14 -10 -26q-12 -1 -50 -8t-56 -8.5t-41 7t-34 29.5q-20 112 -84.5 288.5t-79.5 227.5q-13 1 -26 -15t-17 -18q-12 -10 -36 -19 t-41.5 -20.5t-24.5 -31.5v-24q0 -52 -6 -148q-5 -80 -5 -136q0 -28 1 -51q0 -7 5 -21.5t5 -21.5q0 -5 -5.5 -41t1.5 -43q-11 -1 -38.5 -7t-52 -9.5t-50.5 -4.5h-5q-23 1 -39 9q-18 10 -22 29z" />
<glyph unicode="l" horiz-adv-x="663" d="M2 31q6 67 6 141v30q0 63 -2 139q-2 95 -2 142q0 67 5 203t5 203q4 406 54 608q17 27 59 31q10 1 20 1q31 0 59 -8q38 -11 68 -26q0 -35 -20 -95.5t-23 -90.5q-2 -17 0.5 -55.5t-0.5 -55.5q-2 -6 -8.5 -23t-7.5 -26q-4 -22 -4 -50t2 -65.5t2 -58.5q-1 -31 -2 -98t-2 -101 q0 -27 -2 -89t-2 -95t1.5 -83.5t6.5 -94.5q3 -41 12 -108t11 -89q2 -17 0 -31t1 -30.5t13 -28.5q17 -6 53 -2.5t57 7t58 11.5t57 11q29 4 53 5q95 0 111 -67q1 -4 1 -7q0 -13 -15 -23q-19 -12 -41.5 -17t-50.5 -8q-15 -1 -61 -1h-12q-36 0 -54 -3q-20 -2 -74 -7t-96.5 -10 t-75.5 -12q-44 -10 -64 -13q-6 -1 -12 -1q-16 0 -38 6q-30 8 -46 35z" />
<glyph unicode="m" horiz-adv-x="833" d="M-6 1162v8.5v7.5t4.5 9t5.5 9q1 12 1 38.5t-1 67.5v26q0 60 8 77q0 5 -3 11.5t-3 10.5q3 5 11 25t16 27q13 0 45 6q24 5 41 5q5 0 10 -1q15 -3 36 -17.5t34 -17.5q0 -3 2.5 -7.5t1.5 -10.5q31 -29 57 -62t49 -77.5t36 -73t37 -88.5t34 -82q31 34 73.5 143t59.5 139 q51 91 76 97q11 5 33.5 2.5t32 -4.5t32 -9t33.5 -10q37 -66 37 -182q0 -11 10 -78q2 -39 2 -56.5t-2.5 -62t-3.5 -63.5q0 -10 2.5 -35.5t1.5 -38.5q-15 -66 -15 -70q-1 -17 2.5 -50t2.5 -50q-1 -12 -6 -45t-5 -57q-1 -25 -5 -83q-4 -52 -4 -93q1 -5 1 -10q0 -44 8 -87 q-1 -4 -5 -8.5t-5 -7.5q1 -29 0 -42t-5 -44t-5 -45q5 -1 6.5 -2.5t0.5 -3.5t-2.5 -5.5t-0.5 -5.5q2 -11 11.5 -43t14.5 -61t1 -49q-25 -3 -60.5 -17t-57.5 -23q-12 -5 -25 -5q-11 0 -22 4q-25 8 -42 39q-4 100 -4 197q0 155 10 304q2 31 6 97q17 240 20 434 q-27 -51 -50.5 -174t-24.5 -127q-17 -6 -37.5 -46t-40.5 -44q-14 -2 -37 8.5t-35 9.5q-14 8 -33.5 29t-23.5 24q-8 23 -27 80t-30 88t-28 78.5t-34 87.5t-35 78q-1 0 -2.5 2t-3.5 2q-1 -62 -1 -119q0 -254 15 -391q-2 -9 -2 -23q0 -17 3 -41q4 -26 4 -45q0 -12 -2 -20 q4 -8 9.5 -25.5t10.5 -21.5q-2 -10 -2 -27q0 -24 4 -62q3 -29 3 -48q0 -26 -5 -39q4 -30 9 -75t10.5 -75.5t17.5 -72.5q-20 -22 -44.5 -40t-55.5 -31.5t-62.5 -6.5t-56.5 37q2 82 2 256q0 23 -4.5 63.5t-5.5 57.5q0 9 4 28.5t4 28.5q-11 146 -11 166q-1 6 -5.5 27t-4.5 32 q-2 33 -2.5 95t-1.5 81q0 10 -2 102.5t-4 147.5q-1 8 -3 21t-3 23z" />
<glyph unicode="n" horiz-adv-x="735" d="M3 605q-2 26 -2 56q0 72 13 168q-7 43 -7 164q0 66 2 154q4 167 4 253q0 43 -1 66q20 35 72 40q7 1 14 1q42 0 64 -28q12 -1 23.5 -3.5t25 -7t20.5 -6.5q7 -8 10 -19t4 -25.5t3 -22.5q2 -7 10 -21.5t10 -21.5q4 -16 7.5 -47.5t5.5 -44.5q1 -6 15.5 -59.5t18.5 -78.5 q0 -4 -2 -12.5t-2 -13.5q1 -27 27 -78.5t31 -67.5q9 -32 21 -91.5t16 -76.5q22 -51 58.5 -166.5t59.5 -171.5q1 45 11.5 452.5t15.5 631.5q17 27 58 27q3 -1 5 -1q44 -2 68 -22q12 -18 19 -36t8.5 -41t1.5 -38t-2.5 -46t-3.5 -46q-1 -19 -1 -59.5t-1 -73t-5 -59.5 q-1 -7 -7 -20t-7 -19q-4 -18 -4 -53q0 -21 2 -47q2 -39 1 -66q0 -22 -1 -35q-2 -14 -2 -29.5t1 -36.5t1 -34q0 -49 -8 -149q-7 -88 -6 -134v-12q0 -9 2 -26.5t2 -25.5q-1 -9 -7.5 -26.5t-7.5 -26.5q0 -8 5.5 -27t5.5 -28q0 -12 -2.5 -37.5t-1.5 -36.5q2 -6 9 -16.5t9 -16.5 q9 -32 9 -59q0 -32 -13 -57q-72 -29 -135 -29q-16 0 -31 2q-10 51 -24.5 98t-34 103t-31.5 94q-17 35 -34 77.5t-28.5 73t-30 87.5t-25 77.5t-27 88.5t-23.5 79q-29 111 -59 150q-1 -37 -9 -166q-5 -81 -6 -137q0 -33 2 -56q-8 -17 -10.5 -37t-1.5 -30t6 -40l6 -36 q1 -10 0 -29.5t0 -27.5q1 -10 9.5 -30t9.5 -30q2 -8 0.5 -28.5t-0.5 -28.5q3 -17 15 -51t15 -51q3 0 1 -34l-1 -34q1 -8 5.5 -25t5 -26t-5.5 -29q8 -8 9 -27.5t-3 -27.5q-11 -5 -50 -27q-40 -24 -70 -32q-22 -6 -48 -6q-9 0 -19 1q-6 18 -5 48.5t5 59t-1.5 54.5t-24.5 35 q3 32 3 69q0 65 -8 149q-12 130 -21 219z" />
<glyph unicode="o" horiz-adv-x="722" d="M8 211q21 349 21 436q0 2 -3 6t-3 6q0 19 6 60t6 63q1 15 0 53t0 60q7 156 37 365q13 89 49 155q35 59 103 79q54 16 129 16q18 0 38 -1t58.5 -12t54.5 -12q5 0 17.5 2.5t17.5 1.5q3 -1 15 -7.5t21 -8.5q5 -1 22.5 -3.5t23.5 -5.5q18 -8 34 -40t23 -40q13 -64 14 -144 v-23q0 -65 -5 -117q-6 -60 -16.5 -151t-13.5 -134q-2 -7 5 -9.5t6 -8.5q-10 -31 -14 -73q-3 -33 -2 -63v-16v-25q0 -25 -1 -53q0 -9 -5 -26t-5 -25q0 -110 27 -299q-3 -10 -11.5 -56t-19.5 -65q-26 -47 -49 -61q-16 -11 -34.5 -14.5t-46 -3t-42.5 -1.5q-8 0 -23.5 -7.5 t-19.5 -8.5q-3 0 -13 2t-14 2q-60 -4 -102.5 -4t-67.5 4q-11 2 -30 3.5t-23 2.5t-12 8.5t-13 8.5q-3 1 -11 0t-11 0q-7 3 -57 36q-22 21 -33.5 50.5t-1.5 56.5q-3 4 -12.5 18.5t-12.5 22.5zM215 702q8 -55 8 -154q0 -58 -3 -130q-2 -60 -2 -109q0 -114 11 -178q7 -9 15 -27 t16.5 -28.5t22.5 -14.5q13 -5 30 -4q21 1 49 7q50 14 70 30q32 28 44 76q9 35 9 71q0 15 -1 29q-5 52 -10 113q-4 61 -8 112q-1 10 -1 19q0 40 12 76q-5 17 -3 51t4 51.5t7 52t7 52.5q16 136 23 214q6 68 6 161v28q-1 110 -19 193q-12 -7 -24.5 -9t-31 -0.5t-28.5 0.5 q-5 0 -16.5 -3.5t-16.5 -2.5q-7 2 -23 10q-15 7 -24 7h-2q-16 -1 -27 -11t-22.5 -28.5t-18.5 -26.5q-1 -7 1.5 -14.5t2.5 -11.5q-7 -9 -11 -20.5t-5 -19.5t-2 -22.5t-2 -21.5q-2 -10 -11.5 -52.5t-9.5 -64.5q0 -31 -5.5 -78t-6.5 -66q-1 -6 2.5 -21t3.5 -22q0 -16 -4 -58.5 t-2 -63.5q0 -2 1.5 -13.5t2 -14.5t1 -12.5t0 -14t-1 -12t-2.5 -13t-5 -11.5z" />
<glyph unicode="p" horiz-adv-x="593" d="M6 33q0 23 3 71t3 70q0 2 1 6.5t2 8.5t1.5 8t-1.5 6t-7 2q10 39 13.5 84t3.5 101t2 85q1 26 6 77t6 66q32 388 32 683q0 86 -3 165q13 15 31 18.5t44.5 1.5t38.5 -1q11 2 41 11t45 11h8q19 2 37 2q112 0 197 -65q5 -12 18 -35.5t20.5 -43.5t8.5 -42q0 -2 -3 -8.5t-3 -9.5 q0 -4 3 -11.5t3 -11.5v-8q0 -14 -3 -40q-3 -32 -3 -46q0 -7 1.5 -24.5t0.5 -24.5q0 -4 -4 -11.5t-4 -11.5q-2 -10 0.5 -29.5t1.5 -27.5q-1 -10 -6 -27.5t-6 -23.5q-2 -15 2.5 -44.5t3.5 -41.5q0 -5 -3 -15t-3 -14q-8 -68 -15 -98q-12 -22 -36 -36.5t-65.5 -29.5t-60.5 -24 q-26 -14 -75.5 -31.5t-69.5 -28.5q0 -28 -11 -121q-6 -55 -6 -96q0 -27 3 -47q-11 -86 -11 -336q-9 -5 -20.5 -4.5t-26.5 -3.5q-12 -5 -27 -24t-24 -21q-8 -2 -16 -2q-37 0 -68 43zM219 805q-2 -7 5 -6q3 0 4.5 -1t0.5 -3q-10 -5 -9 -18.5t9 -20.5q6 2 32 11t36.5 13.5 t25.5 15.5t21 25q4 14 7 35t6 55.5t5 49.5q12 144 23 364q-7 12 -10.5 28t-5.5 35.5t-4 28.5q-16 2 -30 2q-55 0 -95 -30q-7 -51 -7 -80q-1 -10 3.5 -34.5t3.5 -37.5q-1 -7 -4.5 -30.5t-2.5 -32.5q1 -8 0 -16t0 -15q0 -3 3.5 -13t3.5 -14q0 -11 -4.5 -37t-5.5 -42t6 -40 q-15 -29 -15 -83v-7v-29q0 -41 -2 -73z" />
<glyph unicode="q" horiz-adv-x="694" d="M25 627q2 20 3 42t1.5 48.5t1.5 40.5q9 136 9 243q0 29 -1 56q-1 14 -3 50.5t-2 49.5t1 49q0 5 6 19.5t8 21.5q2 10 3.5 39.5t4.5 40.5q7 19 21 40.5t23 33t32 37t29 32.5q7 3 31 14.5t34 15.5t29.5 8.5t38.5 4.5q8 0 22.5 -3.5t20.5 -4.5h16q21 0 64 1q18 1 32 1 q35 0 46 -4q47 -8 74.5 -25t41.5 -53q2 -6 3 -21.5t3 -23.5t13.5 -39.5t13.5 -48.5q1 -5 -1.5 -17.5t-2.5 -17.5q2 -65 6 -227.5t8 -253.5q1 -21 1 -46q0 -38 -2 -87q-3 -81 -3 -102q0 -23 3 -73q3 -38 3 -61v-12q0 -14 -5 -57q-4 -28 -4 -49q0 -11 1 -21q-4 -112 -14 -149 q-5 -16 -17.5 -32t-21.5 -24l-10 -8q-91 -32 -121 -41q-6 -56 -6 -106q0 -72 12 -133q-5 -4 -11 -4q-3 0 -6 1q-10 3 -14.5 6t-12 10.5t-13.5 10.5q-13 7 -36.5 13.5t-39 15t-25.5 25.5q-5 9 -7 22t-2 23t0.5 27t0.5 24q-1 7 -3 21.5t-3 21.5q-47 0 -100 6q-16 2 -42 12 t-36 13q-5 6 -33 35.5t-39 50.5q-32 183 -32 352q0 85 8 166zM195 1178v-7q0 -48 12 -131q11 -72 11 -115q0 -10 -1 -18q-1 -20 -1 -53t-1 -51q-1 -4 -5.5 -14.5t-4.5 -14.5q0 -7 3.5 -31.5t2.5 -37.5q-10 -143 -10 -170q1 -35 4.5 -65.5t10 -71.5t9.5 -64q2 -18 3 -72.5 t8 -77.5q11 -49 61 -92l4 74q8 21 -1.5 61.5t1.5 61.5q9 5 17.5 8t15 5.5t15 2t13.5 0t13.5 -2.5t11.5 -3.5t13 -5t11.5 -5.5t12.5 -7t12 -7l21 -151q28 13 32 27q5 27 5 88q0 67 -6 174q-8 144 -8 207q0 26 1 38q-7 36 -7 78.5t3.5 95t3.5 82.5q0 103 -12 287 q-1 13 -2.5 41.5t-4 48t-7.5 37.5q-3 11 -14 35.5t-15 30.5q-15 20 -42 23q-7 1 -15 1q-22 0 -53 -6q-41 -8 -54 -8q-17 -10 -26.5 -32.5t-16.5 -52.5t-14 -44q3 -19 -3.5 -51.5t-6.5 -44.5z" />
<glyph unicode="r" horiz-adv-x="538" d="M6 780q0 80 10.5 234t10.5 223q0 23 -5.5 82t-5.5 84q0 37 4 51.5t23 28.5q60 24 137 27q15 1 29 1q61 -1 115 -11q67 -12 129 -34q4 -9 26 -26q1 -1 4 -9q5 -14 9 -8q1 -4 4 -26.5l4 -30t3.5 -28.5t2.5 -32q1 -10 2 -30q1 -13 1 -24q-1 -5 -1 -10q0 -14 -1.5 -31 t-4.5 -33q-1 -6 -5 -16t-5 -15q0 -6 2.5 -23t1.5 -26q-5 -106 -66 -240q-2 -2 -6 -5l-6 -4.5t-5 -5t-5 -6t-3.5 -6.5t-1.5 -8q14 -21 20.5 -46.5t11 -66t7.5 -59.5q17 -87 21 -155v-127q0 -19 4 -71q3 -34 3 -60q0 -13 -1 -23v-6q0 -18 4 -70q0 -6 1.5 -21.5t2 -21.5 t1.5 -19t3 -20t4.5 -17.5t6 -19.5t8.5 -18q-29 -6 -53 -6q-13 0 -25 2q-21 -31 -71 -31q-12 0 -25 2q-26 16 -29 66q-3 44 -5 169.5t-9 176.5v26q0 73 -7 275q0 6 -0.5 23t-1.5 24t-4.5 18.5t-9.5 20.5q-10 -3 -38 -5t-49 -9t-28 -23v-44v-15q2 -20 11 -68t10 -69 q2 -17 -6 -61q-6 -34 -6 -60v-13q1 -25 13 -70.5t13 -51.5q6 -48 6 -60q0 -3 -3.5 -9t-2.5 -9q0 -2 4.5 -28.5t5.5 -47.5q0 -61 7 -80q-8 -7 -28.5 -6t-25.5 0q-10 -3 -26 -18.5t-25 -18.5q-6 -2 -22.5 3t-22.5 -3q-31 16 -38 46q-4 16 -4 39q0 20 3 45q4 40 4 65v14 q-6 117 -6 569zM128 977q2 -74 15 -135q9 -1 18 -1q40 -1 73 21q40 26 55 76q37 107 37 311q0 101 -13 160q-40 18 -92.5 18t-83.5 -24q1 -30 1 -64q0 -39 -2 -84q-4 -83 -7 -143q-2 -37 -2 -80q0 -27 1 -55z" />
<glyph unicode="s" horiz-adv-x="628" d="M-2 236q-2 16 -2 31q0 28 8 48q40 14 81 15h8q38 0 83 -8q10 -22 19 -75t26.5 -88.5t54.5 -47.5q25 8 38 27t23 51t15 42q1 32 14.5 95.5t16.5 91.5q2 19 2 59.5t2 59.5q7 109 7 188q0 66 -5 113q-2 22 -14 59.5t-23 42.5q-21 11 -74 31t-87 43.5t-52 62.5q0 1 0.5 8.5 t-2 11.5t-10.5 3v7q-1 29 -7 89q-8 66 -7 100q3 91 63 170q12 15 18.5 18.5t28.5 8.5q10 1 45 3q36 4 52 4h13q15 0 38 -2q4 0 12.5 -4t13.5 -5q6 -1 21.5 0.5t21.5 -0.5q12 -2 32 -14t32 -15q9 -3 24 -4t26 -4t19 -12q3 -4 7 -17t10 -16q-4 -32 -31 -84q-1 -1 -5 -9.5 t-7.5 -13.5t-9 -11.5t-12.5 -10t-15 -4.5h-8q-28 0 -60 24q-30 23 -29 54q0 7 1 14q-15 19 -45.5 20.5t-44.5 -16.5q-15 -20 -17 -64q-1 -12 -1 -23q0 -31 4 -57q6 -36 14 -67q2 -7 4 -19.5t3.5 -19.5t5 -16.5t9.5 -16.5q20 -27 59.5 -49t73 -34t63.5 -36.5t38 -58.5 q13 -132 13 -239q0 -164 -30 -269q-36 -206 -84 -286q-5 -3 -75.5 -46.5t-106.5 -54.5q-39 -12 -83 -12q-27 0 -55 4q-76 12 -102 51q-5 7 -11 28.5t-9 29.5q-4 10 -14.5 35t-16.5 44.5t-8 41.5z" />
<glyph unicode="t" horiz-adv-x="784" d="M-8 1434q3 8 7.5 15.5t10 16t8.5 13.5q42 17 102 21q39 3 74 3q19 -1 37 -1q17 -1 34 0q35 0 73 3q37 3 60 3q12 0 20 -1q20 -1 54 7.5t46 9.5q70 8 127 8q64 0 111 -10q-3 -7 -8.5 -23.5t-8.5 -24t-9 -19.5t-12.5 -21t-15.5 -17q-57 8 -102 8h-18q-52 -2 -103 -18 q-11 -10 -18.5 -23t-12 -30.5t-7.5 -31t-4 -36.5t-1.5 -35t0 -39t0.5 -36q-1 -18 1.5 -40t8.5 -53t7 -39q-4 -16 -4 -42t4 -60q1 -13 7.5 -33t8.5 -30q3 -22 6 -67.5t4 -59.5q2 -26 2 -172q0 -14 -3 -41t-3 -39q0 -4 3 -13.5t3 -13.5q0 -5 -2 -44.5t-2 -54.5t3 -44t9 -51 q-7 -17 -4.5 -55t-5.5 -58q0 -5 6.5 -10.5t6.5 -10.5q-2 -13 -3.5 -27.5t-3.5 -25t-6 -26.5q-92 -63 -152 -63q-23 0 -42 9q-7 4 -14 22t-13 25q2 19 2 44q0 27 -2 63q-6 68 -6 84q1 104 16.5 308t16.5 218q1 7 -0.5 21t-1.5 18q1 20 8 56.5t8 54.5q0 5 -3.5 20t-2.5 23 q3 31 3 80q0 56 -4 136q-4 94 -4 158q0 36 1 62q-53 -12 -105 -17q-17 -2 -35 -2q-37 0 -75 7q-58 10 -82 41z" />
<glyph unicode="u" horiz-adv-x="727" d="M2 262q4 60 18 191t19 194q4 51 15.5 173.5t17 204.5t6.5 165v41q0 107 -12 256q20 25 68 25q37 0 91 -15v-9q0 -28 -10 -86q-6 -34 -6 -55t6 -28q-5 -3 -6 -62q0 -10 1 -21q1 -79 1 -89q0 -107 16 -170q-7 -55 -7 -120q0 -22 1 -44v-11q0 -31 -4 -85q-5 -65 -6 -92 q0 -176 -2 -211q-2 -26 -7.5 -70t-8 -67.5t-3.5 -63.5t5 -57q14 -60 47 -80q161 12 223 33q13 25 20.5 58.5t9.5 58.5t4.5 68.5t4.5 65.5q1 3 5.5 15.5t4.5 19.5q1 6 -2.5 21.5t-3.5 21.5q-2 23 -2 76v28q0 11 1 20q0 58 -3 83q-4 48 -11 140.5t-11.5 149t-13 130.5 t-17.5 129q1 40 1 66v23q-1 29 -6 91.5t-6 91.5q18 19 54 19q13 0 28 -2l5 -1q5 0 10 -1.5t8 -3.5q53 -15 96 -17q2 -6 -1 -21t-3 -28t10 -18q-8 -9 -8.5 -20t3.5 -27t5 -23q1 -4 -2.5 -15.5t-3.5 -15.5q-1 -14 1.5 -39t2.5 -32q-4 -128 -4 -171v-14q1 -25 10 -71.5 t11 -61.5q2 -17 2 -46v-31q-1 -22 -1 -40q0 -24 1 -43q1 -8 7 -24.5t7 -24.5q2 -12 0 -43t0 -43q6 -94 8 -176v-12q0 -77 -18 -158q-18 -88 -58 -160q-14 -4 -23.5 -18t-11.5 -16q-13 -10 -33 -18t-37 -13t-47 -10t-46 -7t-52.5 -6.5t-48.5 -5.5q-9 -1 -35 -6q-22 -4 -35 -4 h-5q-133 10 -195 78q-28 32 -36 74q-5 26 -5 62q0 23 2 50z" />
<glyph unicode="v" d="M-6 1432q-1 6 -1 12q0 17 5 35q11 18 40 20.5t56 -4.5t59 -17.5t40 -11.5q17 -20 21 -46q4 -23 5 -59q-1 -4 -1 -8q0 -41 3 -63q3 -27 13.5 -83t13.5 -85q5 -38 6.5 -115t7.5 -114l19 -133t21 -169q5 -55 5 -104v-16q17 11 26.5 54.5t20.5 56.5q3 11 7 35.5t10 42 t16 28.5q0 63 27 109q8 57 15 127t16 165.5t14 147.5q12 156 22 322q24 19 60 19q58 0 147 -52q-1 -13 -31 -47q-4 -23 -14 -70t-16 -86t-6 -76q0 -51 -16.5 -152t-20.5 -139q-1 -16 -0.5 -57t-1.5 -55q-1 -11 -8 -31.5t-9 -28.5q-5 -20 -9.5 -56.5t-11 -63t-20.5 -48.5v-6 q0 -26 -14 -68q-16 -46 -18 -75q-20 -40 -33 -115t-27 -108q1 -6 1 -13q0 -41 -36 -106q9 -23 -3 -60.5t-9 -56.5q-12 -1 -52 -5q-36 -4 -53 -4q-2 1 -4 1q-16 0 -41 8t-40 27q-6 83 -37 243t-37 205q-1 7 0.5 26t-0.5 26q-7 50 -29.5 172t-30.5 184q-2 11 -0.5 38t0.5 38 q-2 25 -12.5 78t-13.5 75q-19 135 -23 207q-1 8 -8.5 45.5t-9.5 59.5z" />
<glyph unicode="w" horiz-adv-x="970" d="M-3 1451q1 11 3 19q2 10 8 17q13 16 38 14.5t48 -10t37 -18.5q33 -81 51.5 -283t28.5 -254q-2 -3 -3 -7t-1.5 -9.5t-1.5 -8.5q16 -61 29.5 -233.5t37.5 -253.5q16 21 30 53.5t21 55t20.5 71.5t18.5 66q7 24 10 33t11 22.5t18.5 19t26.5 7.5q21 3 39 3q31 0 47 -8 q28 -12 31 -61q3 -34 10.5 -82t10.5 -72t5 -72v-19q0 -36 -6 -62q9 9 17.5 27t12 32l10 40t7.5 32q11 37 29 84.5t29 83.5t14 70q6 38 18.5 98.5t16.5 101.5q3 29 3 54q0 20 -2 39q-2 25 -2 56v39q2 54 17 99q-2 8 -2.5 32.5t2.5 66.5q4 69 4 101v11q0 6 -2 30t-2 34.5 t3.5 28t11.5 30.5q17 6 37.5 6.5t44.5 -6.5q48 -13 82 -40q29 -23 28 -45v-7q-19 -72 -27 -136q-4 -25 -5.5 -74t-4.5 -71q-3 -30 -7 -90t-7 -90q-2 -18 -17 -76t-18 -96v-17q0 -118 -39 -221q-27 -40 -47 -91t-43 -128t-31 -100v-7q0 -22 -14 -77q-1 -7 -8.5 -19.5 t-9.5 -17.5q-6 -18 -8 -50.5t-5 -55.5t-12 -27q-2 -4 -20.5 -2.5t-24.5 0.5q-7 -1 -22 -4t-23 -4t-20 -0.5t-22 5t-20 13.5q-22 47 -41.5 149.5t-39.5 149.5q-8 -25 -12.5 -84.5t-10.5 -87.5q-1 -6 -11 -41.5t-15 -61t-5 -49.5l-33 -5.5t-37 -5.5t-32 -3q-10 -1 -18 -1 q-10 -1 -17 1q-12 2 -28 6.5t-27 14.5t-19 24q3 16 3 39q0 30 -6 70q-8 55 -8 82q0 8 1 14q-88 354 -108 928q-2 84 -17 196q-1 5 -3.5 20.5t-3.5 25.5q-2 16 -2 29z" />
<glyph unicode="x" horiz-adv-x="659" d="M-2 8q10 41 36 118.5t36 115.5q38 134 73 219q23 56 53.5 157.5t41.5 133.5q2 5 10 23t8 29q0 33 -43 130q-15 36 -92 209q-3 7 -27 57.5t-32 69.5t-23.5 60t-22 74t-8.5 66q26 26 67 26h5q45 -2 74 -26q18 -118 67 -227q8 -54 49.5 -151.5t46.5 -110.5q26 30 33 92 q54 122 129 414q24 13 52 13q11 0 22 -2q41 -7 59 -38q-55 -291 -178 -530q-3 -23 -22 -72t-19 -80q0 -16 6.5 -38t16.5 -50.5t14 -42.5q16 -52 48 -141.5t42 -118.5q8 -25 21 -68.5t18 -60.5q2 -4 10.5 -15.5t10.5 -17.5q4 -10 11.5 -41.5t14.5 -42.5q30 -49 37 -63 q-23 -26 -65 -28h-6q-38 0 -66 26q-6 6 -10 22.5t-7 22.5q-3 9 -11.5 23t-10.5 18q-16 41 -59 182q-3 10 -26 74.5t-32 95.5q-30 -7 -46.5 -40t-29 -82t-24.5 -70q-7 -43 -19.5 -99.5t-28 -123.5t-22.5 -97q-16 -1 -59 -9q-34 -6 -60 -6h-13q-30 2 -50 21z" />
<glyph unicode="y" horiz-adv-x="692" d="M-14 1454q0 17 16 25q16 9 37.5 10t48.5 3.5t41 8.5q8 -7 34.5 -11t31.5 -5q-3 -16 9.5 -49t12.5 -47q33 -47 78 -152t59 -131q30 52 53.5 111.5t55.5 156.5t41 123q21 18 54 18q43 0 104 -30q3 -15 3 -33q0 -45 -22 -111q-8 -47 -18 -65q-2 -5 -11 -19t-16 -28t-10 -25 q-2 -6 -2 -18t-2 -17q-6 -22 -31.5 -64.5t-28.5 -76.5q-11 -9 -23 -35t-20 -35q-1 -14 -6 -26.5t-13.5 -28.5t-12.5 -24t-10.5 -27t-10.5 -27q-1 -3 -8 -9.5t-8 -10.5q-3 -10 -2.5 -31t-1.5 -31q-1 -5 -6.5 -12.5t-6.5 -11.5q-3 -9 -3 -30t-1 -25q-1 -13 -7 -36t-7 -32 q-4 -47 -17.5 -143t-17.5 -146q-2 -17 -0.5 -61.5t0.5 -63.5q-1 -6 -5.5 -17.5t-4.5 -17.5q-1 -14 5 -45.5t6.5 -50t-11.5 -47.5q-10 2 -22 2q-21 0 -46 -6q-41 -8 -74 -8t-59 22q3 34 4 133t10 152q8 49 22 168t23 176q26 127 31 156q2 10 3.5 31.5t5 38t12.5 30.5 q-20 32 -46 111.5t-38 105.5q-59 133 -146 301q-4 5 -11 11t-11 11.5t-4 14.5z" />
<glyph unicode="z" horiz-adv-x="622" d="M-6 18q6 37 31.5 103.5t31.5 103.5q17 97 47 191q17 48 44.5 147t39.5 137q10 34 26 101.5t32.5 121.5t38.5 97q18 78 67.5 208.5t65.5 190.5q-7 -1 -38 0.5t-52 -0.5t-96 -15q-65 -11 -98 -11h-9h-15t-18.5 2t-14.5 6.5t-13 16t-3 28.5q1 14 8.5 23t21 13t25.5 5.5 t27.5 2t20.5 1.5q26 2 93.5 9.5t123 12t100.5 5.5q10 -2 30 -4t32.5 -4t27 -9.5t23.5 -19.5q2 -10 2 -19q0 -8 -2 -16q-4 -16 -12 -38.5t-11 -31.5q-3 -8 -5 -26t-5 -27q-8 -21 -28.5 -62t-28.5 -63q-4 -13 -11.5 -36.5t-11.5 -35.5q-2 -4 -13 -26.5t-13 -34.5 q-3 -11 -5.5 -31t-5.5 -30q-2 -5 -8 -14.5t-8 -14.5q-14 -35 -29 -102.5t-18 -77.5q-6 -22 -25 -69.5t-24 -74.5q-8 -33 -17 -95t-14 -87q-1 -6 -6 -15.5t-6 -15.5q-4 -17 -4.5 -49t-3.5 -47q-1 -7 -6.5 -20.5t-6.5 -20.5q-4 -25 -4 -68v-27q0 -10 1 -20q0 -49 -7 -71 q17 -5 37.5 -5t36 1.5t40.5 5.5t40 6q3 0 13.5 1t16.5 1t17 0.5t18 -0.5t16.5 -2t16 -3.5t12.5 -6t10 -9t5 -12.5q3 -18 -2.5 -29.5t-20.5 -16.5t-27 -7t-31.5 -2.5t-25.5 -1.5q-5 0 -17.5 2t-17.5 2q-26 0 -72 -10.5t-61 -12.5q-8 -2 -27 -0.5t-26 0.5q-12 -2 -49 -10 q-38 -8 -58 -10q-7 -1 -16 0q-16 0 -36 2q-32 4 -56 20z" />
<glyph unicode="~" horiz-adv-x="579" />
<glyph unicode="&#xa1;" horiz-adv-x="327" d="M21.5 111q-2.5 133 1.5 178q5 115 33.5 311.5t33.5 282.5q1 23 1 68t1 67q3 72 0 132.5t-1.5 146.5t11.5 155q12 2 34 9t37 11t35.5 4t37.5 -8q27 -46 33 -122.5t0.5 -135.5t5.5 -114q-2 -17 -7.5 -121t-19.5 -162q-9 -49 -18 -68q4 -64 0.5 -97t-16 -99t-15.5 -92 q-2 -16 -6.5 -51.5t-8 -67t-6.5 -59.5q-1 -16 -10.5 -64.5t-7.5 -71.5q0 -15 12.5 -40.5t14.5 -36.5t3.5 -45t8.5 -52q-9 -8 -23.5 -13t-37.5 -9t-31 -6q-1 0 -20 -6.5t-26 -7.5t-21.5 0.5t-26.5 9.5q1 41 -1.5 174zM119.5 1603q0.5 23 5.5 43.5t14 41.5q51 10 76.5 8.5 t83.5 -15.5q0 -11 3 -21.5t8.5 -24t8.5 -21.5q-18 -21 -40.5 -31t-53 -17t-49.5 -16q-29 1 -43 15.5t-13.5 37.5z" />
<glyph unicode="&#xa2;" horiz-adv-x="643" d="M8 1225q3 21 15 57q10 74 41.5 108t97.5 56q29 9 80 12q-4 31 -15 119q24 -1 65 24t64 21q11 -2 20 -9t19 -19t17 -17q-4 -91 -2 -137q10 -6 32.5 -9.5t28.5 -5.5q9 -2 24.5 -11.5t18.5 -10.5q20 -8 35 -27.5t29 -46.5t22 -37q-1 -16 2.5 -47.5t3.5 -52.5 q-23 -10 -66 -15.5t-69 -0.5q-15 3 -24 8.5t-13 16t-5.5 18.5t-3 24.5t-3.5 26.5q-3 25 -18 58t-31 44q-32 15 -71 7t-56 -21q-45 -66 -45 -205q-1 -50 8 -147.5t10 -128.5q0 -15 1 -31t2.5 -35.5t2.5 -30.5q-1 -14 -2 -42.5t-2 -41.5q0 -19 -4 -53.5t-4 -36.5 q0 -24 -2 -74.5t-2 -94.5t4 -81q1 -9 7 -27.5t7 -27.5q1 -5 -2.5 -16t-3.5 -15q2 -27 29 -94q10 -26 41.5 -44t79.5 -16t92 34q22 16 51 16q20 -2 44 -20t20 -42q-1 -5 -11 -13.5t-14 -14.5t-10.5 -18t-10.5 -15q-58 -41 -71 -43q-10 -1 -51 -8.5t-52 -7.5q-1 -8 -1 -20.5 t0.5 -27.5t0.5 -20q-8 -11 -18.5 -17.5t-25.5 -9t-25.5 -3.5t-29.5 2t-27 4t-29.5 6t-24.5 6q1 17 -6 54.5t-8 49.5q0 3 1 9t1 8q-57 34 -86 81q-48 83 -45 197q-22 74 -19 217q3 131 9 260q0 24 -6 75t-5 77q4 122 2 184q0 15 -4.5 52.5t-3.5 56.5z" />
<glyph unicode="&#xa3;" horiz-adv-x="700" d="M-94 760q3 21 14 35t31 20.5t35.5 9t45.5 5t44 4.5q3 0 6 4t6 4q22 158 14 516q0 18 5 50t6 44q42 47 119.5 74.5t152.5 15.5q5 -1 16.5 -7.5t20.5 -8.5q8 -3 22 -5.5t22.5 -6t14.5 -9.5q15 -13 28 -49.5t26 -50.5q-7 -33 -9.5 -118t-19.5 -128q-51 -34 -100.5 -7 t-34.5 85q-1 3 -1 8.5t-1 9t-4 5.5q0 58 10 161q-17 4 -26 3t-30 -6.5t-30 -6.5q-6 -2 -10 -15t-11 -14q8 -56 5 -103t0 -99.5t20 -83.5q-3 -31 -5 -107.5t-9 -116.5q1 -3 5 -6t5 -6q37 0 96.5 13t99.5 14q28 -13 23.5 -52t-29.5 -53q-105 -3 -174 -37q-2 -20 10 -44.5 t13 -41.5q10 -8 14.5 -20.5t5 -26t0.5 -30.5v-33q5 -78 0 -98q-1 -5 -6 -14t-6 -13v-16q-5 -24 -29.5 -70t-27.5 -68q-25 -16 -51.5 -64.5t-34.5 -58.5q57 -20 153 0q88 17 152 39q14 -6 42.5 -7t37.5 -3l16 -2q10 -2 25.5 -4.5t27.5 -5t21 -6.5q-6 -10 -28 -19t-28 -18 q-6 -29 -24 -47q-51 -2 -137 -22.5t-113 -24.5q-14 -2 -44 -1t-46 -1q-6 -1 -37.5 -7t-40.5 -7t-37 -5t-39.5 -3t-34.5 1.5t-35.5 6t-29 12.5t-29 19t-22.5 28q16 27 43.5 73.5t50.5 85t45 72.5q5 25 23 72.5t29 95.5t7 98q-1 22 -15.5 66t-16.5 59q-1 6 -2.5 17.5 t-2.5 14.5t-4 8.5t-8.5 8t-15.5 4.5q-41 -25 -90 -20.5t-80 35.5z" />
<glyph unicode="&#xa8;" horiz-adv-x="649" d="M152.5 1685.5q0.5 22.5 15.5 36.5q22 17 60 8t57 -30q17 -85 -37 -131q-8 -5 -15.5 -6.5t-17 1t-15 4.5t-17.5 7.5t-15 7.5q-1 14 -8.5 47t-7 55.5zM414 1640q-5 50 19 73.5t58 17t60 -36.5q10 -89 -31 -127q-45 -25 -82 6q-5 10 -11 24q-10 22 -12 37z" />
<glyph unicode="&#xa9;" horiz-adv-x="925" d="M18 383q3 46 5.5 153t5.5 150q5 61 -2.5 187.5t0.5 181.5q1 7 1 35.5t3 44.5q5 27 22 74t21 63q7 5 26.5 26t36.5 29q3 0 64.5 11t85.5 12q8 0 137.5 -2t138.5 -2q89 0 156 -17q22 -7 50.5 -22t39.5 -27q8 -7 23.5 -36.5t23.5 -37.5q4 -6 5.5 -18t1 -21t-2.5 -25.5 t-2 -21.5q0 -6 5.5 -21.5t4.5 -23.5q0 -6 -5 -16l-5 -10q-1 -13 4.5 -36t5.5 -34q2 -24 -4.5 -66.5t-5.5 -56.5q1 -8 7.5 -23.5t6.5 -25.5q0 -21 -3 -62t-3 -61q0 -7 5 -21.5t6 -17.5q0 -12 -5.5 -39t-5.5 -41q0 -6 1.5 -27t0.5 -34q0 -10 -10 -45q-1 -6 -2 -17.5t-2 -17.5 t-4 -14.5t-8 -14.5q7 -13 -1 -38.5t1 -32.5q-27 -62 -60 -105q-28 -7 -73 -26q-10 -3 -23.5 -13t-19.5 -12q-68 -30 -214.5 -36t-280 23.5t-151.5 90.5q-11 42 -2 137zM117 506q4 -57 6.5 -78t12 -55t30.5 -82q30 -39 74 -41q14 7 183 14t183 10q21 22 33.5 38t21.5 35.5 t12 29t10 38t11 42.5q20 112 23 200q5 123 0 164q-1 6 2.5 17t3.5 14q0 50 -5 103t-5 96q-1 12 -2.5 33.5t-2.5 30.5t-4.5 24.5t-10 29t-17.5 29.5q-2 0 -4.5 2t-5.5 2q-32 9 -118.5 15t-185.5 -0.5t-135 -30.5q-33 -22 -44.5 -46.5t-7.5 -48.5t3.5 -56t-10.5 -68 q3 -7 3.5 -16t0.5 -16t-3 -18t-4.5 -16t-5.5 -17.5t-5 -15.5q-3 -41 -9 -84q-8 -32 -10 -131t-18 -147zM264 807q4 75 17 106q0 47 34 93q28 32 82 49.5t107 11.5q35 0 43 -6q2 -1 4.5 -6t5.5 -8q14 -14 14 -15q1 -12 -13 -20.5t-26 -10.5q-8 0 -18.5 4t-13.5 5 q-28 4 -39.5 -1.5t-38.5 -35.5q-21 -26 -21 -45q0 -3 1 -8t1 -7q-1 -5 -5 -14t-5 -14q-5 -23 -5.5 -70.5t-0.5 -48.5l2 -31q2 -31 2 -41q4 -16 4 -26q-3 -68 13 -146q7 -62 53 -86q10 0 16 4.5t8 8t5 15t4 13.5q41 19 120 4q1 -5 0 -9t-4.5 -12t-5.5 -18q-60 -33 -117 -45 q-46 -8 -92.5 -1t-77.5 22q-29 23 -43 123q-3 16 -8 88q-3 128 -2 178z" />
<glyph unicode="&#xaa;" horiz-adv-x="352" d="M-4 1174q10 61 18 110q3 18 6.5 50.5t6.5 51.5t11.5 41.5t26.5 37t46 22.5q1 0 43 15.5t61 15.5q4 0 13.5 -4t13.5 -5q1 0 9.5 0.5t12.5 0t10.5 -2t11.5 -5.5t9 -11q5 -10 17 -58t12 -59q1 -13 -1 -36.5t0 -39t11 -28.5q9 -20 1.5 -91.5t-7.5 -82.5q-9 -2 -29 -7t-29 -7 t-29.5 -3.5t-31.5 4.5q-9 80 -8 88q-19 16 -33.5 17.5t-23.5 -11t-15 -26t-13 -35.5t-12 -33q-38 -11 -60.5 -4.5t-45.5 31.5q-1 11 1 24.5t2 22.5t-5 17zM158 1315q4 -5 15 -5t15 5q5 16 2 47t-16 39q-10 -15 -16 -40.5t0 -45.5z" />
<glyph unicode="&#xab;" horiz-adv-x="630" d="M9.5 602.5q-2.5 16.5 7.5 31.5t22.5 26.5t28.5 21.5q49 72 137 186q-1 9 6 19.5t8 13.5q48 30 103 21q1 -1 4 -7.5t4 -8.5t3.5 -8t3.5 -9t3.5 -9t3 -10t1.5 -9.5t1 -10t-0.5 -9.5t-1.5 -10q-4 -3 -17 -14t-22 -16q-13 -35 -60.5 -97t-60.5 -86q7 -27 49 -65t79 -75 t36 -66q-4 -8 -15.5 -21.5t-15.5 -21.5q-10 -13 -25.5 -11.5t-53.5 23.5q-11 6 -26 24.5t-17 20.5q-6 5 -24 17t-27 21.5t-13 22.5q-21 10 -50.5 42.5t-51.5 41.5q-17 15 -19.5 31.5zM272 586q-31 51 23 125q5 1 21 18t24 16q12 25 25.5 39.5t38 32t36.5 27.5q14 40 51 65.5 t62 22.5q1 -4 21.5 -15.5t25.5 -11.5q1 -3 5 -11.5t5.5 -12.5t4 -11.5t2.5 -12.5t-1.5 -12t-5.5 -14q-114 -93 -192 -186q13 -31 42.5 -64t56 -56.5t48 -58t23.5 -71.5q-19 -19 -40 -31t-48.5 -11t-48.5 24q-12 9 -35.5 38t-51 65.5t-36.5 47.5q-8 11 -29.5 29.5t-26.5 28.5 z" />
<glyph unicode="&#xad;" horiz-adv-x="606" d="M2 598q0 8 12 22t29 29t20 19q67 9 142.5 10t132 -3t134 -9.5t128.5 -6.5q-6 -9 -32 -18.5t-31 -24.5q3 -7 15.5 -14t14.5 -14q-1 -15 -12.5 -31t-13.5 -20q-22 -9 -51 -10t-52 2.5t-58.5 8.5t-57.5 7q-28 1 -82.5 -1.5t-91.5 0.5t-64 17q-25 -4 -54 5t-28 32z" />
<glyph unicode="&#xae;" horiz-adv-x="897" d="M-8 827q0 12 5 39t5 41q0 6 -1.5 27.5t-0.5 34.5q0 10 10 45q1 5 2.5 17t2.5 17.5t4 14t8 14.5q-7 13 1 39t-1 33q27 63 59 104q24 6 74 27q10 3 23.5 13t19.5 12q68 30 214 36t279.5 -23.5t151.5 -90.5q11 -42 2 -137q-3 -46 -5 -154t-5 -150q-5 -61 2.5 -187t-0.5 -181 v-35.5t-4 -44.5q-5 -27 -22 -74t-21 -63q-7 -5 -27 -26.5t-37 -29.5q-13 -2 -45 -7.5t-59 -9.5t-45 -5q-8 0 -138 2t-139 2q-92 0 -155 16q-21 7 -50.5 22.5t-40.5 27.5q-8 7 -23.5 36t-23.5 37q-4 6 -5.5 18t-1 21t2.5 25.5t2 21.5q0 6 -5.5 21.5t-4.5 23.5q0 4 2 9.5 t4.5 10.5l3.5 7q1 13 -4.5 36t-5.5 34q-2 24 4.5 66t5.5 56q-1 8 -7.5 24t-6.5 26q0 20 3 61t3 61q0 7 -5 22t-5 17zM145 616q0 -50 5.5 -102.5t5.5 -95.5q1 -12 2.5 -33.5t2.5 -31t4.5 -25t10 -29t17.5 -29.5q2 0 4.5 -2t5.5 -2q36 -14 205.5 -10t232.5 27q28 29 38 56 t8.5 46.5t0 52t12.5 64.5q-3 9 -4 18.5t1.5 21t4.5 18.5t7 21.5t6 18.5q3 53 8 84q7 32 10 131.5t19 147.5q-5 76 -12.5 111t-37.5 104q-30 39 -73 41q-14 -7 -183.5 -14.5t-183.5 -10.5q-21 -22 -33.5 -38t-21.5 -35.5t-12 -28t-10 -37.5t-11 -43q-19 -105 -22 -201 q-5 -123 0 -164q1 -6 -3 -17t-4 -14zM276 719q0 32 7.5 103.5t7.5 99.5q0 10 -2 34t-2 33q0 60 16 68q108 22 281 -8q1 -3 16 -13q1 0 4 -18l4 -19q18 -66 8 -104q-2 -2 -4.5 -5.5t-3.5 -4.5q0 -4 1.5 -11t0.5 -10q-2 -39 -43 -102q-7 -3 -11.5 -11.5t-4.5 -15.5 q8 -8 12 -17.5t6.5 -27.5t3.5 -24q12 -28 15 -66q3 0 2 -26l-2 -27q0 -10 3.5 -30t2.5 -32q-2 -8 2 -30q1 -4 2.5 -15.5t2.5 -16t4 -11.5t7 -13q-24 -5 -53 -2q-12 -18 -63 -12q-13 2 -21 27q-3 20 -3.5 69t-4.5 70q1 14 -4 117q0 28 -12 37q-5 -1 -24.5 -2.5t-33.5 -5 t-18 -11.5v-1v-1v-1v-1v-1v-2v-1v-1v-1v-10q1 -11 6 -28t6 -24q0 -5 -4.5 -23.5t-3.5 -29.5q0 -10 7.5 -27t8.5 -22q6 -6 6 -25q0 -1 -3 -4t-3 -4q5 -10 8 -30q0 -25 5 -33q-5 -5 -20 -3.5t-17 1.5q-30 -15 -37 -15q-4 -1 -14 0t-15 0q-16 4 -22.5 14t-5 20t4 26t1.5 26 q-7 74 -7 234zM359.5 838.5q-1.5 -26.5 11.5 -74.5q82 0 98 33q27 50 27 129q0 47 -11 69q-78 13 -118 -6q3 -32 -1.5 -78t-6 -72.5z" />
<glyph unicode="&#xb4;" horiz-adv-x="520" d="M147 1602q8 8 17 15t22 14.5t20.5 11.5t25 12.5t22.5 11.5q16 9 35.5 26t31.5 26t32.5 9.5t47.5 -16.5q36 -33 19 -70q-19 -11 -78.5 -54t-87.5 -54q-34 -14 -63.5 9t-43.5 59z" />
<glyph unicode="&#xba;" horiz-adv-x="362" d="M8.5 1276q0.5 11 3.5 18q12 35 29 85q22 68 34.5 82.5t66.5 33.5q4 1 6 2t5.5 2t6.5 2q17 6 80 6q30 0 42 -7t33 -32q3 -4 12.5 -12t10.5 -12q4 -9 6 -32.5t3 -54.5t1 -38q1 -8 -4 -20t-6 -17v-37q-4 -29 -22 -74.5t-21 -64.5q-19 -22 -82 -26.5t-78 -10.5 q-106 18 -123 80q-7 26 -2 82q0 4 -1 19t-0.5 26zM143 1329q11 -19 11.5 -67t5.5 -70q17 -12 43 -6q34 75 26 192q-11 0 -17.5 8t-12.5 9q-17 2 -27.5 -9.5t-17.5 -31.5t-11 -25z" />
<glyph unicode="&#xbb;" horiz-adv-x="618" d="M24 808q-29 41 1 69q5 1 29 22.5t28 20.5q12 8 28.5 -4t34.5 -32t27 -24q15 -32 41 -56.5t54 -49t44 -54.5q6 -2 22 -20.5t19 -20.5q22 -26 16.5 -58t-36.5 -52q-9 -15 -24 -45t-28 -52.5t-28 -39.5q0 -27 -62 -64q-7 -5 -15.5 -12t-14.5 -11.5t-14 -8.5t-17 -5 q-11 0 -40 20t-36 21q-18 16 43 81t82 79q6 20 26.5 49t26.5 47q-57 60 -125 119q-66 57 -82 81zM270 862q0 17 5.5 28.5t9.5 16t19 13.5l20 12q19 13 53 2t49 -35q3 -4 5 -10t4 -14.5t3 -12.5q4 -12 21 -35.5t18 -44.5q1 -18 13 -40.5t37 -58t28 -40.5q7 -11 24.5 -33 t21.5 -31t1.5 -26t-20.5 -37q-4 -4 -15.5 -11t-15.5 -11q-16 -16 -48 -58t-48 -59q-6 -12 -17 -23q-12 -11 -28 -20q-39 -28 -76 -10q-17 4 -26 13t-13.5 23.5t-5.5 16.5l147 209q-10 18 -46 85t-65 114t-55 77z" />
<glyph unicode="&#xbf;" horiz-adv-x="516" d="M6 203q-1 38 0 87.5t3 113t3 98.5q2 88 14.5 143.5t49.5 108.5q10 15 23 29t32.5 32t24.5 23q15 18 25 40t15.5 39t8 47t3 46t1 55t0.5 55q0 207 4 256q17 18 48.5 21t58 -3.5t49.5 -17.5q8 -18 9 -41.5t-1.5 -55t-1.5 -48.5q0 -9 5 -50t3 -63q-2 -11 -9 -30t-9 -27 q-4 -26 -5.5 -95t-11.5 -102q-47 -72 -90 -110q-39 -63 -58.5 -141.5t-18 -179.5t7 -167.5t20.5 -183.5q1 -6 2 -25t2.5 -28t7 -23t15.5 -26q33 -8 49.5 3t18.5 35.5t-0.5 50.5t-2 53.5t9.5 39.5q11 16 34.5 19.5t43.5 -1t47 -12t33 -8.5q4 -17 -1 -30.5t-16 -26.5t-14 -21 q-2 -7 -1.5 -19.5t-0.5 -19.5q-6 -19 -27 -55t-34 -49q-61 -61 -162 -50q-92 9 -137.5 61.5t-63.5 158.5q-6 41 -6 94zM195 1571q134 27 184 -27q5 -12 5 -21.5t-2.5 -19.5t-2.5 -16q-27 -22 -31 -23q-10 -4 -27 -11t-22 -9q-59 -31 -93 15t-11 112z" />
<glyph unicode="&#xc0;" horiz-adv-x="659" d="M7 57q0 6 0.5 18.5t0.5 18.5q2 100 2.5 277t1.5 231q0 19 -2 60t-2 63q1 84 13 229.5t14 171.5q1 13 5 40.5t5 47.5q1 23 2.5 40.5t4 40.5t6 41t8.5 38.5t11.5 35.5t14.5 29.5t19 23.5t24 15t29 5.5t35 -6.5q38 33 92 22q12 -2 51 -6q23 -1 49 -11.5t41 -19.5t44 -29 t38 -26q6 -19 17.5 -36.5t27 -36.5t23.5 -31q34 -136 39 -269q1 -36 -5 -106.5t-6 -104.5q0 -15 4 -53t2 -59q0 -5 -4 -16.5t-4 -16.5q-1 -12 1 -36.5t1 -37.5q-1 -17 -8 -50t-8 -50q0 -8 2 -24.5t2 -24.5q-1 -12 -8.5 -39t-7.5 -41q-5 -41 -2 -167t2 -159q-1 -10 -7.5 -15 t-24.5 -7.5t-22 -3.5q-6 -2 -22.5 -11t-24.5 -10q-40 -3 -69 39q18 78 23.5 180.5t5.5 224.5t3 179q-12 13 -32 17t-33 3t-44 -7t-38 -7q-10 -1 -39.5 -3.5t-47.5 -6.5t-32 -13q9 -99 -4.5 -285.5t-1.5 -289.5q-7 -1 -47.5 -15.5t-67 -13.5t-43.5 25q-4 6 -5.5 14t-1.5 14z M102 1655q2 24 11.5 40.5t22 22.5t26 8.5t22 1.5t11.5 -2q30 -24 98 -57t90 -47q7 -30 -10 -52t-47 -34q-26 -2 -55 6.5t-56.5 26t-46.5 31.5t-41.5 33.5t-24.5 21.5zM178 717q50 -10 137 2.5t125 11.5q9 38 10 83.5t-4 94t-11.5 93.5t-14.5 102t-12 100q-1 8 -3 32 t-3.5 39.5t-5 36.5t-9.5 36q-41 11 -92 2q-10 -8 -25.5 -31.5t-25.5 -32.5q-10 -38 -19 -133q-3 -16 -13 -50.5t-13 -55.5q-1 -3 1 -11t1 -12q0 -6 -5 -20.5t-6 -20.5q-5 -44 -6 -132.5t-6 -133.5z" />
<glyph unicode="&#xc1;" horiz-adv-x="669" d="M7 57q0 6 0.5 18.5t0.5 18.5q2 100 2.5 277t1.5 231q0 19 -2 60t-2 63q1 84 13 229.5t14 171.5q1 13 5 40.5t5 47.5q1 23 2.5 40.5t4 40.5t6 41t8.5 38.5t11.5 35.5t14.5 29.5t19 23.5t24 15t29 5.5t35 -6.5q38 33 92 22q12 -2 51 -6q23 -1 49 -11.5t41 -19.5t44 -29 t38 -26q6 -19 17.5 -36.5t27 -36.5t23.5 -31q34 -136 39 -269q1 -36 -5 -106.5t-6 -104.5q0 -15 4 -53t2 -59q0 -5 -4 -16.5t-4 -16.5q-1 -12 1 -36.5t1 -37.5q-1 -17 -8 -50t-8 -50q0 -8 2 -24.5t2 -24.5q-1 -12 -8.5 -39t-7.5 -41q-5 -41 -2 -167t2 -159q-1 -10 -7.5 -15 t-24.5 -7.5t-22 -3.5q-6 -2 -22.5 -11t-24.5 -10q-40 -3 -69 39q18 78 23.5 180.5t5.5 224.5t3 179q-12 13 -32 17t-33 3t-44 -7t-38 -7q-10 -1 -39.5 -3.5t-47.5 -6.5t-32 -13q9 -99 -4.5 -285.5t-1.5 -289.5q-7 -1 -47.5 -15.5t-67 -13.5t-43.5 25q-4 6 -5.5 14t-1.5 14z M147 1602q8 8 17 15t22 14.5t20.5 11.5t25 12.5t22.5 11.5q16 9 35.5 26t31.5 26t32.5 9.5t47.5 -16.5q36 -33 19 -70q-19 -11 -78.5 -54t-87.5 -54q-34 -14 -63.5 9t-43.5 59zM178 717q50 -10 137 2.5t125 11.5q9 38 10 83.5t-4 94t-11.5 93.5t-14.5 102t-12 100 q-1 8 -3 32t-3.5 39.5t-5 36.5t-9.5 36q-41 11 -92 2q-10 -8 -25.5 -31.5t-25.5 -32.5q-10 -38 -19 -133q-3 -16 -13 -50.5t-13 -55.5q-1 -3 1 -11t1 -12q0 -6 -5 -20.5t-6 -20.5q-5 -44 -6 -132.5t-6 -133.5z" />
<glyph unicode="&#xc2;" horiz-adv-x="665" d="M7 57q0 6 0.5 18.5t0.5 18.5q2 100 2.5 277t1.5 231q0 19 -2 60t-2 63q1 84 13 229.5t14 171.5q1 13 5 40.5t5 47.5q1 23 2.5 40.5t4 40.5t6 41t8.5 38.5t11.5 35.5t14.5 29.5t19 23.5t24 15t29 5.5t35 -6.5q38 33 92 22q12 -2 51 -6q23 -1 49 -11.5t41 -19.5t44 -29 t38 -26q6 -19 17.5 -36.5t27 -36.5t23.5 -31q34 -136 39 -269q1 -36 -5 -106.5t-6 -104.5q0 -15 4 -53t2 -59q0 -5 -4 -16.5t-4 -16.5q-1 -12 1 -36.5t1 -37.5q-1 -17 -8 -50t-8 -50q0 -8 2 -24.5t2 -24.5q-1 -12 -8.5 -39t-7.5 -41q-5 -41 -2 -167t2 -159q-1 -10 -7.5 -15 t-24.5 -7.5t-22 -3.5q-6 -2 -22.5 -11t-24.5 -10q-40 -3 -69 39q18 78 23.5 180.5t5.5 224.5t3 179q-12 13 -32 17t-33 3t-44 -7t-38 -7q-10 -1 -39.5 -3.5t-47.5 -6.5t-32 -13q9 -99 -4.5 -285.5t-1.5 -289.5q-7 -1 -47.5 -15.5t-67 -13.5t-43.5 25q-4 6 -5.5 14t-1.5 14z M79 1541q-13 36 7 64q11 16 29 19q12 25 45.5 61.5t44.5 59.5q7 3 17 14t16 13q32 11 59 -6t41 -46q39 -13 70 -53q10 1 14 0t10 -4t10 -4q24 -69 -20 -127q-36 1 -63.5 23.5t-54 52.5t-52.5 41q-52 -47 -68 -64q-4 -5 -16.5 -24t-23 -30.5t-19.5 -14.5q-33 -11 -46 25z M178 717q50 -10 137 2.5t125 11.5q9 38 10 83.5t-4 94t-11.5 93.5t-14.5 102t-12 100q-1 8 -3 32t-3.5 39.5t-5 36.5t-9.5 36q-41 11 -92 2q-10 -8 -25.5 -31.5t-25.5 -32.5q-10 -38 -19 -133q-3 -16 -13 -50.5t-13 -55.5q-1 -3 1 -11t1 -12q0 -6 -5 -20.5t-6 -20.5 q-5 -44 -6 -132.5t-6 -133.5z" />
<glyph unicode="&#xc3;" horiz-adv-x="653" d="M7 57q0 6 0.5 18.5t0.5 18.5q2 100 2.5 277t1.5 231q0 19 -2 60t-2 63q1 84 13 229.5t14 171.5q1 13 5 40.5t5 47.5q1 23 2.5 40.5t4 40.5t6 41t8.5 38.5t11.5 35.5t14.5 29.5t19 23.5t24 15t29 5.5t35 -6.5q38 33 92 22q12 -2 51 -6q23 -1 49 -11.5t41 -19.5t44 -29 t38 -26q6 -19 17.5 -36.5t27 -36.5t23.5 -31q34 -136 39 -269q1 -36 -5 -106.5t-6 -104.5q0 -15 4 -53t2 -59q0 -5 -4 -16.5t-4 -16.5q-1 -12 1 -36.5t1 -37.5q-1 -17 -8 -50t-8 -50q0 -8 2 -24.5t2 -24.5q-1 -12 -8.5 -39t-7.5 -41q-5 -41 -2 -167t2 -159q-1 -10 -7.5 -15 t-24.5 -7.5t-22 -3.5q-6 -2 -22.5 -11t-24.5 -10q-40 -3 -69 39q18 78 23.5 180.5t5.5 224.5t3 179q-12 13 -32 17t-33 3t-44 -7t-38 -7q-10 -1 -39.5 -3.5t-47.5 -6.5t-32 -13q9 -99 -4.5 -285.5t-1.5 -289.5q-7 -1 -47.5 -15.5t-67 -13.5t-43.5 25q-4 6 -5.5 14t-1.5 14z M12 1591q-2 6 5.5 13.5t5.5 13.5q4 6 10.5 15t8.5 11t6 7t7 5t8 2.5t13 3.5t17 2.5t24.5 4.5t32.5 6q31 -2 109 -17t134 -13q13 1 21.5 10t14 19t25 15.5t52.5 0.5q42 -9 72 -31q3 -3 0.5 -9t-2.5 -8.5t-5 -7.5l-6.5 -6.5t-7 -6t-6.5 -5.5q-29 -29 -43 -37q-5 -3 -18 -12 t-24.5 -15t-21.5 -8q-6 -1 -25.5 0t-25.5 0q-19 -3 -98 22t-109 19q-25 -19 -46 -29t-33 -13.5t-54 -12.5q-23 18 -26 29q-1 7 -9 17.5t-6 14.5zM178 717q50 -10 137 2.5t125 11.5q9 38 10 83.5t-4 94t-11.5 93.5t-14.5 102t-12 100q-1 8 -3 32t-3.5 39.5t-5 36.5t-9.5 36 q-41 11 -92 2q-10 -8 -25.5 -31.5t-25.5 -32.5q-10 -38 -19 -133q-3 -16 -13 -50.5t-13 -55.5q-1 -3 1 -11t1 -12q0 -6 -5 -20.5t-6 -20.5q-5 -44 -6 -132.5t-6 -133.5z" />
<glyph unicode="&#xc4;" horiz-adv-x="671" d="M7 57q0 6 0.5 18.5t0.5 18.5q2 100 2.5 277t1.5 231q0 19 -2 60t-2 63q1 84 13 229.5t14 171.5q1 13 5 40.5t5 47.5q1 23 2.5 40.5t4 40.5t6 41t8.5 38.5t11.5 35.5t14.5 29.5t19 23.5t24 15t29 5.5t35 -6.5q38 33 92 22q12 -2 51 -6q23 -1 49 -11.5t41 -19.5t44 -29 t38 -26q6 -19 17.5 -36.5t27 -36.5t23.5 -31q34 -136 39 -269q1 -36 -5 -106.5t-6 -104.5q0 -15 4 -53t2 -59q0 -5 -4 -16.5t-4 -16.5q-1 -12 1 -36.5t1 -37.5q-1 -17 -8 -50t-8 -50q0 -8 2 -24.5t2 -24.5q-1 -12 -8.5 -39t-7.5 -41q-5 -41 -2 -167t2 -159q-1 -10 -7.5 -15 t-24.5 -7.5t-22 -3.5q-6 -2 -22.5 -11t-24.5 -10q-40 -3 -69 39q18 78 23.5 180.5t5.5 224.5t3 179q-12 13 -32 17t-33 3t-44 -7t-38 -7q-10 -1 -39.5 -3.5t-47.5 -6.5t-32 -13q9 -99 -4.5 -285.5t-1.5 -289.5q-7 -1 -47.5 -15.5t-67 -13.5t-43.5 25q-4 6 -5.5 14t-1.5 14z M82.5 1685.5q0.5 22.5 15.5 36.5q22 17 60 8t57 -30q17 -85 -37 -131q-8 -5 -15.5 -6.5t-17 1t-15 4.5t-17.5 7.5t-15 7.5q-1 14 -8.5 47t-7 55.5zM178 717q50 -10 137 2.5t125 11.5q9 38 10 83.5t-4 94t-11.5 93.5t-14.5 102t-12 100q-1 8 -3 32t-3.5 39.5t-5 36.5t-9.5 36 q-41 11 -92 2q-10 -8 -25.5 -31.5t-25.5 -32.5q-10 -38 -19 -133q-3 -16 -13 -50.5t-13 -55.5q-1 -3 1 -11t1 -12q0 -6 -5 -20.5t-6 -20.5q-5 -44 -6 -132.5t-6 -133.5zM344 1640q-5 50 19 73.5t58 17t60 -36.5q10 -90 -30 -127q-45 -25 -82 6q-5 12 -10.5 23.5t-7 14 t-3.5 8.5t-2.5 8.5t-1.5 12.5z" />
<glyph unicode="&#xc7;" horiz-adv-x="608" d="M4 350q-5 158 14 444.5t13 415.5q0 14 10 17q-11 43 -7.5 94t19.5 88q11 9 36 32t41 36t42 23.5t51 8.5q1 0 17 11q76 9 192 -17q3 -1 68 -41q0 -5 1 -22.5t1 -26v-24t-2 -25t-5.5 -21.5t-10 -21t-15.5 -15q-27 -27 -70 -17q-67 21 -49 96q-26 18 -60.5 11.5t-66 -30.5 t-37.5 -48q-8 -31 3 -98.5t12 -77.5q0 -5 -3 -22.5t-1 -26.5q1 -6 6.5 -19.5t5.5 -21.5q2 -13 -2.5 -39t-3.5 -33q5 -44 20 -107q9 -48 10.5 -175t6.5 -181q-6 -74 -6 -107t3.5 -116t4.5 -111q0 -53 39 -86q10 -7 19.5 -8.5t20.5 4.5t14.5 8t16.5 13q27 75 31 123 q1 9 1 41.5t3 54.5q4 18 92 24q37 1 55 -2t41 -14q12 -42 11 -63t-13 -64q-11 -16 -36 -71t-48 -78q-8 -9 -30 -20t-29 -17q-2 -2 -12.5 -10t-14 -10t-12.5 -7t-15 -6t-15.5 -1t-18.5 3q-22 -16 -29.5 -41.5t-6 -48.5t-7 -49.5t-31.5 -42.5q-31 -5 -62.5 -2t-49.5 24 q1 9 7 66t7 92q-6 12 -26.5 13.5t-22.5 2.5q-19 7 -36.5 21.5t-36 33.5t-28.5 27q-28 149 -16 256z" />
<glyph unicode="&#xc8;" horiz-adv-x="577" d="M16 96q-18 142 13 469q4 31 6.5 96.5t7.5 104.5q1 6 5 15t5 14q19 265 -4 487q-1 9 2 29t2 30q-1 5 -2.5 30.5t-3.5 39.5q-9 42 -1 54t28 16q13 5 66.5 1t68.5 -3q18 0 78.5 5t95.5 3q4 0 27 -0.5t30.5 -1t26 -2.5t28 -4.5t22.5 -7t22 -11.5q-1 -3 -17 -25.5t-16 -43.5 q-8 -9 -17.5 -10.5t-17 2t-21 9t-24.5 7.5q-52 6 -101.5 -2.5t-74.5 -32.5q10 -72 13 -167t1.5 -175.5t1.5 -181.5q25 -10 132 -10.5t139 -20.5q-14 -8 -35.5 -43t-44.5 -37q-5 -1 -11 0.5t-13.5 5t-10.5 4.5q-76 16 -166 -26q-4 -16 -5.5 -35.5t-0.5 -34t0 -31.5 q-1 -5 -7 -15t-7 -15q0 -2 3 -9t3 -10q2 -24 -6 -66.5t-11 -67.5t8 -60q-10 -27 -10 -93q-1 -12 1 -34.5t1 -32.5q0 -5 -2 -19t-1 -25.5t7 -21.5q8 0 45.5 1t49 1t41 -1t44 -4.5t35 -10t35.5 -16.5q-7 -2 -1 -28q3 -11 0 -12q-1 0 -3 1q-23 -25 -68.5 -32t-93.5 -1.5 t-100.5 6t-89.5 -7.5q-74 17 -107 57zM76 1655q2 24 11.5 40.5t21.5 22.5t26 8.5t22 1.5t11 -2q30 -24 98 -57t90 -47q7 -30 -10 -52t-47 -34q-26 -2 -54.5 6.5t-56 26t-46.5 31.5t-41.5 33.5t-24.5 21.5z" />
<glyph unicode="&#xc9;" horiz-adv-x="567" d="M16 96q-18 142 13 469q4 31 6.5 96.5t7.5 104.5q1 6 5 15t5 14q19 265 -4 487q-1 9 2 29t2 30q-1 5 -2.5 30.5t-3.5 39.5q-9 42 -1 54t28 16q13 5 66.5 1t68.5 -3q18 0 78.5 5t95.5 3q4 0 27 -0.5t30.5 -1t26 -2.5t28 -4.5t22.5 -7t22 -11.5q-1 -3 -17 -25.5t-16 -43.5 q-8 -9 -17.5 -10.5t-17 2t-21 9t-24.5 7.5q-52 6 -101.5 -2.5t-74.5 -32.5q10 -72 13 -167t1.5 -175.5t1.5 -181.5q25 -10 132 -10.5t139 -20.5q-14 -8 -35.5 -43t-44.5 -37q-5 -1 -11 0.5t-13.5 5t-10.5 4.5q-76 16 -166 -26q-4 -16 -5.5 -35.5t-0.5 -34t0 -31.5 q-1 -5 -7 -15t-7 -15q0 -2 3 -9t3 -10q2 -24 -6 -66.5t-11 -67.5t8 -60q-10 -27 -10 -93q-1 -12 1 -34.5t1 -32.5q0 -5 -2 -19t-1 -25.5t7 -21.5q8 0 45.5 1t49 1t41 -1t44 -4.5t35 -10t35.5 -16.5q-7 -2 -1 -28q3 -11 0 -12q-1 0 -3 1q-23 -25 -68.5 -32t-93.5 -1.5 t-100.5 6t-89.5 -7.5q-74 17 -107 57zM147 1602q8 8 17 15t22 14.5t20.5 11.5t25 12.5t22.5 11.5q16 9 35.5 26t31.5 26t32.5 9.5t47.5 -16.5q36 -33 19 -70q-19 -11 -78.5 -54t-87.5 -54q-34 -14 -63.5 9t-43.5 59z" />
<glyph unicode="&#xca;" horiz-adv-x="571" d="M16 96q-18 142 13 469q4 31 6.5 96.5t7.5 104.5q1 6 5 15t5 14q19 265 -4 487q-1 9 2 29t2 30q-1 5 -2.5 30.5t-3.5 39.5q-9 42 -1 54t28 16q13 5 66.5 1t68.5 -3q18 0 78.5 5t95.5 3q4 0 27 -0.5t30.5 -1t26 -2.5t28 -4.5t22.5 -7t22 -11.5q-1 -3 -17 -25.5t-16 -43.5 q-8 -9 -17.5 -10.5t-17 2t-21 9t-24.5 7.5q-52 6 -101.5 -2.5t-74.5 -32.5q10 -72 13 -167t1.5 -175.5t1.5 -181.5q25 -10 132 -10.5t139 -20.5q-14 -8 -35.5 -43t-44.5 -37q-5 -1 -11 0.5t-13.5 5t-10.5 4.5q-76 16 -166 -26q-4 -16 -5.5 -35.5t-0.5 -34t0 -31.5 q-1 -5 -7 -15t-7 -15q0 -2 3 -9t3 -10q2 -24 -6 -66.5t-11 -67.5t8 -60q-10 -27 -10 -93q-1 -12 1 -34.5t1 -32.5q0 -5 -2 -19t-1 -25.5t7 -21.5q8 0 45.5 1t49 1t41 -1t44 -4.5t35 -10t35.5 -16.5q-7 -2 -1 -28q3 -11 0 -12q-1 0 -3 1q-23 -25 -68.5 -32t-93.5 -1.5 t-100.5 6t-89.5 -7.5q-74 17 -107 57zM79 1541q-13 36 7 64q11 16 29 19q12 25 45.5 61.5t44.5 59.5q7 3 17 14t16 13q32 11 59 -6t41 -46q39 -13 70 -53q10 1 14 0t10 -4t10 -4q24 -69 -20 -127q-36 1 -63.5 23.5t-54 52.5t-52.5 41q-52 -47 -68 -64q-4 -5 -16.5 -24 t-23 -30.5t-19.5 -14.5q-33 -11 -46 25z" />
<glyph unicode="&#xcb;" horiz-adv-x="567" d="M16 96q-18 142 13 469q4 31 6.5 96.5t7.5 104.5q1 6 5 15t5 14q19 265 -4 487q-1 9 2 29t2 30q-1 5 -2.5 30.5t-3.5 39.5q-9 42 -1 54t28 16q13 5 66.5 1t68.5 -3q18 0 78.5 5t95.5 3q4 0 27 -0.5t30.5 -1t26 -2.5t28 -4.5t22.5 -7t22 -11.5q-1 -3 -17 -25.5t-16 -43.5 q-8 -9 -17.5 -10.5t-17 2t-21 9t-24.5 7.5q-52 6 -101.5 -2.5t-74.5 -32.5q10 -72 13 -167t1.5 -175.5t1.5 -181.5q25 -10 132 -10.5t139 -20.5q-14 -8 -35.5 -43t-44.5 -37q-5 -1 -11 0.5t-13.5 5t-10.5 4.5q-76 16 -166 -26q-4 -16 -5.5 -35.5t-0.5 -34t0 -31.5 q-1 -5 -7 -15t-7 -15q0 -2 3 -9t3 -10q2 -24 -6 -66.5t-11 -67.5t8 -60q-10 -27 -10 -93q-1 -12 1 -34.5t1 -32.5q0 -5 -2 -19t-1 -25.5t7 -21.5q8 0 45.5 1t49 1t41 -1t44 -4.5t35 -10t35.5 -16.5q-7 -2 -1 -28q3 -11 0 -12q-1 0 -3 1q-23 -25 -68.5 -32t-93.5 -1.5 t-100.5 6t-89.5 -7.5q-74 17 -107 57zM88.5 1685.5q0.5 22.5 15.5 36.5q22 17 60 8t57 -30q17 -85 -37 -131q-8 -5 -15.5 -6.5t-17 1t-15 4.5t-17.5 7.5t-15 7.5q-1 14 -8.5 47t-7 55.5zM350 1640q-5 50 19 73.5t58 17t60 -36.5q10 -90 -30 -127q-45 -25 -82 6 q-5 12 -10.5 23.5t-7 14t-3.5 8.5t-2.5 8.5t-1.5 12.5z" />
<glyph unicode="&#xcc;" horiz-adv-x="294" d="M-72 1655q2 24 11.5 40.5t21.5 22.5t26 8.5t22 1.5t11 -2q30 -24 98.5 -57t90.5 -47q7 -30 -10 -52t-47 -34q-26 -2 -55 6.5t-56.5 26t-46.5 31.5t-41.5 33.5t-24.5 21.5zM0 53q8 60 15 198t16 212q-4 32 -3.5 48t4.5 48t5 49q27 484 14 836q26 35 84 48.5t105 4.5 q0 -34 6 -133q8 -96 8 -234q0 -14 6 -44t6 -46q0 -13 0.5 -48t0.5 -54.5t-1.5 -48.5t-5.5 -51q-3 -17 -9 -108.5t-22 -133.5q14 -62 0 -78q3 -57 -10 -223q-2 -39 2 -119.5t2 -126.5q-13 -8 -39 -8t-34 -2q-11 -2 -25 -14.5t-21 -14.5q-61 -24 -104 43z" />
<glyph unicode="&#xcd;" horiz-adv-x="301" d="M0 53q8 60 15 198t16 212q-4 32 -3.5 48t4.5 48t5 49q27 484 14 836q26 35 84 48.5t105 4.5q0 -34 6 -133q8 -96 8 -234q0 -14 6 -44t6 -46q0 -13 0.5 -48t0.5 -54.5t-1.5 -48.5t-5.5 -51q-3 -17 -9 -108.5t-22 -133.5q14 -62 0 -78q3 -57 -10 -223q-2 -39 2 -119.5 t2 -126.5q-13 -8 -39 -8t-34 -2q-11 -2 -25 -14.5t-21 -14.5q-61 -24 -104 43zM63 1602q8 8 17 15t22 14.5t20.5 11.5t25 12.5t22.5 11.5q16 9 35.5 26t31.5 26t32.5 9.5t47.5 -16.5q36 -33 19 -70q-19 -11 -78.5 -54t-87.5 -54q-34 -14 -63.5 9t-43.5 59z" />
<glyph unicode="&#xce;" horiz-adv-x="299" d="M-32 1541q-13 36 7 64q11 16 29 19q12 25 45.5 61.5t44.5 59.5q7 3 17 14t16 13q32 11 59 -6t41 -46q39 -13 70 -53q11 2 22 -3t13 -5q23 -68 -21 -127q-36 1 -63.5 23.5t-54 52.5t-52.5 41q-46 -42 -67 -64q-4 -5 -17 -24t-23.5 -30.5t-19.5 -14.5q-33 -11 -46 25zM0 53 q8 60 15 198t16 212q-4 32 -3.5 48t4.5 48t5 49q27 484 14 836q26 35 84 48.5t105 4.5q0 -34 6 -133q8 -96 8 -234q0 -14 6 -44t6 -46q0 -13 0.5 -48t0.5 -54.5t-1.5 -48.5t-5.5 -51q-3 -17 -9 -108.5t-22 -133.5q14 -62 0 -78q3 -57 -10 -223q-2 -39 2 -119.5t2 -126.5 q-13 -8 -39 -8t-34 -2q-11 -2 -25 -14.5t-21 -14.5q-61 -24 -104 43z" />
<glyph unicode="&#xcf;" horiz-adv-x="313" d="M-44.5 1685.5q0.5 22.5 15.5 36.5q22 17 60 8t57 -30q17 -85 -37 -131q-8 -5 -15.5 -6.5t-17 1t-15 4.5t-17.5 7.5t-15 7.5q-1 14 -8.5 47t-7 55.5zM0 53q8 60 15 198t16 212q-4 32 -3.5 48t4.5 48t5 49q27 484 14 836q26 35 84 48.5t105 4.5q0 -34 6 -133q8 -96 8 -234 q0 -14 6 -44t6 -46q0 -13 0.5 -48t0.5 -54.5t-1.5 -48.5t-5.5 -51q-3 -17 -9 -108.5t-22 -133.5q14 -62 0 -78q3 -57 -10 -223q-2 -39 2 -119.5t2 -126.5q-13 -8 -39 -8t-34 -2q-11 -2 -25 -14.5t-21 -14.5q-61 -24 -104 43zM217 1640q-5 50 19 73.5t58 17t60 -36.5 q10 -90 -30 -127q-45 -25 -82 6q-5 12 -10.5 23.5t-7 14t-3.5 8.5t-2.5 8.5t-1.5 12.5z" />
<glyph unicode="&#xd1;" horiz-adv-x="698" d="M-12 1376q0 15 5 23.5t18 20.5t20 20q32 -2 61.5 -17.5t43 -27t44 -45.5t35.5 -39q28 -69 63.5 -193t49.5 -164q3 -14 21 -36.5t22 -30.5q6 -12 13 -36.5t9 -29.5q5 -12 41 -86t47 -119q2 70 -7.5 206.5t-6.5 197.5q1 21 2 65t3.5 77t8.5 59q1 8 8.5 24.5t8.5 24.5 q4 35 -5 117t-4 126q7 -1 9.5 -0.5t6 3.5t5.5 4q9 -5 17 -7t14 -2t20 1t27 1q5 -8 9.5 -24t11 -25.5t18.5 -11.5q5 -23 13.5 -82.5t18.5 -89.5q-16 -80 -10.5 -219t9.5 -235.5t-27 -217.5q1 -53 -4.5 -104t-17 -119t-15.5 -94q2 -16 19.5 -96.5t13.5 -116.5 q-28 -9 -40.5 -12.5t-41.5 -10t-50.5 -3.5t-37.5 14q-11 56 -38 160t-28 108q-4 15 -31 110q-10 32 -23 94t-20 87q-35 124 -86 239q-46 174 -100 252q2 -29 4 -80t2 -55q1 -26 16 -67t17 -58q2 -8 0.5 -31.5t-0.5 -33.5q19 -124 20 -150q1 -13 -2.5 -36.5t-3.5 -33.5 q0 -7 3 -20.5t3 -20.5q0 -10 -4.5 -29t-5.5 -26q-1 -18 3 -51.5t3 -48.5q0 -21 -4.5 -63.5t-3.5 -63.5q1 -20 9 -87t8 -104q0 -40 -11 -55q-12 -18 -68 -32.5t-79 -4.5q-12 6 -18 25.5t-6 39t0.5 51t0.5 44.5q-1 23 -8 73.5t-8 71.5q-1 12 1 33t1 31q-3 83 3.5 240t4.5 233 q-2 56 -3.5 207.5t-4.5 228.5q0 10 1.5 29.5t1.5 35t-3 29.5q-1 8 -6.5 20t-5.5 19zM2 1524q2 140 354 84q37 8 83.5 3t78.5 -20q-4 -10 -12.5 -14.5t-22.5 -7t-20 -4.5q-5 -3 -17 -13t-18 -12q-61 -18 -98 -10q-14 3 -38 11t-41.5 13.5t-40.5 5.5t-44 -10q-9 -5 -33 -18 t-35 -17.5t-29.5 -9t-34.5 0.5t-32 18z" />
<glyph unicode="&#xd2;" horiz-adv-x="729" d="M0 328q12 251 33 372q41 219 63 461v45.5t4 55.5q5 35 22 95.5t21 80.5q4 4 25.5 31t38.5 36q79 19 115 21q8 0 25 -5t26 -5q17 -1 48.5 1t57 1t49.5 -9q22 -9 50.5 -27t39.5 -34q8 -10 24 -47.5t24 -48.5q3 -6 5 -15.5t1.5 -22.5t-1 -23t-2 -25t-1.5 -21q0 -9 5.5 -28.5 t4.5 -30.5q0 -6 -4.5 -17.5t-5.5 -15.5q-1 -15 4.5 -44.5t5.5 -43.5q2 -31 -4.5 -84.5t-5.5 -71.5q1 -10 7.5 -30.5t6.5 -32.5q0 -26 -3 -78t-3 -78q0 -9 4.5 -27t5.5 -24q0 -15 -5 -48t-5 -50q0 -9 1.5 -37t0.5 -43q0 -13 -10 -58q-1 -7 -2.5 -21.5t-2.5 -21.5t-4 -17.5 t-8 -18.5q7 -17 -1 -50.5t1 -40.5q-29 -85 -59 -133q-1 -1 -29 -12.5t-45 -19.5q-9 -5 -22.5 -17.5t-20.5 -15.5q-68 -39 -171.5 -41.5t-193.5 39.5t-108 121q-11 54 -2 174zM190 1681q2 24 11.5 40.5t22 23t26 8.5t22 1.5t11.5 -1.5q30 -24 98 -57t90 -47q7 -30 -10 -52 t-47 -34q-26 -2 -54.5 6.5t-56.5 26t-47 31t-42 33.5t-24 21zM213 483q3 -35 2.5 -106.5t4 -130t20.5 -109.5q4 -4 13 -18.5t18 -21t24 -7.5q9 7 23 11.5t33 7.5t28 6q12 17 22 37t17.5 44t13 41.5t11 48t8 44t8 47.5t6.5 43q12 75 16 235q5 126 -2 187q-1 7 2.5 20t3.5 17 q-4 217 -6 335q-4 136 -37 201q-2 0 -4.5 2t-5.5 2q-28 -24 -117 -43q-28 -43 -37.5 -104t-13 -134.5t-14.5 -117.5q4 -27 4 -38t-5.5 -39t-6.5 -38q-3 -54 -9 -98q-5 -33 -6 -150t-14 -174z" />
<glyph unicode="&#xd3;" d="M0 328q12 251 33 372q41 219 63 461v45.5t4 55.5q5 35 22 95.5t21 80.5q4 4 25.5 31t38.5 36q79 19 115 21q8 0 25 -5t26 -5q17 -1 48.5 1t57 1t49.5 -9q22 -9 50.5 -27t39.5 -34q8 -10 24 -47.5t24 -48.5q3 -6 5 -15.5t1.5 -22.5t-1 -23t-2 -25t-1.5 -21q0 -9 5.5 -28.5 t4.5 -30.5q0 -6 -4.5 -17.5t-5.5 -15.5q-1 -15 4.5 -44.5t5.5 -43.5q2 -31 -4.5 -84.5t-5.5 -71.5q1 -10 7.5 -30.5t6.5 -32.5q0 -26 -3 -78t-3 -78q0 -9 4.5 -27t5.5 -24q0 -15 -5 -48t-5 -50q0 -9 1.5 -37t0.5 -43q0 -13 -10 -58q-1 -7 -2.5 -21.5t-2.5 -21.5t-4 -17.5 t-8 -18.5q7 -17 -1 -50.5t1 -40.5q-29 -85 -59 -133q-1 -1 -29 -12.5t-45 -19.5q-9 -5 -22.5 -17.5t-20.5 -15.5q-68 -39 -171.5 -41.5t-193.5 39.5t-108 121q-11 54 -2 174zM213 483q3 -35 2.5 -106.5t4 -130t20.5 -109.5q4 -4 13 -18.5t18 -21t24 -7.5q9 7 23 11.5t33 7.5 t28 6q12 17 22 37t17.5 44t13 41.5t11 48t8 44t8 47.5t6.5 43q12 75 16 235q5 126 -2 187q-1 7 2.5 20t3.5 17q-4 217 -6 335q-4 136 -37 201q-2 0 -4.5 2t-5.5 2q-28 -24 -117 -43q-28 -43 -37.5 -104t-13 -134.5t-14.5 -117.5q4 -27 4 -38t-5.5 -39t-6.5 -38 q-3 -54 -9 -98q-5 -33 -6 -150t-14 -174zM301 1636q23 23 107 66q16 9 35.5 26t31.5 26t32.5 9.5t47.5 -16.5q35 -32 18 -70q-19 -11 -78 -54t-87 -54q-34 -14 -63.5 8.5t-43.5 58.5z" />
<glyph unicode="&#xd4;" horiz-adv-x="722" d="M0 328q12 251 33 372q41 219 63 461v45.5t4 55.5q5 35 22 95.5t21 80.5q4 4 25.5 31t38.5 36q79 19 115 21q8 0 25 -5t26 -5q17 -1 48.5 1t57 1t49.5 -9q22 -9 50.5 -27t39.5 -34q8 -10 24 -47.5t24 -48.5q3 -6 5 -15.5t1.5 -22.5t-1 -23t-2 -25t-1.5 -21q0 -9 5.5 -28.5 t4.5 -30.5q0 -6 -4.5 -17.5t-5.5 -15.5q-1 -15 4.5 -44.5t5.5 -43.5q2 -31 -4.5 -84.5t-5.5 -71.5q1 -10 7.5 -30.5t6.5 -32.5q0 -26 -3 -78t-3 -78q0 -9 4.5 -27t5.5 -24q0 -15 -5 -48t-5 -50q0 -9 1.5 -37t0.5 -43q0 -13 -10 -58q-1 -7 -2.5 -21.5t-2.5 -21.5t-4 -17.5 t-8 -18.5q7 -17 -1 -50.5t1 -40.5q-29 -85 -59 -133q-1 -1 -29 -12.5t-45 -19.5q-9 -5 -22.5 -17.5t-20.5 -15.5q-68 -39 -171.5 -41.5t-193.5 39.5t-108 121q-11 54 -2 174zM183.5 1562.5q-13.5 35.5 5.5 64.5q11 17 30 20q12 25 45.5 61t44.5 59q7 3 17 14t16 13 q32 11 59 -5.5t41 -45.5q39 -13 70 -53q11 2 21.5 -3.5t13.5 -5.5q23 -68 -21 -127q-36 1 -63.5 23.5t-54 52.5t-52.5 41q-52 -47 -67 -63q-4 -5 -17 -24t-23.5 -31t-19.5 -15q-32 -11 -45.5 24.5zM213 483q3 -35 2.5 -106.5t4 -130t20.5 -109.5q4 -4 13 -18.5t18 -21 t24 -7.5q9 7 23 11.5t33 7.5t28 6q12 17 22 37t17.5 44t13 41.5t11 48t8 44t8 47.5t6.5 43q12 75 16 235q5 126 -2 187q-1 7 2.5 20t3.5 17q-4 217 -6 335q-4 136 -37 201q-2 0 -4.5 2t-5.5 2q-28 -24 -117 -43q-28 -43 -37.5 -104t-13 -134.5t-14.5 -117.5q4 -27 4 -38 t-5.5 -39t-6.5 -38q-3 -54 -9 -98q-5 -33 -6 -150t-14 -174z" />
<glyph unicode="&#xd5;" horiz-adv-x="716" d="M0 328q12 251 33 372q41 219 63 461v45.5t4 55.5q5 35 22 95.5t21 80.5q4 4 25.5 31t38.5 36q79 19 115 21q8 0 25 -5t26 -5q17 -1 48.5 1t57 1t49.5 -9q22 -9 50.5 -27t39.5 -34q8 -10 24 -47.5t24 -48.5q3 -6 5 -15.5t1.5 -22.5t-1 -23t-2 -25t-1.5 -21q0 -9 5.5 -28.5 t4.5 -30.5q0 -6 -4.5 -17.5t-5.5 -15.5q-1 -15 4.5 -44.5t5.5 -43.5q2 -31 -4.5 -84.5t-5.5 -71.5q1 -10 7.5 -30.5t6.5 -32.5q0 -26 -3 -78t-3 -78q0 -9 4.5 -27t5.5 -24q0 -15 -5 -48t-5 -50q0 -9 1.5 -37t0.5 -43q0 -13 -10 -58q-1 -7 -2.5 -21.5t-2.5 -21.5t-4 -17.5 t-8 -18.5q7 -17 -1 -50.5t1 -40.5q-29 -85 -59 -133q-1 -1 -29 -12.5t-45 -19.5q-9 -5 -22.5 -17.5t-20.5 -15.5q-68 -39 -171.5 -41.5t-193.5 39.5t-108 121q-11 54 -2 174zM106 1591q-2 6 5.5 13.5t5.5 13.5q4 6 10.5 15t8.5 11t6 7t7 5t8 2.5t13 3.5t17 2.5t24.5 4.5 t32.5 6q31 -2 109 -17t134 -13q13 1 21.5 10t14 19t25 15.5t52.5 0.5q42 -9 72 -31q3 -3 0.5 -9t-2.5 -8.5t-5 -7.5l-6.5 -6.5t-7 -6t-6.5 -5.5q-29 -29 -43 -37q-6 -3 -18 -12t-23.5 -15t-21.5 -8q-6 -1 -26 0t-26 0q-19 -3 -97.5 22t-108.5 19q-8 -6 -15 -11t-12 -8.5 t-12.5 -7t-11 -5.5t-12 -5t-11.5 -4t-13.5 -3.5t-13 -3t-16 -3.5t-17.5 -4q-23 18 -26 29q-1 7 -9 17.5t-6 14.5zM213 483q3 -35 2.5 -106.5t4 -130t20.5 -109.5q4 -4 13 -18.5t18 -21t24 -7.5q9 7 23 11.5t33 7.5t28 6q12 17 22 37t17.5 44t13 41.5t11 48t8 44t8 47.5 t6.5 43q12 75 16 235q5 126 -2 187q-1 7 2.5 20t3.5 17q-4 217 -6 335q-4 136 -37 201q-2 0 -4.5 2t-5.5 2q-28 -24 -117 -43q-28 -43 -37.5 -104t-13 -134.5t-14.5 -117.5q4 -27 4 -38t-5.5 -39t-6.5 -38q-3 -54 -9 -98q-5 -33 -6 -150t-14 -174z" />
<glyph unicode="&#xd6;" horiz-adv-x="716" d="M0 328q12 251 33 372q41 219 63 461v45.5t4 55.5q5 35 22 95.5t21 80.5q4 4 25.5 31t38.5 36q79 19 115 21q8 0 25 -5t26 -5q17 -1 48.5 1t57 1t49.5 -9q22 -9 50.5 -27t39.5 -34q8 -10 24 -47.5t24 -48.5q3 -6 5 -15.5t1.5 -22.5t-1 -23t-2 -25t-1.5 -21q0 -9 5.5 -28.5 t4.5 -30.5q0 -6 -4.5 -17.5t-5.5 -15.5q-1 -15 4.5 -44.5t5.5 -43.5q2 -31 -4.5 -84.5t-5.5 -71.5q1 -10 7.5 -30.5t6.5 -32.5q0 -26 -3 -78t-3 -78q0 -9 4.5 -27t5.5 -24q0 -15 -5 -48t-5 -50q0 -9 1.5 -37t0.5 -43q0 -13 -10 -58q-1 -7 -2.5 -21.5t-2.5 -21.5t-4 -17.5 t-8 -18.5q7 -17 -1 -50.5t1 -40.5q-29 -85 -59 -133q-1 -1 -29 -12.5t-45 -19.5q-9 -5 -22.5 -17.5t-20.5 -15.5q-68 -39 -171.5 -41.5t-193.5 39.5t-108 121q-11 54 -2 174zM156.5 1685.5q0.5 22.5 15.5 36.5q22 17 60 8t57 -30q17 -85 -37 -131q-8 -5 -15.5 -6.5t-17 1 t-15 4.5t-17.5 7.5t-15 7.5q-1 14 -8.5 47t-7 55.5zM213 483q3 -35 2.5 -106.5t4 -130t20.5 -109.5q4 -4 13 -18.5t18 -21t24 -7.5q9 7 23 11.5t33 7.5t28 6q12 17 22 37t17.5 44t13 41.5t11 48t8 44t8 47.5t6.5 43q12 75 16 235q5 126 -2 187q-1 7 2.5 20t3.5 17 q-4 217 -6 335q-4 136 -37 201q-2 0 -4.5 2t-5.5 2q-28 -24 -117 -43q-28 -43 -37.5 -104t-13 -134.5t-14.5 -117.5q4 -27 4 -38t-5.5 -39t-6.5 -38q-3 -54 -9 -98q-5 -33 -6 -150t-14 -174zM418 1640q-5 50 19 73.5t58 17t60 -36.5q10 -89 -31 -127q-45 -25 -82 6 q-5 10 -11 24q-10 22 -12 37z" />
<glyph unicode="&#xd7;" horiz-adv-x="526" d="M16 416q3 24 22 52.5t39.5 49t50 48.5t40.5 40q-14 14 -68 62.5t-82 81.5q19 41 46.5 71t49.5 40t31 1l23 -23l27.5 -27.5t23 -24.5t26 -30.5t21.5 -29.5q22 19 56 60.5t65 68.5t70 37q40 -37 47 -123q-14 -23 -71.5 -65.5t-72.5 -71.5q40 -57 154 -154q-11 -8 -24 -33.5 t-35 -48t-62 -32.5q-16 24 -74.5 79.5t-70.5 71.5q-20 -17 -52 -59t-62 -72t-62 -35q-4 7 -27.5 25t-28.5 41z" />
<glyph unicode="&#xd9;" horiz-adv-x="763" d="M2 258.5q2 56.5 4 90t8 86.5t10.5 85t12.5 85.5t12 86.5q-2 32 0 68.5t6.5 82t5.5 72.5q2 17 0.5 66t-0.5 70q0 8 2 43t2.5 47.5t1 42.5t-1 47.5t-4 41.5t-6.5 44q10 31 3.5 63.5t-5 67t22.5 47.5q36 6 80.5 5t76.5 -21q1 -8 -6 -10.5t-8 -4.5q0 -70 3.5 -201.5t3 -240 t-8.5 -215.5q1 -4 1 -7.5v-4.5v-3t1.5 -3.5t3.5 -4.5q0 -2 3 -8.5t3 -9.5q-5 -54 1 -174t3 -176q-1 -14 -8.5 -46.5t-7.5 -47.5q0 -9 4.5 -56t-4.5 -61q12 -16 15.5 -51.5t17.5 -51.5q23 -25 57.5 -22t68 21.5t50.5 41.5q5 14 15 42.5t15.5 45t14 46t11 46t6.5 45t-1 42.5 q19 72 19 264q4 160 -2 248q16 107 -15 415q0 5 2.5 14.5t2.5 14.5q-1 12 -5.5 30.5t-5 26.5t5.5 25q-4 4 -7.5 19.5t-8.5 19.5q10 20 30 29.5t48 8.5t51 -4.5t55 -10.5t45 -9q5 -15 3.5 -37t-7.5 -32q6 -4 5 -50t-1 -53q1 -28 9 -99t8 -112q0 -26 -8 -76.5t-9 -72.5 q-1 -16 -3.5 -48.5t-3 -48.5t0.5 -49q12 -277 -20 -444q-3 -20 -14 -37q1 -37 -13 -77.5t-35.5 -86t-29.5 -69.5q-14 -6 -33 -27t-21 -23q-21 -7 -59 -24t-71 -27.5t-66 -11.5q-6 -1 -14.5 0t-20 3t-18.5 3q-4 0 -26.5 1.5l-30 2t-28 2.5t-29.5 4t-26 6t-26.5 9t-20.5 12 t-18 16q-19 9 -25 11q-8 15 -23.5 48.5t-23.5 49.5q-4 38 -2 94.5zM135 1655q2 24 11.5 40.5t21.5 22.5t26 8.5t22 1.5t11 -2q30 -24 98.5 -57t90.5 -47q13 -57 -58 -86q-26 -2 -54.5 6.5t-56 26t-46.5 31.5t-41.5 33.5t-24.5 21.5z" />
<glyph unicode="&#xda;" horiz-adv-x="755" d="M2 258.5q2 56.5 4 90t8 86.5t10.5 85t12.5 85.5t12 86.5q-2 32 0 68.5t6.5 82t5.5 72.5q2 17 0.5 66t-0.5 70q0 8 2 43t2.5 47.5t1 42.5t-1 47.5t-4 41.5t-6.5 44q10 31 3.5 63.5t-5 67t22.5 47.5q36 6 80.5 5t76.5 -21q1 -8 -6 -10.5t-8 -4.5q0 -70 3.5 -201.5t3 -240 t-8.5 -215.5q1 -4 1 -7.5v-4.5v-3t1.5 -3.5t3.5 -4.5q0 -2 3 -8.5t3 -9.5q-5 -54 1 -174t3 -176q-1 -14 -8.5 -46.5t-7.5 -47.5q0 -9 4.5 -56t-4.5 -61q12 -16 15.5 -51.5t17.5 -51.5q23 -25 57.5 -22t68 21.5t50.5 41.5q5 14 15 42.5t15.5 45t14 46t11 46t6.5 45t-1 42.5 q19 72 19 264q4 160 -2 248q16 107 -15 415q0 5 2.5 14.5t2.5 14.5q-1 12 -5.5 30.5t-5 26.5t5.5 25q-4 4 -7.5 19.5t-8.5 19.5q10 20 30 29.5t48 8.5t51 -4.5t55 -10.5t45 -9q5 -15 3.5 -37t-7.5 -32q6 -4 5 -50t-1 -53q1 -28 9 -99t8 -112q0 -26 -8 -76.5t-9 -72.5 q-1 -16 -3.5 -48.5t-3 -48.5t0.5 -49q12 -277 -20 -444q-3 -20 -14 -37q1 -37 -13 -77.5t-35.5 -86t-29.5 -69.5q-14 -6 -33 -27t-21 -23q-21 -7 -59 -24t-71 -27.5t-66 -11.5q-6 -1 -14.5 0t-20 3t-18.5 3q-4 0 -26.5 1.5l-30 2t-28 2.5t-29.5 4t-26 6t-26.5 9t-20.5 12 t-18 16q-19 9 -25 11q-8 15 -23.5 48.5t-23.5 49.5q-4 38 -2 94.5zM276 1602q8 8 17 15t22 14.5t20.5 11.5t25 12.5t22.5 11.5q16 9 35.5 26t31.5 26t32.5 9.5t47.5 -16.5q36 -33 19 -70q-19 -11 -78.5 -54t-87.5 -54q-34 -14 -63.5 9t-43.5 59z" />
<glyph unicode="&#xdb;" horiz-adv-x="757" d="M2 258.5q2 56.5 4 90t8 86.5t10.5 85t12.5 85.5t12 86.5q-2 32 0 68.5t6.5 82t5.5 72.5q2 17 0.5 66t-0.5 70q0 8 2 43t2.5 47.5t1 42.5t-1 47.5t-4 41.5t-6.5 44q10 31 3.5 63.5t-5 67t22.5 47.5q36 6 80.5 5t76.5 -21q1 -8 -6 -10.5t-8 -4.5q0 -70 3.5 -201.5t3 -240 t-8.5 -215.5q1 -4 1 -7.5v-4.5v-3t1.5 -3.5t3.5 -4.5q0 -2 3 -8.5t3 -9.5q-5 -54 1 -174t3 -176q-1 -14 -8.5 -46.5t-7.5 -47.5q0 -9 4.5 -56t-4.5 -61q12 -16 15.5 -51.5t17.5 -51.5q23 -25 57.5 -22t68 21.5t50.5 41.5q5 14 15 42.5t15.5 45t14 46t11 46t6.5 45t-1 42.5 q19 72 19 264q4 160 -2 248q16 107 -15 415q0 5 2.5 14.5t2.5 14.5q-1 12 -5.5 30.5t-5 26.5t5.5 25q-4 4 -7.5 19.5t-8.5 19.5q10 20 30 29.5t48 8.5t51 -4.5t55 -10.5t45 -9q5 -15 3.5 -37t-7.5 -32q6 -4 5 -50t-1 -53q1 -28 9 -99t8 -112q0 -26 -8 -76.5t-9 -72.5 q-1 -16 -3.5 -48.5t-3 -48.5t0.5 -49q12 -277 -20 -444q-3 -20 -14 -37q1 -37 -13 -77.5t-35.5 -86t-29.5 -69.5q-14 -6 -33 -27t-21 -23q-21 -7 -59 -24t-71 -27.5t-66 -11.5q-6 -1 -14.5 0t-20 3t-18.5 3q-4 0 -26.5 1.5l-30 2t-28 2.5t-29.5 4t-26 6t-26.5 9t-20.5 12 t-18 16q-19 9 -25 11q-8 15 -23.5 48.5t-23.5 49.5q-4 38 -2 94.5zM173.5 1562.5q-13.5 35.5 5.5 64.5q11 17 30 20q12 25 45.5 61t44.5 59q7 3 17 14t16 13q32 11 59 -5.5t41 -45.5q39 -13 70 -53q11 2 21.5 -3.5t13.5 -5.5q23 -68 -21 -127q-36 1 -63.5 23.5t-54 52.5 t-52.5 41q-52 -47 -67 -63q-4 -5 -17 -24t-23.5 -31t-19.5 -15q-32 -11 -45.5 24.5z" />
<glyph unicode="&#xdc;" horiz-adv-x="741" d="M2 258.5q2 56.5 4 90t8 86.5t10.5 85t12.5 85.5t12 86.5q-2 32 0 68.5t6.5 82t5.5 72.5q2 17 0.5 66t-0.5 70q0 8 2 43t2.5 47.5t1 42.5t-1 47.5t-4 41.5t-6.5 44q10 31 3.5 63.5t-5 67t22.5 47.5q36 6 80.5 5t76.5 -21q1 -8 -6 -10.5t-8 -4.5q0 -70 3.5 -201.5t3 -240 t-8.5 -215.5q1 -4 1 -7.5v-4.5v-3t1.5 -3.5t3.5 -4.5q0 -2 3 -8.5t3 -9.5q-5 -54 1 -174t3 -176q-1 -14 -8.5 -46.5t-7.5 -47.5q0 -9 4.5 -56t-4.5 -61q12 -16 15.5 -51.5t17.5 -51.5q23 -25 57.5 -22t68 21.5t50.5 41.5q5 14 15 42.5t15.5 45t14 46t11 46t6.5 45t-1 42.5 q19 72 19 264q4 160 -2 248q16 107 -15 415q0 5 2.5 14.5t2.5 14.5q-1 12 -5.5 30.5t-5 26.5t5.5 25q-4 4 -7.5 19.5t-8.5 19.5q10 20 30 29.5t48 8.5t51 -4.5t55 -10.5t45 -9q5 -15 3.5 -37t-7.5 -32q6 -4 5 -50t-1 -53q1 -28 9 -99t8 -112q0 -26 -8 -76.5t-9 -72.5 q-1 -16 -3.5 -48.5t-3 -48.5t0.5 -49q12 -277 -20 -444q-3 -20 -14 -37q1 -37 -13 -77.5t-35.5 -86t-29.5 -69.5q-14 -6 -33 -27t-21 -23q-21 -7 -59 -24t-71 -27.5t-66 -11.5q-6 -1 -14.5 0t-20 3t-18.5 3q-4 0 -26.5 1.5l-30 2t-28 2.5t-29.5 4t-26 6t-26.5 9t-20.5 12 t-18 16q-19 9 -25 11q-8 15 -23.5 48.5t-23.5 49.5q-4 38 -2 94.5zM152.5 1685.5q0.5 22.5 15.5 36.5q22 17 60 8t57 -30q17 -85 -37 -131q-8 -5 -15.5 -6.5t-17 1t-15 4.5t-17.5 7.5t-15 7.5q-1 14 -8.5 47t-7 55.5zM414 1640q-5 50 19 73.5t58 17t60 -36.5 q10 -89 -31 -127q-45 -25 -82 6q-5 10 -11 24q-10 22 -12 37z" />
<glyph unicode="&#xdd;" horiz-adv-x="710" d="M-8 1464q10 21 34 28.5t44 6t52 -7t40 -6.5q145 -269 194 -373q31 38 55 97.5t52 157t33 112.5q20 22 48.5 23.5t74 -13t53.5 -16.5q-1 -12 -7.5 -33t-7.5 -35q-18 -24 -56.5 -121t-78.5 -129q-4 -33 -13.5 -53t-29.5 -43q2 -14 0 -20t-9 -16.5t-9 -16.5q-3 -16 -4 -56 t-8 -61q-5 -18 -8 -38t-4.5 -57.5t-2.5 -48.5q-4 -47 -1.5 -149.5t1.5 -134.5q0 -8 -4 -22.5t-4 -22.5q-2 -15 0.5 -43t1.5 -39q-1 -7 -6.5 -22.5t-5.5 -24.5q-1 -5 2.5 -15t3.5 -16t-3 -21t-3 -22q-2 -42 12 -170q-4 -8 -21.5 -16t-21.5 -17q-25 8 -50.5 3.5t-44.5 -13.5 t-39.5 -8t-35.5 18q-10 12 -10 68q1 16 13.5 147.5t6.5 177.5q6 8 7.5 17.5t0 24t-1.5 18.5q1 6 5.5 16.5t5.5 16.5q2 19 0.5 56.5t-0.5 49.5q1 14 12.5 157.5t7.5 203.5q-129 290 -270 501zM-8 1464q10 21 34 28.5t44 6t52 -7t40 -6.5q145 -269 194 -373q31 38 55 97.5 t52 157t33 112.5q20 22 48.5 23.5t74 -13t53.5 -16.5q-1 -12 -7.5 -33t-7.5 -35q-18 -24 -56.5 -121t-78.5 -129q-4 -33 -13.5 -53t-29.5 -43q2 -14 0 -20t-9 -16.5t-9 -16.5q-3 -16 -4 -56t-8 -61q-5 -18 -8 -38t-4.5 -57.5t-2.5 -48.5q-4 -47 -1.5 -149.5t1.5 -134.5 q0 -8 -4 -22.5t-4 -22.5q-2 -15 0.5 -43t1.5 -39q-1 -7 -6.5 -22.5t-5.5 -24.5q-1 -5 2.5 -15t3.5 -16t-3 -21t-3 -22q-2 -42 12 -170q-4 -8 -21.5 -16t-21.5 -17q-25 8 -50.5 3.5t-44.5 -13.5t-39.5 -8t-35.5 18q-10 12 -10 68q1 16 13.5 147.5t6.5 177.5q6 8 7.5 17.5 t0 24t-1.5 18.5q1 6 5.5 16.5t5.5 16.5q2 19 0.5 56.5t-0.5 49.5q1 14 12.5 157.5t7.5 203.5q-129 290 -270 501zM256 1602q22 22 106 65q16 9 36 26t31.5 26t32.5 9.5t48 -16.5q35 -32 18 -70q-19 -11 -78.5 -54t-87.5 -54q-34 -14 -63 9t-43 59z" />
<glyph unicode="&#xdf;" horiz-adv-x="606" d="M10 469q7 49 9 101t1 127.5t0 111.5q0 249 13 545q-11 17 -2 62t6 65q18 19 51 28.5t59.5 10t67 -0.5t53.5 -1q3 0 8 -0.5t11 -1.5t12 -2.5t9.5 -3t2.5 -3.5q47 6 81 -9t71 -48q27 -24 35.5 -60.5t8 -100.5t1.5 -85q5 -51 6.5 -77.5t-0.5 -70.5t-17.5 -71t-43.5 -41 q11 -17 51.5 -41.5t50.5 -50.5q-2 -11 3 -28.5t7 -27t-6 -22.5q16 -64 13 -181.5t3 -209.5q4 -35 -5.5 -66t-19 -46t-34.5 -48q-17 -16 -41 -44t-46 -48.5t-50 -34.5q-119 -6 -146 72q16 13 56 36t65.5 46t38.5 55q6 17 9 48.5t3.5 75.5t0.5 50q-4 65 -2 119.5t-2 121 t-19 116.5q-64 -2 -89.5 6.5t-55.5 48.5q11 17 30.5 41t32 44.5t21.5 47.5q6 54 -3 256q-1 13 0.5 37t0.5 40.5t-7 26.5q-15 20 -47 22t-59 -5q-19 -36 -14.5 -117.5t-10.5 -120.5q7 -20 7 -42.5t-3.5 -49.5t-3.5 -41q-1 -25 -3 -163.5t-3 -164.5q-1 -13 -5.5 -37t-4.5 -34 q2 -46 2.5 -149.5t1.5 -133.5q9 -11 7 -47.5t11 -50.5q-3 -34 -2.5 -49.5t3.5 -47t4 -44.5q1 -11 5.5 -58.5t4.5 -70.5t-2.5 -59t-15.5 -58t-35 -33q-53 -5 -101 33q3 135 -16.5 344t-22.5 262z" />
<glyph unicode="&#xe0;" horiz-adv-x="671" d="M10 1260q-7 159 64 208q38 25 119 27.5t131 -10.5q5 -1 17.5 -6t18.5 -6q14 -2 38 -2.5t36 -2.5q4 -1 16.5 -6t20.5 -6q31 -10 49.5 -22.5t36.5 -40.5q26 -42 31.5 -115.5t1 -136.5t8.5 -131q-4 0 -7 -16.5t-3 -22.5q10 -140 10 -146q0 -10 5.5 -33.5t6.5 -35.5 q1 -10 -2 -30.5t-2 -29.5q1 -2 5.5 -9.5t4.5 -10.5q3 -10 9 -70q3 -85 0 -170q7 -20 3 -69.5t9 -69.5q-6 -10 -6.5 -20t2.5 -24t4 -20q1 -16 -4.5 -45.5t-7.5 -49t8 -48.5q-9 -3 -36.5 -14.5t-41 -16t-36.5 -9.5t-42 -1.5t-37 14.5q-1 48 2.5 137.5t3.5 135.5q1 11 5.5 42.5 t3.5 45.5q-4 35 -4 156q-1 2 -4.5 6.5t-5 6.5t-0.5 5.5t5 7.5q-18 22 -83 28.5t-93 -13.5q-16 5 -24.5 2.5t-24.5 -11t-26 -10.5q-3 -26 -1.5 -39t7 -39.5t6.5 -40.5q2 -14 0.5 -48t-0.5 -48q1 -5 5.5 -16.5t4.5 -16.5q5 -53 1 -96t-1.5 -98t16.5 -97q-9 -8 -30 -10.5 t-29 -5.5q-9 -3 -23.5 -12.5t-24 -15t-26.5 -9t-32 5.5q-7 3 -17 16.5t-16 18.5q6 26 2 80q0 13 4 43t4 47q-3 71 -5 226t-5 235q-2 58 -3 155t-3 156q-2 38 -9.5 130t-9.5 137zM102 1655q2 24 11.5 40.5t22 22.5t26 8.5t22 1.5t11.5 -2q30 -24 98 -57t90 -47q7 -30 -10 -52 t-47 -34q-26 -2 -55 6.5t-56.5 26t-46.5 31.5t-41.5 33.5t-24.5 21.5zM165.5 1285q-0.5 -17 1 -48.5t1.5 -44.5q0 -11 3 -96t-1 -97q-1 -23 3.5 -60.5t4.5 -45.5q7 -121 23 -186q48 5 250 10q-3 50 -13.5 271.5t-23.5 336.5q-10 7 -17.5 30.5t-21.5 26.5q-17 4 -65 -15.5 t-72 -16.5q-9 1 -22.5 8.5t-27.5 7.5q-12 -17 -17 -40.5t-5.5 -40.5z" />
<glyph unicode="&#xe1;" horiz-adv-x="669" d="M10 1260q-7 159 64 208q38 25 119 27.5t131 -10.5q5 -1 17.5 -6t18.5 -6q14 -2 38 -2.5t36 -2.5q4 -1 16.5 -6t20.5 -6q31 -10 49.5 -22.5t36.5 -40.5q26 -42 31.5 -115.5t1 -136.5t8.5 -131q-4 0 -7 -16.5t-3 -22.5q10 -140 10 -146q0 -10 5.5 -33.5t6.5 -35.5 q1 -10 -2 -30.5t-2 -29.5q1 -2 5.5 -9.5t4.5 -10.5q3 -10 9 -70q3 -85 0 -170q7 -20 3 -69.5t9 -69.5q-6 -10 -6.5 -20t2.5 -24t4 -20q1 -16 -4.5 -45.5t-7.5 -49t8 -48.5q-9 -3 -36.5 -14.5t-41 -16t-36.5 -9.5t-42 -1.5t-37 14.5q-1 48 2.5 137.5t3.5 135.5q1 11 5.5 42.5 t3.5 45.5q-4 35 -4 156q-1 2 -4.5 6.5t-5 6.5t-0.5 5.5t5 7.5q-18 22 -83 28.5t-93 -13.5q-16 5 -24.5 2.5t-24.5 -11t-26 -10.5q-3 -26 -1.5 -39t7 -39.5t6.5 -40.5q2 -14 0.5 -48t-0.5 -48q1 -5 5.5 -16.5t4.5 -16.5q5 -53 1 -96t-1.5 -98t16.5 -97q-9 -8 -30 -10.5 t-29 -5.5q-9 -3 -23.5 -12.5t-24 -15t-26.5 -9t-32 5.5q-7 3 -17 16.5t-16 18.5q6 26 2 80q0 13 4 43t4 47q-3 71 -5 226t-5 235q-2 58 -3 155t-3 156q-2 38 -9.5 130t-9.5 137zM147 1602q8 8 17 15t22 14.5t20.5 11.5t25 12.5t22.5 11.5q16 9 35.5 26t31.5 26t32.5 9.5 t47.5 -16.5q36 -33 19 -70q-19 -11 -78.5 -54t-87.5 -54q-34 -14 -63.5 9t-43.5 59zM165.5 1285q-0.5 -17 1 -48.5t1.5 -44.5q0 -11 3 -96t-1 -97q-1 -23 3.5 -60.5t4.5 -45.5q7 -121 23 -186q48 5 250 10q-3 50 -13.5 271.5t-23.5 336.5q-10 7 -17.5 30.5t-21.5 26.5 q-17 4 -65 -15.5t-72 -16.5q-9 1 -22.5 8.5t-27.5 7.5q-12 -17 -17 -40.5t-5.5 -40.5z" />
<glyph unicode="&#xe2;" horiz-adv-x="671" d="M10 1260q-7 159 64 208q38 25 119 27.5t131 -10.5q5 -1 17.5 -6t18.5 -6q14 -2 38 -2.5t36 -2.5q4 -1 16.5 -6t20.5 -6q31 -10 49.5 -22.5t36.5 -40.5q26 -42 31.5 -115.5t1 -136.5t8.5 -131q-4 0 -7 -16.5t-3 -22.5q10 -140 10 -146q0 -10 5.5 -33.5t6.5 -35.5 q1 -10 -2 -30.5t-2 -29.5q1 -2 5.5 -9.5t4.5 -10.5q3 -10 9 -70q3 -85 0 -170q7 -20 3 -69.5t9 -69.5q-6 -10 -6.5 -20t2.5 -24t4 -20q1 -16 -4.5 -45.5t-7.5 -49t8 -48.5q-9 -3 -36.5 -14.5t-41 -16t-36.5 -9.5t-42 -1.5t-37 14.5q-1 48 2.5 137.5t3.5 135.5q1 11 5.5 42.5 t3.5 45.5q-4 35 -4 156q-1 2 -4.5 6.5t-5 6.5t-0.5 5.5t5 7.5q-18 22 -83 28.5t-93 -13.5q-16 5 -24.5 2.5t-24.5 -11t-26 -10.5q-3 -26 -1.5 -39t7 -39.5t6.5 -40.5q2 -14 0.5 -48t-0.5 -48q1 -5 5.5 -16.5t4.5 -16.5q5 -53 1 -96t-1.5 -98t16.5 -97q-9 -8 -30 -10.5 t-29 -5.5q-9 -3 -23.5 -12.5t-24 -15t-26.5 -9t-32 5.5q-7 3 -17 16.5t-16 18.5q6 26 2 80q0 13 4 43t4 47q-3 71 -5 226t-5 235q-2 58 -3 155t-3 156q-2 38 -9.5 130t-9.5 137zM79 1541q-13 36 7 64q11 16 29 19q12 25 45.5 61.5t44.5 59.5q7 3 17 14t16 13q32 11 59 -6 t41 -46q39 -13 70 -53q10 1 14 0t10 -4t10 -4q24 -69 -20 -127q-36 1 -63.5 23.5t-54 52.5t-52.5 41q-52 -47 -68 -64q-4 -5 -16.5 -24t-23 -30.5t-19.5 -14.5q-33 -11 -46 25zM165.5 1285q-0.5 -17 1 -48.5t1.5 -44.5q0 -11 3 -96t-1 -97q-1 -23 3.5 -60.5t4.5 -45.5 q7 -121 23 -186q48 5 250 10q-3 50 -13.5 271.5t-23.5 336.5q-10 7 -17.5 30.5t-21.5 26.5q-17 4 -65 -15.5t-72 -16.5q-9 1 -22.5 8.5t-27.5 7.5q-12 -17 -17 -40.5t-5.5 -40.5z" />
<glyph unicode="&#xe3;" horiz-adv-x="671" d="M10 1260q-7 159 64 208q38 25 119 27.5t131 -10.5q5 -1 17.5 -6t18.5 -6q14 -2 38 -2.5t36 -2.5q4 -1 16.5 -6t20.5 -6q31 -10 49.5 -22.5t36.5 -40.5q26 -42 31.5 -115.5t1 -136.5t8.5 -131q-4 0 -7 -16.5t-3 -22.5q10 -140 10 -146q0 -10 5.5 -33.5t6.5 -35.5 q1 -10 -2 -30.5t-2 -29.5q1 -2 5.5 -9.5t4.5 -10.5q3 -10 9 -70q3 -85 0 -170q7 -20 3 -69.5t9 -69.5q-6 -10 -6.5 -20t2.5 -24t4 -20q1 -16 -4.5 -45.5t-7.5 -49t8 -48.5q-9 -3 -36.5 -14.5t-41 -16t-36.5 -9.5t-42 -1.5t-37 14.5q-1 48 2.5 137.5t3.5 135.5q1 11 5.5 42.5 t3.5 45.5q-4 35 -4 156q-1 2 -4.5 6.5t-5 6.5t-0.5 5.5t5 7.5q-18 22 -83 28.5t-93 -13.5q-16 5 -24.5 2.5t-24.5 -11t-26 -10.5q-3 -26 -1.5 -39t7 -39.5t6.5 -40.5q2 -14 0.5 -48t-0.5 -48q1 -5 5.5 -16.5t4.5 -16.5q5 -53 1 -96t-1.5 -98t16.5 -97q-9 -8 -30 -10.5 t-29 -5.5q-9 -3 -23.5 -12.5t-24 -15t-26.5 -9t-32 5.5q-7 3 -17 16.5t-16 18.5q6 26 2 80q0 13 4 43t4 47q-3 71 -5 226t-5 235q-2 58 -3 155t-3 156q-2 38 -9.5 130t-9.5 137zM12 1591q-2 6 5.5 13.5t5.5 13.5q4 6 10.5 15t8.5 11t6 7t7 5t8 2.5t13 3.5t17 2.5t24.5 4.5 t32.5 6q31 -2 109 -17t134 -13q13 1 21.5 10t14 19t25 15.5t52.5 0.5q42 -9 72 -31q3 -3 0.5 -9t-2.5 -8.5t-5 -7.5l-6.5 -6.5t-7 -6t-6.5 -5.5q-29 -29 -43 -37q-5 -3 -18 -12t-24.5 -15t-21.5 -8q-6 -1 -25.5 0t-25.5 0q-19 -3 -98 22t-109 19q-25 -19 -46 -29t-33 -13.5 t-54 -12.5q-23 18 -26 29q-1 7 -9 17.5t-6 14.5zM165.5 1285q-0.5 -17 1 -48.5t1.5 -44.5q0 -11 3 -96t-1 -97q-1 -23 3.5 -60.5t4.5 -45.5q7 -121 23 -186q48 5 250 10q-3 50 -13.5 271.5t-23.5 336.5q-10 7 -17.5 30.5t-21.5 26.5q-17 4 -65 -15.5t-72 -16.5 q-9 1 -22.5 8.5t-27.5 7.5q-12 -17 -17 -40.5t-5.5 -40.5z" />
<glyph unicode="&#xe4;" horiz-adv-x="669" d="M10 1260q-7 159 64 208q38 25 119 27.5t131 -10.5q5 -1 17.5 -6t18.5 -6q14 -2 38 -2.5t36 -2.5q4 -1 16.5 -6t20.5 -6q31 -10 49.5 -22.5t36.5 -40.5q26 -42 31.5 -115.5t1 -136.5t8.5 -131q-4 0 -7 -16.5t-3 -22.5q10 -140 10 -146q0 -10 5.5 -33.5t6.5 -35.5 q1 -10 -2 -30.5t-2 -29.5q1 -2 5.5 -9.5t4.5 -10.5q3 -10 9 -70q3 -85 0 -170q7 -20 3 -69.5t9 -69.5q-6 -10 -6.5 -20t2.5 -24t4 -20q1 -16 -4.5 -45.5t-7.5 -49t8 -48.5q-9 -3 -36.5 -14.5t-41 -16t-36.5 -9.5t-42 -1.5t-37 14.5q-1 48 2.5 137.5t3.5 135.5q1 11 5.5 42.5 t3.5 45.5q-4 35 -4 156q-1 2 -4.5 6.5t-5 6.5t-0.5 5.5t5 7.5q-18 22 -83 28.5t-93 -13.5q-16 5 -24.5 2.5t-24.5 -11t-26 -10.5q-3 -26 -1.5 -39t7 -39.5t6.5 -40.5q2 -14 0.5 -48t-0.5 -48q1 -5 5.5 -16.5t4.5 -16.5q5 -53 1 -96t-1.5 -98t16.5 -97q-9 -8 -30 -10.5 t-29 -5.5q-9 -3 -23.5 -12.5t-24 -15t-26.5 -9t-32 5.5q-7 3 -17 16.5t-16 18.5q6 26 2 80q0 13 4 43t4 47q-3 71 -5 226t-5 235q-2 58 -3 155t-3 156q-2 38 -9.5 130t-9.5 137zM82.5 1685.5q0.5 22.5 15.5 36.5q22 17 60 8t57 -30q17 -85 -37 -131q-8 -5 -15.5 -6.5t-17 1 t-15 4.5t-17.5 7.5t-15 7.5q-1 14 -8.5 47t-7 55.5zM165.5 1285q-0.5 -17 1 -48.5t1.5 -44.5q0 -11 3 -96t-1 -97q-1 -23 3.5 -60.5t4.5 -45.5q7 -121 23 -186q48 5 250 10q-3 50 -13.5 271.5t-23.5 336.5q-10 7 -17.5 30.5t-21.5 26.5q-17 4 -65 -15.5t-72 -16.5 q-9 1 -22.5 8.5t-27.5 7.5q-12 -17 -17 -40.5t-5.5 -40.5zM344 1640q-5 50 19 73.5t58 17t60 -36.5q10 -90 -30 -127q-45 -25 -82 6q-5 12 -10.5 23.5t-7 14t-3.5 8.5t-2.5 8.5t-1.5 12.5z" />
<glyph unicode="&#xe7;" horiz-adv-x="643" d="M6 491.5q2 123.5 9 321.5t5 309q0 54 -1.5 104.5t8 105.5t32.5 93q48 38 130.5 56t166 13.5t144.5 -28.5q20 -49 24 -55q-7 -28 -8.5 -81t-11 -91.5t-37.5 -62.5q-42 3 -67.5 22.5t-47.5 54.5q9 16 3 47t-5 39q-12 14 -49.5 17.5t-60.5 -6.5q-53 -38 -74 -84 q1 -17 -1.5 -53.5t-1 -63t10.5 -43.5q-6 -48 12 -115t33 -134t4 -120q-4 -28 -4 -59q1 -19 2 -59.5t2 -57.5q3 -62 17 -211t14 -219q3 -5 14 -16h25t27 1t22 4.5t22.5 12.5t16.5 23q5 10 8.5 20.5l6.5 19.5t5.5 21t4 19.5t3 20.5t2 19t1.5 20t1 18t0.5 19t0.5 17 q53 55 192 -22q-1 -38 -6.5 -71t-17.5 -81t-17 -72q-30 -27 -47.5 -41t-51.5 -29.5t-67 -15.5q-12 -9 -26.5 -40.5t-32.5 -38.5q-13 -49 -27 -58q9 -38 -19 -73.5t-65 -38.5q-7 -1 -14 0t-13 4.5t-10.5 6.5t-11 9.5t-9 10t-9 12t-8.5 10.5q10 35 33.5 95t31.5 85 q-39 0 -53 2q-98 15 -146 154q-16 210 -14 333.5z" />
<glyph unicode="&#xe8;" horiz-adv-x="538" d="M4 31q8 141 11 274.5t3 340v253.5q0 53 5 303q0 17 2 68.5t0.5 85.5t-7.5 59q0 1 -7 13.5t-7 19.5q0 10 4 19.5t12.5 21.5t10.5 16q9 1 25 3.5t25 3t28 -0.5q10 -2 27.5 -8t29 -10t27 -1.5t28.5 13.5q6 0 9.5 -6.5t5.5 -7.5q30 2 89.5 9.5t84 8.5t77.5 -4 q-6 -7 -22.5 -17t-24.5 -18q-1 -8 -3.5 -26t-4 -23.5l-4.5 -16.5t-8 -18t-12 -14q-131 32 -244 -18q1 -6 1 -12t-0.5 -10.5t1.5 -7.5t8 -3q-7 -22 -5 -33.5t8 -34t7 -34.5q1 -13 -1.5 -41.5t-0.5 -44.5q3 -48 3 -144.5t3 -136.5q56 -8 166.5 12t159.5 19q-2 -8 -8 -12.5 t-15.5 -8.5t-13.5 -6q6 -28 -3.5 -49.5t-31 -44t-28.5 -33.5q-26 -14 -113.5 -23.5t-116.5 -35.5q6 -182 -12 -383q9 -21 4.5 -72.5t5.5 -69.5q28 0 88 9t109.5 9t87.5 -18q2 -14 18 -27.5t19 -17.5q-9 -23 -35 -25.5t-31 -8.5q-116 -7 -260 -43q-11 -2 -33 -6.5t-36 -6.5 q-5 -1 -23.5 -5.5t-25.5 -5t-20 0.5t-21 9t-15 22zM6 1655q2 24 11.5 40.5t21.5 22.5t26 8.5t22 1.5t11 -2q30 -24 98.5 -57t90.5 -47q13 -57 -58 -86q-26 -2 -54.5 6.5t-56 26t-46.5 31.5t-41.5 33.5t-24.5 21.5z" />
<glyph unicode="&#xe9;" horiz-adv-x="544" d="M4 31q8 141 11 274.5t3 340v253.5q0 53 5 303q0 17 2 68.5t0.5 85.5t-7.5 59q0 1 -7 13.5t-7 19.5q0 10 4 19.5t12.5 21.5t10.5 16q9 1 25 3.5t25 3t28 -0.5q10 -2 27.5 -8t29 -10t27 -1.5t28.5 13.5q6 0 9.5 -6.5t5.5 -7.5q30 2 89.5 9.5t84 8.5t77.5 -4 q-6 -7 -22.5 -17t-24.5 -18q-1 -8 -3.5 -26t-4 -23.5l-4.5 -16.5t-8 -18t-12 -14q-131 32 -244 -18q1 -6 1 -12t-0.5 -10.5t1.5 -7.5t8 -3q-7 -22 -5 -33.5t8 -34t7 -34.5q1 -13 -1.5 -41.5t-0.5 -44.5q3 -48 3 -144.5t3 -136.5q56 -8 166.5 12t159.5 19q-2 -8 -8 -12.5 t-15.5 -8.5t-13.5 -6q6 -28 -3.5 -49.5t-31 -44t-28.5 -33.5q-26 -14 -113.5 -23.5t-116.5 -35.5q6 -182 -12 -383q9 -21 4.5 -72.5t5.5 -69.5q28 0 88 9t109.5 9t87.5 -18q2 -14 18 -27.5t19 -17.5q-9 -23 -35 -25.5t-31 -8.5q-116 -7 -260 -43q-11 -2 -33 -6.5t-36 -6.5 q-5 -1 -23.5 -5.5t-25.5 -5t-20 0.5t-21 9t-15 22zM147 1602q8 8 17 15t22 14.5t20.5 11.5t25 12.5t22.5 11.5q16 9 35.5 26t31.5 26t32.5 9.5t47.5 -16.5q36 -33 19 -70q-19 -11 -78.5 -54t-87.5 -54q-34 -14 -63.5 9t-43.5 59z" />
<glyph unicode="&#xea;" horiz-adv-x="542" d="M4 31q8 141 11 274.5t3 340v253.5q0 53 5 303q0 17 2 68.5t0.5 85.5t-7.5 59q0 1 -7 13.5t-7 19.5q0 10 4 19.5t12.5 21.5t10.5 16q9 1 25 3.5t25 3t28 -0.5q10 -2 27.5 -8t29 -10t27 -1.5t28.5 13.5q6 0 9.5 -6.5t5.5 -7.5q30 2 89.5 9.5t84 8.5t77.5 -4 q-6 -7 -22.5 -17t-24.5 -18q-1 -8 -3.5 -26t-4 -23.5l-4.5 -16.5t-8 -18t-12 -14q-131 32 -244 -18q1 -6 1 -12t-0.5 -10.5t1.5 -7.5t8 -3q-7 -22 -5 -33.5t8 -34t7 -34.5q1 -13 -1.5 -41.5t-0.5 -44.5q3 -48 3 -144.5t3 -136.5q56 -8 166.5 12t159.5 19q-2 -8 -8 -12.5 t-15.5 -8.5t-13.5 -6q6 -28 -3.5 -49.5t-31 -44t-28.5 -33.5q-26 -14 -113.5 -23.5t-116.5 -35.5q6 -182 -12 -383q9 -21 4.5 -72.5t5.5 -69.5q28 0 88 9t109.5 9t87.5 -18q2 -14 18 -27.5t19 -17.5q-9 -23 -35 -25.5t-31 -8.5q-116 -7 -260 -43q-11 -2 -33 -6.5t-36 -6.5 q-5 -1 -23.5 -5.5t-25.5 -5t-20 0.5t-21 9t-15 22zM79 1559q-13 36 7 64q11 16 29 19q12 25 45.5 61.5t44.5 59.5q7 3 17 14t16 13q32 11 59 -5.5t41 -45.5q39 -13 70 -53q11 2 21 -3.5t13 -5.5q24 -69 -20 -127q-36 1 -63.5 23.5t-54 52.5t-52.5 41q-58 -52 -68 -63 q-4 -5 -16.5 -24t-23 -31t-19.5 -15q-33 -11 -46 25z" />
<glyph unicode="&#xeb;" horiz-adv-x="550" d="M4 31q8 141 11 274.5t3 340v253.5q0 53 5 303q0 17 2 68.5t0.5 85.5t-7.5 59q0 1 -7 13.5t-7 19.5q0 10 4 19.5t12.5 21.5t10.5 16q9 1 25 3.5t25 3t28 -0.5q10 -2 27.5 -8t29 -10t27 -1.5t28.5 13.5q6 0 9.5 -6.5t5.5 -7.5q30 2 89.5 9.5t84 8.5t77.5 -4 q-6 -7 -22.5 -17t-24.5 -18q-1 -8 -3.5 -26t-4 -23.5l-4.5 -16.5t-8 -18t-12 -14q-131 32 -244 -18q1 -6 1 -12t-0.5 -10.5t1.5 -7.5t8 -3q-7 -22 -5 -33.5t8 -34t7 -34.5q1 -13 -1.5 -41.5t-0.5 -44.5q3 -48 3 -144.5t3 -136.5q56 -8 166.5 12t159.5 19q-2 -8 -8 -12.5 t-15.5 -8.5t-13.5 -6q6 -28 -3.5 -49.5t-31 -44t-28.5 -33.5q-26 -14 -113.5 -23.5t-116.5 -35.5q6 -182 -12 -383q9 -21 4.5 -72.5t5.5 -69.5q28 0 88 9t109.5 9t87.5 -18q2 -14 18 -27.5t19 -17.5q-9 -23 -35 -25.5t-31 -8.5q-116 -7 -260 -43q-11 -2 -33 -6.5t-36 -6.5 q-5 -1 -23.5 -5.5t-25.5 -5t-20 0.5t-21 9t-15 22zM43.5 1685.5q0.5 22.5 15.5 36.5q22 17 60 8t57 -30q17 -85 -37 -131q-8 -5 -15.5 -6.5t-17 1t-15 4.5t-17.5 7.5t-15 7.5q-1 14 -8.5 47t-7 55.5zM305 1640q-5 50 19 73.5t58 17t60 -36.5q10 -90 -30 -127q-45 -25 -82 6 q-5 12 -10.5 23.5t-7 14t-3.5 8.5t-2.5 8.5t-1.5 12.5z" />
<glyph unicode="&#xec;" horiz-adv-x="237" d="M-135 1655q2 24 11.5 40.5t21.5 22.5t26 8.5t22 1.5t11 -2q30 -24 98 -57t90 -47q7 -30 -10 -52t-47 -34q-26 -2 -54.5 6.5t-56 26t-46.5 31.5t-41.5 33.5t-24.5 21.5zM4 586q0 32 3 99t3 103q0 439 -6 660q35 45 160 10q16 -35 21 -76t5.5 -91.5t4.5 -80.5v-86 q-1 -36 7 -102t9 -94q0 -19 -4 -58.5t-4 -60.5q0 -74 -2 -111q-1 -9 2.5 -24.5t3.5 -22.5q0 -17 -5.5 -47t-6.5 -43q-2 -19 0 -62t0 -63q-2 -11 -10 -29t-9 -28q0 -17 3 -49.5t2.5 -57.5t-7.5 -47q17 -83 29 -182q0 -13 -50 -31t-83 -12q-11 2 -19 8.5t-16.5 18t-14.5 16.5 q-1 86 -8 266t-8 277z" />
<glyph unicode="&#xed;" horiz-adv-x="264" d="M4 586q0 32 3 99t3 103q0 439 -6 660q35 45 160 10q16 -35 21 -76t5.5 -91.5t4.5 -80.5v-86q-1 -36 7 -102t9 -94q0 -19 -4 -58.5t-4 -60.5q0 -74 -2 -111q-1 -9 2.5 -24.5t3.5 -22.5q0 -17 -5.5 -47t-6.5 -43q-2 -19 0 -62t0 -63q-2 -11 -10 -29t-9 -28q0 -17 3 -49.5 t2.5 -57.5t-7.5 -47q17 -83 29 -182q0 -13 -50 -31t-83 -12q-11 2 -19 8.5t-16.5 18t-14.5 16.5q-1 86 -8 266t-8 277zM18 1602q8 8 17 15t22 14.5t20.5 11.5t25 12.5t22.5 11.5q16 9 35.5 26t31.5 26t32.5 9.5t47.5 -16.5q36 -33 19 -70q-19 -11 -78.5 -54t-87.5 -54 q-34 -14 -63.5 9t-43.5 59z" />
<glyph unicode="&#xee;" horiz-adv-x="260" d="M-99 1541q-13 36 7 64q11 16 29 19q12 25 45.5 61.5t44.5 59.5q7 3 16.5 14t15.5 13q32 11 59.5 -6t41.5 -46q38 -13 69 -53q11 2 22 -3t13 -5q24 -69 -20 -127q-36 1 -63.5 23.5t-54 52.5t-52.5 41q-52 -47 -68 -64q-4 -5 -16.5 -24t-23 -30.5t-19.5 -14.5 q-33 -11 -46 25zM4 586q0 32 3 99t3 103q0 439 -6 660q35 45 160 10q16 -35 21 -76t5.5 -91.5t4.5 -80.5v-86q-1 -36 7 -102t9 -94q0 -19 -4 -58.5t-4 -60.5q0 -74 -2 -111q-1 -9 2.5 -24.5t3.5 -22.5q0 -17 -5.5 -47t-6.5 -43q-2 -19 0 -62t0 -63q-2 -11 -10 -29t-9 -28 q0 -17 3 -49.5t2.5 -57.5t-7.5 -47q17 -83 29 -182q0 -13 -50 -31t-83 -12q-11 2 -19 8.5t-16.5 18t-14.5 16.5q-1 86 -8 266t-8 277z" />
<glyph unicode="&#xef;" horiz-adv-x="264" d="M-81.5 1685.5q0.5 22.5 15.5 36.5q22 17 60 8t57 -30q17 -85 -37 -131q-8 -5 -15.5 -6.5t-17 1t-15 4.5t-17.5 7.5t-15 7.5q-1 14 -8.5 47t-7 55.5zM4 586q0 32 3 99t3 103q0 439 -6 660q35 45 160 10q16 -35 21 -76t5.5 -91.5t4.5 -80.5v-86q-1 -36 7 -102t9 -94 q0 -19 -4 -58.5t-4 -60.5q0 -74 -2 -111q-1 -9 2.5 -24.5t3.5 -22.5q0 -17 -5.5 -47t-6.5 -43q-2 -19 0 -62t0 -63q-2 -11 -10 -29t-9 -28q0 -17 3 -49.5t2.5 -57.5t-7.5 -47q17 -83 29 -182q0 -13 -50 -31t-83 -12q-11 2 -19 8.5t-16.5 18t-14.5 16.5q-1 86 -8 266t-8 277z M125 1640q-5 50 19 73.5t58 17t60 -36.5q10 -89 -31 -127q-45 -25 -81 6q-5 12 -10.5 23.5t-7 14t-3.5 8.5t-2.5 8.5t-1.5 12.5z" />
<glyph unicode="&#xf1;" horiz-adv-x="653" d="M-27 1497q0 6 0.5 14t0.5 11t1 6.5t3 4.5t6 2t10 1q107 59 323 63q11 0 35 -7t35 -7q15 1 38.5 8t42 13.5t41 6t40.5 -13.5q-19 -22 -60 -32q-8 -12 -32.5 -26.5t-30.5 -18.5q-5 2 -11.5 -0.5t-8.5 0.5q-7 -2 -25 -13t-29 -14q-24 -7 -75.5 -7t-63.5 -1q-5 -1 -22.5 -6 t-26.5 -4q-4 0 -8 1.5t-8.5 4.5t-8.5 4q-29 7 -87 1.5t-79 8.5zM5.5 1317q0.5 22 3 38t7.5 25q9 15 20.5 24.5t27.5 13.5t27.5 5.5t33.5 2t31 1.5q5 -3 7 -6.5t4 -10.5t3 -9q1 -3 20 -1.5t23 1.5q47 -68 94 -203q27 -81 39 -115q19 -49 39 -163t31 -156q6 14 9.5 31 t4.5 28.5t1.5 32.5t0.5 29q8 84 8 182q-1 9 2.5 23t3.5 20q-1 15 -6 46t-5.5 45t7.5 46q-13 30 -12.5 83t-15.5 79q3 8 1.5 24.5t6.5 24.5q39 10 96 -2.5t103 -34.5v-21.5v-15.5v-11.5v-8t-1 -8t-1.5 -9t-3 -12.5t-4.5 -16.5t-6.5 -23.5t-8.5 -31q-26 -200 -33 -310 q-1 -8 -5.5 -30t-4.5 -33q0 -3 3 -10.5t3 -10.5q0 -20 -7 -58.5t-9 -53.5q-2 -19 -2 -57t-2 -56q-1 -11 -3.5 -40.5t-3.5 -49.5q-1 -13 -9.5 -39t-10.5 -37q-2 -16 0 -46.5t0 -43.5q0 -5 -5.5 -14t-6.5 -13q-1 -2 1 -10.5t1 -13.5q0 -5 -4 -15t-4 -14q-2 -21 -3 -62.5 t-2 -51.5q-2 -28 7 -66.5t10 -56.5q-4 0 -21.5 -2.5t-26.5 -3.5t-24.5 -1.5t-29 1.5t-25.5 6q-53 165 -108 480.5t-85 438.5q-9 -30 -10.5 -61t2.5 -79t4 -63q2 -58 -2 -174q-6 -139 -6 -421q0 -16 2 -47.5t2 -60t-4 -56.5q-24 -24 -70.5 -32.5t-76.5 11.5q9 138 9.5 301.5 t-3.5 282t-12 312t-11 300.5q0 7 -1.5 32t-2.5 42t-0.5 39z" />
<glyph unicode="&#xf2;" d="M8 211q21 349 21 436q0 2 -3 6t-3 6q0 19 6 60t6 63q1 15 0 53t0 60q7 156 37 365q13 89 49 155q36 58 103.5 78.5t166.5 15.5q20 -1 58.5 -12t54.5 -12q5 0 17.5 2.5t17.5 1.5q3 -1 15 -7.5t21 -8.5q5 -1 22.5 -3.5t23.5 -5.5q18 -8 34 -40t23 -40q13 -64 14 -144.5 t-5 -140t-16.5 -150.5t-13.5 -134q-2 -7 5 -9.5t6 -8.5q-10 -31 -13.5 -73.5t-2.5 -78.5t-1 -78q0 -9 -5 -26t-5 -25q0 -110 27 -299q-3 -10 -11.5 -56t-19.5 -65q-26 -47 -49 -61q-16 -11 -34.5 -14.5t-46 -3t-42.5 -1.5q-8 0 -23.5 -7.5t-19.5 -8.5q-3 0 -13 2t-14 2 q-121 -9 -170 0q-11 2 -30 3.5t-23 2.5t-12 8.5t-13 8.5q-3 1 -11 0t-11 0q-7 3 -57 36q-22 21 -33.5 50.5t-1.5 56.5q-3 4 -12.5 18.5t-12.5 22.5zM207 1655q2 24 11.5 40.5t21.5 22.5t26 8.5t22 1.5t11 -2q30 -24 98 -57t90 -47q7 -30 -10 -52t-47 -34q-26 -2 -54.5 6.5 t-56 26t-46.5 31.5t-41.5 33.5t-24.5 21.5zM215 702q12 -87 5 -283.5t9 -287.5q7 -9 15 -27t16.5 -28.5t22.5 -14.5q29 -11 78.5 2.5t70.5 30.5q32 27 44.5 75.5t7.5 101t-10 113t-8.5 111.5t11.5 95q-5 17 -3 51t4 51.5t7 52t7 52.5q16 136 23 214t6 188.5t-19 193.5 q-12 -7 -24.5 -9t-31 -0.5t-28.5 0.5q-5 0 -16.5 -3.5t-16.5 -2.5q-7 2 -23.5 10t-25.5 7q-16 -1 -27 -11t-22.5 -28.5t-18.5 -26.5q-1 -7 1.5 -14.5t2.5 -11.5q-7 -9 -11 -20.5t-5 -19.5t-2 -22.5t-2 -21.5q-2 -10 -11.5 -52.5t-9.5 -64.5q0 -31 -5.5 -78t-6.5 -66 q-1 -6 2.5 -21t3.5 -22q0 -16 -4 -58.5t-2 -63.5q0 -2 1.5 -13.5t2 -14.5t1 -12.5t0 -14t-1 -12t-2.5 -13t-5 -11.5z" />
<glyph unicode="&#xf3;" d="M8 211q21 349 21 436q0 2 -3 6t-3 6q0 19 6 60t6 63q1 15 0 53t0 60q7 156 37 365q13 89 49 155q36 58 103.5 78.5t166.5 15.5q20 -1 58.5 -12t54.5 -12q5 0 17.5 2.5t17.5 1.5q3 -1 15 -7.5t21 -8.5q5 -1 22.5 -3.5t23.5 -5.5q18 -8 34 -40t23 -40q13 -64 14 -144.5 t-5 -140t-16.5 -150.5t-13.5 -134q-2 -7 5 -9.5t6 -8.5q-10 -31 -13.5 -73.5t-2.5 -78.5t-1 -78q0 -9 -5 -26t-5 -25q0 -110 27 -299q-3 -10 -11.5 -56t-19.5 -65q-26 -47 -49 -61q-16 -11 -34.5 -14.5t-46 -3t-42.5 -1.5q-8 0 -23.5 -7.5t-19.5 -8.5q-3 0 -13 2t-14 2 q-121 -9 -170 0q-11 2 -30 3.5t-23 2.5t-12 8.5t-13 8.5q-3 1 -11 0t-11 0q-7 3 -57 36q-22 21 -33.5 50.5t-1.5 56.5q-3 4 -12.5 18.5t-12.5 22.5zM215 702q12 -87 5 -283.5t9 -287.5q7 -9 15 -27t16.5 -28.5t22.5 -14.5q29 -11 78.5 2.5t70.5 30.5q32 27 44.5 75.5 t7.5 101t-10 113t-8.5 111.5t11.5 95q-5 17 -3 51t4 51.5t7 52t7 52.5q16 136 23 214t6 188.5t-19 193.5q-12 -7 -24.5 -9t-31 -0.5t-28.5 0.5q-5 0 -16.5 -3.5t-16.5 -2.5q-7 2 -23.5 10t-25.5 7q-16 -1 -27 -11t-22.5 -28.5t-18.5 -26.5q-1 -7 1.5 -14.5t2.5 -11.5 q-7 -9 -11 -20.5t-5 -19.5t-2 -22.5t-2 -21.5q-2 -10 -11.5 -52.5t-9.5 -64.5q0 -31 -5.5 -78t-6.5 -66q-1 -6 2.5 -21t3.5 -22q0 -16 -4 -58.5t-2 -63.5q0 -2 1.5 -13.5t2 -14.5t1 -12.5t0 -14t-1 -12t-2.5 -13t-5 -11.5zM301 1636q23 23 107 66q16 9 35.5 26t31.5 26 t32.5 9.5t47.5 -16.5q35 -32 18 -70q-19 -11 -78 -54t-87 -54q-34 -14 -63.5 8.5t-43.5 58.5z" />
<glyph unicode="&#xf4;" horiz-adv-x="716" d="M8 211q21 349 21 436q0 2 -3 6t-3 6q0 19 6 60t6 63q1 15 0 53t0 60q7 156 37 365q13 89 49 155q36 58 103.5 78.5t166.5 15.5q20 -1 58.5 -12t54.5 -12q5 0 17.5 2.5t17.5 1.5q3 -1 15 -7.5t21 -8.5q5 -1 22.5 -3.5t23.5 -5.5q18 -8 34 -40t23 -40q13 -64 14 -144.5 t-5 -140t-16.5 -150.5t-13.5 -134q-2 -7 5 -9.5t6 -8.5q-10 -31 -13.5 -73.5t-2.5 -78.5t-1 -78q0 -9 -5 -26t-5 -25q0 -110 27 -299q-3 -10 -11.5 -56t-19.5 -65q-26 -47 -49 -61q-16 -11 -34.5 -14.5t-46 -3t-42.5 -1.5q-8 0 -23.5 -7.5t-19.5 -8.5q-3 0 -13 2t-14 2 q-121 -9 -170 0q-11 2 -30 3.5t-23 2.5t-12 8.5t-13 8.5q-3 1 -11 0t-11 0q-7 3 -57 36q-22 21 -33.5 50.5t-1.5 56.5q-3 4 -12.5 18.5t-12.5 22.5zM183.5 1562.5q-13.5 35.5 5.5 64.5q11 17 30 20q12 25 45.5 61t44.5 59q7 3 17 14t16 13q32 11 59 -5.5t41 -45.5 q39 -13 70 -53q11 2 21.5 -3.5t13.5 -5.5q23 -68 -21 -127q-36 1 -63.5 23.5t-54 52.5t-52.5 41q-52 -47 -67 -63q-4 -5 -17 -24t-23.5 -31t-19.5 -15q-32 -11 -45.5 24.5zM215 702q12 -87 5 -283.5t9 -287.5q7 -9 15 -27t16.5 -28.5t22.5 -14.5q29 -11 78.5 2.5t70.5 30.5 q32 27 44.5 75.5t7.5 101t-10 113t-8.5 111.5t11.5 95q-5 17 -3 51t4 51.5t7 52t7 52.5q16 136 23 214t6 188.5t-19 193.5q-12 -7 -24.5 -9t-31 -0.5t-28.5 0.5q-5 0 -16.5 -3.5t-16.5 -2.5q-7 2 -23.5 10t-25.5 7q-16 -1 -27 -11t-22.5 -28.5t-18.5 -26.5q-1 -7 1.5 -14.5 t2.5 -11.5q-7 -9 -11 -20.5t-5 -19.5t-2 -22.5t-2 -21.5q-2 -10 -11.5 -52.5t-9.5 -64.5q0 -31 -5.5 -78t-6.5 -66q-1 -6 2.5 -21t3.5 -22q0 -16 -4 -58.5t-2 -63.5q0 -2 1.5 -13.5t2 -14.5t1 -12.5t0 -14t-1 -12t-2.5 -13t-5 -11.5z" />
<glyph unicode="&#xf5;" d="M8 211q21 349 21 436q0 2 -3 6t-3 6q0 19 6 60t6 63q1 15 0 53t0 60q7 156 37 365q13 89 49 155q36 58 103.5 78.5t166.5 15.5q20 -1 58.5 -12t54.5 -12q5 0 17.5 2.5t17.5 1.5q3 -1 15 -7.5t21 -8.5q5 -1 22.5 -3.5t23.5 -5.5q18 -8 34 -40t23 -40q13 -64 14 -144.5 t-5 -140t-16.5 -150.5t-13.5 -134q-2 -7 5 -9.5t6 -8.5q-10 -31 -13.5 -73.5t-2.5 -78.5t-1 -78q0 -9 -5 -26t-5 -25q0 -110 27 -299q-3 -10 -11.5 -56t-19.5 -65q-26 -47 -49 -61q-16 -11 -34.5 -14.5t-46 -3t-42.5 -1.5q-8 0 -23.5 -7.5t-19.5 -8.5q-3 0 -13 2t-14 2 q-121 -9 -170 0q-11 2 -30 3.5t-23 2.5t-12 8.5t-13 8.5q-3 1 -11 0t-11 0q-7 3 -57 36q-22 21 -33.5 50.5t-1.5 56.5q-3 4 -12.5 18.5t-12.5 22.5zM106 1591q-2 6 5.5 13.5t5.5 13.5q4 6 10.5 15t8.5 11t6 7t7 5t8 2.5t13 3.5t17 2.5t24.5 4.5t32.5 6q31 -2 109 -17 t134 -13q13 1 21.5 10t14 19t25 15.5t52.5 0.5q42 -9 72 -31q3 -3 0.5 -9t-2.5 -8.5t-5 -7.5l-6.5 -6.5t-7 -6t-6.5 -5.5q-29 -29 -43 -37q-6 -3 -18 -12t-23.5 -15t-21.5 -8q-6 -1 -26 0t-26 0q-19 -3 -97.5 22t-108.5 19q-8 -6 -15 -11t-12 -8.5t-12.5 -7t-11 -5.5t-12 -5 t-11.5 -4t-13.5 -3.5t-13 -3t-16 -3.5t-17.5 -4q-23 18 -26 29q-1 7 -9 17.5t-6 14.5zM215 702q12 -87 5 -283.5t9 -287.5q7 -9 15 -27t16.5 -28.5t22.5 -14.5q29 -11 78.5 2.5t70.5 30.5q32 27 44.5 75.5t7.5 101t-10 113t-8.5 111.5t11.5 95q-5 17 -3 51t4 51.5t7 52 t7 52.5q16 136 23 214t6 188.5t-19 193.5q-12 -7 -24.5 -9t-31 -0.5t-28.5 0.5q-5 0 -16.5 -3.5t-16.5 -2.5q-7 2 -23.5 10t-25.5 7q-16 -1 -27 -11t-22.5 -28.5t-18.5 -26.5q-1 -7 1.5 -14.5t2.5 -11.5q-7 -9 -11 -20.5t-5 -19.5t-2 -22.5t-2 -21.5q-2 -10 -11.5 -52.5 t-9.5 -64.5q0 -31 -5.5 -78t-6.5 -66q-1 -6 2.5 -21t3.5 -22q0 -16 -4 -58.5t-2 -63.5q0 -2 1.5 -13.5t2 -14.5t1 -12.5t0 -14t-1 -12t-2.5 -13t-5 -11.5z" />
<glyph unicode="&#xf6;" horiz-adv-x="727" d="M8 211q21 349 21 436q0 2 -3 6t-3 6q0 19 6 60t6 63q1 15 0 53t0 60q7 156 37 365q13 89 49 155q36 58 103.5 78.5t166.5 15.5q20 -1 58.5 -12t54.5 -12q5 0 17.5 2.5t17.5 1.5q3 -1 15 -7.5t21 -8.5q5 -1 22.5 -3.5t23.5 -5.5q18 -8 34 -40t23 -40q13 -64 14 -144.5 t-5 -140t-16.5 -150.5t-13.5 -134q-2 -7 5 -9.5t6 -8.5q-10 -31 -13.5 -73.5t-2.5 -78.5t-1 -78q0 -9 -5 -26t-5 -25q0 -110 27 -299q-3 -10 -11.5 -56t-19.5 -65q-26 -47 -49 -61q-16 -11 -34.5 -14.5t-46 -3t-42.5 -1.5q-8 0 -23.5 -7.5t-19.5 -8.5q-3 0 -13 2t-14 2 q-121 -9 -170 0q-11 2 -30 3.5t-23 2.5t-12 8.5t-13 8.5q-3 1 -11 0t-11 0q-7 3 -57 36q-22 21 -33.5 50.5t-1.5 56.5q-3 4 -12.5 18.5t-12.5 22.5zM166.5 1685.5q0.5 22.5 15.5 36.5q22 17 60 8t57 -30q17 -85 -37 -131q-8 -5 -15.5 -6.5t-17 1t-15 4.5t-17.5 7.5t-15 7.5 q-1 14 -8.5 47t-7 55.5zM215 702q12 -87 5 -283.5t9 -287.5q7 -9 15 -27t16.5 -28.5t22.5 -14.5q29 -11 78.5 2.5t70.5 30.5q32 27 44.5 75.5t7.5 101t-10 113t-8.5 111.5t11.5 95q-5 17 -3 51t4 51.5t7 52t7 52.5q16 136 23 214t6 188.5t-19 193.5q-12 -7 -24.5 -9 t-31 -0.5t-28.5 0.5q-5 0 -16.5 -3.5t-16.5 -2.5q-7 2 -23.5 10t-25.5 7q-16 -1 -27 -11t-22.5 -28.5t-18.5 -26.5q-1 -7 1.5 -14.5t2.5 -11.5q-7 -9 -11 -20.5t-5 -19.5t-2 -22.5t-2 -21.5q-2 -10 -11.5 -52.5t-9.5 -64.5q0 -31 -5.5 -78t-6.5 -66q-1 -6 2.5 -21t3.5 -22 q0 -16 -4 -58.5t-2 -63.5q0 -2 1.5 -13.5t2 -14.5t1 -12.5t0 -14t-1 -12t-2.5 -13t-5 -11.5zM428 1640q-5 50 19 73.5t58 17t60 -36.5q10 -90 -30 -127q-45 -25 -82 6q-5 12 -10.5 23.5t-7 14t-3.5 8.5t-2.5 8.5t-1.5 12.5z" />
<glyph unicode="&#xf7;" horiz-adv-x="641" d="M1 571.5q-1 13.5 8 28t18.5 24t30.5 29.5q8 7 12 11q22 9 50.5 10t52.5 -2.5t59 -9t57 -7.5q28 -1 73 4t81 10.5t73.5 5.5t58.5 -11q18 3 26.5 -15.5t6.5 -46.5q0 -8 -12 -22t-29 -29t-20 -19q-67 -9 -142.5 -10t-132 3t-134 9.5t-128.5 6.5q-8 17 -9 30.5zM182 379.5 q1 19.5 19 48.5q7 12 21 15.5t27 1.5t27 1q95 25 103 -30q9 -91 -27 -105q-17 -6 -50.5 -8.5t-68 4t-40.5 25.5q-12 28 -11 47.5zM225.5 792.5q-2.5 16.5 0.5 25.5t10.5 24t9.5 20q26 28 70 33t73 -23q14 -12 9.5 -71.5t-29.5 -71.5q-84 5 -129 31q-12 16 -14.5 32.5z" />
<glyph unicode="&#xf9;" horiz-adv-x="720" d="M2 262q4 60 18 191t19 194q4 51 15.5 173.5t17 204.5t6.5 165q3 118 -12 297q36 45 159 10q2 -28 -10 -95.5t0 -82.5q-6 -4 -5 -83t1 -89q0 -107 16 -170q-9 -73 -6 -164q1 -31 -4 -96t-6 -92q0 -176 -2 -211q-2 -26 -7.5 -70t-8 -67.5t-3.5 -63.5t5 -57q14 -60 47 -80 q161 12 223 33q13 25 20.5 58.5t9.5 58.5t4.5 68.5t4.5 65.5q1 3 5.5 15.5t4.5 19.5q1 6 -2.5 21.5t-3.5 21.5q-2 29 -1.5 103.5t-2.5 103.5q-4 48 -11 140.5t-11.5 149t-13 130.5t-17.5 129q2 60 1 89t-6 91.5t-6 91.5q24 26 82 17l5 -1q5 0 10 -1.5t8 -3.5q53 -15 96 -17 q2 -6 -1 -21t-3 -28t10 -18q-8 -9 -8.5 -20t3.5 -27t5 -23q1 -4 -2.5 -15.5t-3.5 -15.5q-1 -14 1.5 -39t2.5 -32q-5 -153 -4 -185q1 -25 10 -71.5t11 -61.5q3 -26 1.5 -77t0.5 -83q1 -8 7 -24.5t7 -24.5q2 -12 0.5 -43t-0.5 -43q6 -93 7.5 -175.5t-17 -170.5t-58.5 -160 q-14 -4 -23.5 -18t-11.5 -16q-13 -10 -33 -18t-37 -13t-47 -10t-46 -7t-52.5 -6.5t-48.5 -5.5q-8 -1 -34.5 -6t-40.5 -4q-133 10 -195 78q-28 31 -36 73.5t-3 112.5zM135 1655q2 24 11.5 40.5t21.5 22.5t26 8.5t22 1.5t11 -2q30 -24 98.5 -57t90.5 -47q13 -57 -58 -86 q-26 -2 -54.5 6.5t-56 26t-46.5 31.5t-41.5 33.5t-24.5 21.5z" />
<glyph unicode="&#xfa;" d="M2 262q4 60 18 191t19 194q4 51 15.5 173.5t17 204.5t6.5 165q3 118 -12 297q36 45 159 10q2 -28 -10 -95.5t0 -82.5q-6 -4 -5 -83t1 -89q0 -107 16 -170q-9 -73 -6 -164q1 -31 -4 -96t-6 -92q0 -176 -2 -211q-2 -26 -7.5 -70t-8 -67.5t-3.5 -63.5t5 -57q14 -60 47 -80 q161 12 223 33q13 25 20.5 58.5t9.5 58.5t4.5 68.5t4.5 65.5q1 3 5.5 15.5t4.5 19.5q1 6 -2.5 21.5t-3.5 21.5q-2 29 -1.5 103.5t-2.5 103.5q-4 48 -11 140.5t-11.5 149t-13 130.5t-17.5 129q2 60 1 89t-6 91.5t-6 91.5q24 26 82 17l5 -1q5 0 10 -1.5t8 -3.5q53 -15 96 -17 q2 -6 -1 -21t-3 -28t10 -18q-8 -9 -8.5 -20t3.5 -27t5 -23q1 -4 -2.5 -15.5t-3.5 -15.5q-1 -14 1.5 -39t2.5 -32q-5 -153 -4 -185q1 -25 10 -71.5t11 -61.5q3 -26 1.5 -77t0.5 -83q1 -8 7 -24.5t7 -24.5q2 -12 0.5 -43t-0.5 -43q6 -93 7.5 -175.5t-17 -170.5t-58.5 -160 q-14 -4 -23.5 -18t-11.5 -16q-13 -10 -33 -18t-37 -13t-47 -10t-46 -7t-52.5 -6.5t-48.5 -5.5q-8 -1 -34.5 -6t-40.5 -4q-133 10 -195 78q-28 31 -36 73.5t-3 112.5zM270 1602q8 8 17 15t22 14.5t20.5 11.5t25 12.5t22.5 11.5q16 9 35.5 26t31.5 26t32.5 9.5t47.5 -16.5 q36 -33 19 -70q-19 -11 -78.5 -54t-87.5 -54q-34 -14 -63.5 9t-43.5 59z" />
<glyph unicode="&#xfb;" horiz-adv-x="716" d="M2 262q4 60 18 191t19 194q4 51 15.5 173.5t17 204.5t6.5 165q3 118 -12 297q36 45 159 10q2 -28 -10 -95.5t0 -82.5q-6 -4 -5 -83t1 -89q0 -107 16 -170q-9 -73 -6 -164q1 -31 -4 -96t-6 -92q0 -176 -2 -211q-2 -26 -7.5 -70t-8 -67.5t-3.5 -63.5t5 -57q14 -60 47 -80 q161 12 223 33q13 25 20.5 58.5t9.5 58.5t4.5 68.5t4.5 65.5q1 3 5.5 15.5t4.5 19.5q1 6 -2.5 21.5t-3.5 21.5q-2 29 -1.5 103.5t-2.5 103.5q-4 48 -11 140.5t-11.5 149t-13 130.5t-17.5 129q2 60 1 89t-6 91.5t-6 91.5q24 26 82 17l5 -1q5 0 10 -1.5t8 -3.5q53 -15 96 -17 q2 -6 -1 -21t-3 -28t10 -18q-8 -9 -8.5 -20t3.5 -27t5 -23q1 -4 -2.5 -15.5t-3.5 -15.5q-1 -14 1.5 -39t2.5 -32q-5 -153 -4 -185q1 -25 10 -71.5t11 -61.5q3 -26 1.5 -77t0.5 -83q1 -8 7 -24.5t7 -24.5q2 -12 0.5 -43t-0.5 -43q6 -93 7.5 -175.5t-17 -170.5t-58.5 -160 q-14 -4 -23.5 -18t-11.5 -16q-13 -10 -33 -18t-37 -13t-47 -10t-46 -7t-52.5 -6.5t-48.5 -5.5q-8 -1 -34.5 -6t-40.5 -4q-133 10 -195 78q-28 31 -36 73.5t-3 112.5zM173.5 1562.5q-13.5 35.5 5.5 64.5q11 17 30 20q12 25 45.5 61t44.5 59q7 3 17 14t16 13q32 11 59 -5.5 t41 -45.5q39 -13 70 -53q11 2 21.5 -3.5t13.5 -5.5q23 -68 -21 -127q-36 1 -63.5 23.5t-54 52.5t-52.5 41q-52 -47 -67 -63q-4 -5 -17 -24t-23.5 -31t-19.5 -15q-32 -11 -45.5 24.5z" />
<glyph unicode="&#xfc;" horiz-adv-x="720" d="M2 262q4 60 18 191t19 194q4 51 15.5 173.5t17 204.5t6.5 165q3 118 -12 297q36 45 159 10q2 -28 -10 -95.5t0 -82.5q-6 -4 -5 -83t1 -89q0 -107 16 -170q-9 -73 -6 -164q1 -31 -4 -96t-6 -92q0 -176 -2 -211q-2 -26 -7.5 -70t-8 -67.5t-3.5 -63.5t5 -57q14 -60 47 -80 q161 12 223 33q13 25 20.5 58.5t9.5 58.5t4.5 68.5t4.5 65.5q1 3 5.5 15.5t4.5 19.5q1 6 -2.5 21.5t-3.5 21.5q-2 29 -1.5 103.5t-2.5 103.5q-4 48 -11 140.5t-11.5 149t-13 130.5t-17.5 129q2 60 1 89t-6 91.5t-6 91.5q24 26 82 17l5 -1q5 0 10 -1.5t8 -3.5q53 -15 96 -17 q2 -6 -1 -21t-3 -28t10 -18q-8 -9 -8.5 -20t3.5 -27t5 -23q1 -4 -2.5 -15.5t-3.5 -15.5q-1 -14 1.5 -39t2.5 -32q-5 -153 -4 -185q1 -25 10 -71.5t11 -61.5q3 -26 1.5 -77t0.5 -83q1 -8 7 -24.5t7 -24.5q2 -12 0.5 -43t-0.5 -43q6 -93 7.5 -175.5t-17 -170.5t-58.5 -160 q-14 -4 -23.5 -18t-11.5 -16q-13 -10 -33 -18t-37 -13t-47 -10t-46 -7t-52.5 -6.5t-48.5 -5.5q-8 -1 -34.5 -6t-40.5 -4q-133 10 -195 78q-28 31 -36 73.5t-3 112.5zM152.5 1685.5q0.5 22.5 15.5 36.5q22 17 60 8t57 -30q17 -85 -37 -131q-8 -5 -15.5 -6.5t-17 1t-15 4.5 t-17.5 7.5t-15 7.5q-1 14 -8.5 47t-7 55.5zM414 1640q-5 50 19 73.5t58 17t60 -36.5q10 -89 -31 -127q-45 -25 -82 6q-5 10 -11 24q-10 22 -12 37z" />
<glyph unicode="&#xfd;" horiz-adv-x="694" d="M-14 1452q-1 18 15.5 27t38 10t48.5 3.5t41 8.5q8 -7 34.5 -11t31.5 -5q-3 -16 9.5 -49t12.5 -47q33 -47 78 -152t59 -131q30 52 53.5 111.5t55.5 156.5t41 123q49 41 158 -12q12 -53 -19 -144q-8 -47 -18 -65q-2 -5 -11 -19t-16 -28t-10 -25q-2 -6 -2 -18t-2 -17 q-6 -22 -31.5 -64.5t-28.5 -76.5q-11 -9 -23 -35t-20 -35q-1 -14 -6 -26.5t-13.5 -28.5t-12.5 -24t-10.5 -27t-10.5 -27q-1 -3 -8 -9.5t-8 -10.5q-3 -10 -2.5 -31t-1.5 -31q-1 -5 -6.5 -12.5t-6.5 -11.5q-3 -9 -3 -30t-1 -25q-1 -13 -7 -36t-7 -32q-4 -47 -17.5 -143 t-17.5 -146q-2 -17 -0.5 -61.5t0.5 -63.5q-1 -6 -5.5 -17.5t-4.5 -17.5q-1 -14 5 -45.5t6.5 -50t-11.5 -47.5q-28 5 -68.5 -3.5t-73.5 -8.5t-59 22q3 34 4 133t10 152q8 49 22 168t23 176q26 127 31 156q2 10 3.5 31.5t5 38t12.5 30.5q-20 32 -46 111.5t-38 105.5 q-59 133 -146 301q-4 5 -11 11t-11 11.5t-4 12.5zM256 1602q22 22 106 65q16 9 36 26t31.5 26t32.5 9.5t48 -16.5q35 -32 18 -70q-19 -11 -78.5 -54t-87.5 -54q-34 -14 -63 9t-43 59z" />
<glyph unicode="&#xff;" horiz-adv-x="700" d="M-14 1452q-1 18 15.5 27t38 10t48.5 3.5t41 8.5q8 -7 34.5 -11t31.5 -5q-3 -16 9.5 -49t12.5 -47q33 -47 78 -152t59 -131q30 52 53.5 111.5t55.5 156.5t41 123q49 41 158 -12q12 -53 -19 -144q-8 -47 -18 -65q-2 -5 -11 -19t-16 -28t-10 -25q-2 -6 -2 -18t-2 -17 q-6 -22 -31.5 -64.5t-28.5 -76.5q-11 -9 -23 -35t-20 -35q-1 -14 -6 -26.5t-13.5 -28.5t-12.5 -24t-10.5 -27t-10.5 -27q-1 -3 -8 -9.5t-8 -10.5q-3 -10 -2.5 -31t-1.5 -31q-1 -5 -6.5 -12.5t-6.5 -11.5q-3 -9 -3 -30t-1 -25q-1 -13 -7 -36t-7 -32q-4 -47 -17.5 -143 t-17.5 -146q-2 -17 -0.5 -61.5t0.5 -63.5q-1 -6 -5.5 -17.5t-4.5 -17.5q-1 -14 5 -45.5t6.5 -50t-11.5 -47.5q-28 5 -68.5 -3.5t-73.5 -8.5t-59 22q3 34 4 133t10 152q8 49 22 168t23 176q26 127 31 156q2 10 3.5 31.5t5 38t12.5 30.5q-20 32 -46 111.5t-38 105.5 q-59 133 -146 301q-4 5 -11 11t-11 11.5t-4 12.5zM152.5 1685.5q0.5 22.5 15.5 36.5q22 17 60 8t57 -30q17 -85 -37 -131q-8 -5 -15.5 -6.5t-17 1t-15 4.5t-17.5 7.5t-15 7.5q-1 14 -8.5 47t-7 55.5zM414 1640q-5 50 19 73.5t58 17t60 -36.5q10 -89 -31 -127q-45 -25 -82 6 q-5 10 -11 24q-10 22 -12 37z" />
<glyph unicode="&#x178;" horiz-adv-x="704" d="M-8 1464q10 21 34 28.5t44 6t52 -7t40 -6.5q145 -269 194 -373q31 38 55 97.5t52 157t33 112.5q20 22 48.5 23.5t74 -13t53.5 -16.5q-1 -12 -7.5 -33t-7.5 -35q-18 -24 -56.5 -121t-78.5 -129q-4 -33 -13.5 -53t-29.5 -43q2 -14 0 -20t-9 -16.5t-9 -16.5q-3 -16 -4 -56 t-8 -61q-5 -18 -8 -38t-4.5 -57.5t-2.5 -48.5q-4 -47 -1.5 -149.5t1.5 -134.5q0 -8 -4 -22.5t-4 -22.5q-2 -15 0.5 -43t1.5 -39q-1 -7 -6.5 -22.5t-5.5 -24.5q-1 -5 2.5 -15t3.5 -16t-3 -21t-3 -22q-2 -42 12 -170q-4 -8 -21.5 -16t-21.5 -17q-25 8 -50.5 3.5t-44.5 -13.5 t-39.5 -8t-35.5 18q-10 12 -10 68q1 16 13.5 147.5t6.5 177.5q6 8 7.5 17.5t0 24t-1.5 18.5q1 6 5.5 16.5t5.5 16.5q2 19 0.5 56.5t-0.5 49.5q1 14 12.5 157.5t7.5 203.5q-129 290 -270 501zM156.5 1685.5q0.5 22.5 15.5 36.5q22 17 60 8t57 -30q17 -85 -37 -131 q-8 -5 -15.5 -6.5t-17 1t-15 4.5t-17.5 7.5t-15 7.5q-1 14 -8.5 47t-7 55.5zM418 1640q-5 50 19 73.5t58 17t60 -36.5q10 -89 -31 -127q-45 -25 -82 6q-5 10 -11 24q-10 22 -12 37z" />
<glyph unicode="&#x2c6;" horiz-adv-x="387" d="M5.5 1562.5q-13.5 35.5 5.5 64.5q11 17 30 20q12 25 45.5 61t44.5 59q7 3 17 14t16 13q32 11 59 -5.5t41 -45.5q39 -13 70 -53q11 2 21.5 -3.5t13.5 -5.5q23 -68 -21 -127q-36 1 -63.5 23.5t-54 52.5t-52.5 41q-52 -47 -67 -63q-4 -5 -17 -24t-23.5 -31t-19.5 -15 q-32 -11 -45.5 24.5z" />
<glyph unicode="&#x2dc;" horiz-adv-x="567" d="M-2 1591q-2 6 5 13.5t5 13.5q4 6 10.5 15t8.5 11t6 7t7 5t8 2.5t13 3.5t17 2.5t24.5 4.5t32.5 6q31 -2 109.5 -17t134.5 -13q13 1 21.5 10t14 19t25 15.5t52.5 0.5q41 -8 71 -31q0 -6 1.5 -8.5t-1.5 -7t-3.5 -6.5t-5 -6t-6 -5.5t-6 -5t-5.5 -4.5q-29 -29 -43 -37 q-5 -3 -18 -12t-24.5 -15t-21.5 -8q-6 -1 -25.5 0t-25.5 0q-19 -3 -98 22t-109 19q-25 -19 -46 -29t-33 -13.5t-54 -12.5q-1 1 -7.5 5.5t-9 7t-6 7t-4.5 9.5q-1 7 -8.5 17.5t-5.5 14.5z" />
<glyph unicode="&#x2000;" horiz-adv-x="899" />
<glyph unicode="&#x2001;" horiz-adv-x="1798" />
<glyph unicode="&#x2002;" horiz-adv-x="899" />
<glyph unicode="&#x2003;" horiz-adv-x="1798" />
<glyph unicode="&#x2004;" horiz-adv-x="599" />
<glyph unicode="&#x2005;" horiz-adv-x="449" />
<glyph unicode="&#x2006;" horiz-adv-x="299" />
<glyph unicode="&#x2007;" horiz-adv-x="299" />
<glyph unicode="&#x2008;" horiz-adv-x="224" />
<glyph unicode="&#x2009;" horiz-adv-x="359" />
<glyph unicode="&#x200a;" horiz-adv-x="99" />
<glyph unicode="&#x2010;" horiz-adv-x="606" d="M2 598q0 8 12 22t29 29t20 19q67 9 142.5 10t132 -3t134 -9.5t128.5 -6.5q-6 -9 -32 -18.5t-31 -24.5q3 -7 15.5 -14t14.5 -14q-1 -15 -12.5 -31t-13.5 -20q-22 -9 -51 -10t-52 2.5t-58.5 8.5t-57.5 7q-28 1 -82.5 -1.5t-91.5 0.5t-64 17q-25 -4 -54 5t-28 32z" />
<glyph unicode="&#x2011;" horiz-adv-x="606" d="M2 598q0 8 12 22t29 29t20 19q67 9 142.5 10t132 -3t134 -9.5t128.5 -6.5q-6 -9 -32 -18.5t-31 -24.5q3 -7 15.5 -14t14.5 -14q-1 -15 -12.5 -31t-13.5 -20q-22 -9 -51 -10t-52 2.5t-58.5 8.5t-57.5 7q-28 1 -82.5 -1.5t-91.5 0.5t-64 17q-25 -4 -54 5t-28 32z" />
<glyph unicode="&#x2012;" horiz-adv-x="606" d="M2 598q0 8 12 22t29 29t20 19q67 9 142.5 10t132 -3t134 -9.5t128.5 -6.5q-6 -9 -32 -18.5t-31 -24.5q3 -7 15.5 -14t14.5 -14q-1 -15 -12.5 -31t-13.5 -20q-22 -9 -51 -10t-52 2.5t-58.5 8.5t-57.5 7q-28 1 -82.5 -1.5t-91.5 0.5t-64 17q-25 -4 -54 5t-28 32z" />
<glyph unicode="&#x2013;" horiz-adv-x="1031" d="M1 598q0 8 20.5 22t49.5 29t35 19q114 9 243.5 10t226 -3t229.5 -9.5t220 -6.5q-10 -9 -54.5 -18.5t-53.5 -24.5q5 -7 26.5 -14t24.5 -14q-1 -15 -21 -31t-23 -20q-38 -9 -87.5 -10t-89 2.5t-100 8.5t-98.5 7q-48 1 -141.5 -1.5t-156.5 0.5t-110 17q-42 -4 -92 5t-48 32z " />
<glyph unicode="&#x2014;" horiz-adv-x="991" d="M31 535q-73 123 39 137q102 -7 280.5 2t336.5 7.5t276 -32.5q19 -11 19.5 -29t-9 -31.5t-21.5 -23.5q-11 -28 -30.5 -34t-57.5 1q-66 6 -138 6.5t-154 -2t-132 -1.5q-47 1 -135 -3.5t-141 -6t-133 9.5z" />
<glyph unicode="&#x2018;" horiz-adv-x="178" d="M14 1380q-1 9 4 24.5t5 22.5q0 9 -3.5 25t-3.5 28t7 21q36 23 98 2q39 -60 31 -182q-1 -17 2 -33t9 -35.5t9 -31.5q-8 -13 -16.5 -18t-17.5 -0.5t-16 10.5t-17.5 17.5t-16.5 16.5q-4 4 -19.5 12t-19.5 15q-9 13 -20 48.5t-15 57.5z" />
<glyph unicode="&#x2019;" horiz-adv-x="174" d="M8 1262q-1 18 13.5 36.5t15.5 34.5q5 6 -1 13t-5 14q15 22 17 78.5t13 72.5q27 7 58 2.5t45 -18.5q9 -108 -33 -188q-11 -3 -24.5 -13t-24.5 -20t-22.5 -18.5t-25 -7.5t-26.5 14z" />
<glyph unicode="&#x201c;" horiz-adv-x="313" d="M14 1380q-1 9 4 24.5t5 22.5q0 9 -3.5 25t-3.5 28t7 21q36 23 98 2q15 -24 15 -90.5t16 -91.5q-10 -9 -8.5 -23.5t6 -24t12.5 -25.5t10 -27q-8 -13 -16.5 -18t-17.5 -0.5t-16 10.5t-17.5 17.5t-16.5 16.5q-4 4 -19.5 12t-19.5 15q-9 13 -20 48.5t-15 57.5zM166 1360 q-7 60 6 121q99 29 109 -27q4 -25 1 -50.5t-2 -56t11 -47.5q1 -3 -0.5 -5.5t-3 -3.5t-3.5 -2.5t-3 -4.5q2 -15 15 -42t11 -44q-16 -16 -32 -11t-25.5 16.5t-25 27.5t-29.5 20q-22 49 -29 109z" />
<glyph unicode="&#x201d;" horiz-adv-x="327" d="M8 1262q-1 18 13.5 36.5t15.5 34.5q5 6 -1 13t-5 14q15 22 17 78.5t13 72.5q27 7 58 2.5t45 -18.5q9 -108 -33 -188q-11 -3 -24.5 -13t-24.5 -20t-22.5 -18.5t-25 -7.5t-26.5 14zM154 1270q-1 14 13 35t17 30q2 8 -2 14.5t-4 10.5q12 18 14 78t15 78q41 10 94 -11 q11 -51 6 -96q-2 -19 -11 -50t-20 -44q-3 -3 -16 -9.5t-16 -9.5q-7 -6 -22.5 -20t-22.5 -18.5t-19.5 -3t-25.5 15.5z" />
<glyph unicode="&#x2022;" horiz-adv-x="206" d="M-33.5 637.5q-15.5 29.5 0.5 50.5q105 8 142 4q20 11 39.5 7.5t29.5 -1.5q-3 -15 0.5 -48t3.5 -62t-12 -45q-8 -6 -21.5 -6t-31 2t-27.5 0q-5 -1 -21.5 -7t-28 -8.5t-22.5 3t-12 22.5q-6 2 -15.5 17.5t-15.5 17.5q7 24 -8.5 53.5z" />
<glyph unicode="&#x202f;" horiz-adv-x="359" />
<glyph unicode="&#x205f;" horiz-adv-x="449" />
<glyph unicode="&#x20ac;" horiz-adv-x="657" d="M2 752q-6 43 1 54q15 22 119 15q11 -1 23 -2q1 69 10 194t11 165q4 100 15 152.5t50 92.5q61 61 125 68q24 4 54 0.5t56 -11t41 -28.5t9 -51q-6 -28 -36 -44t-57.5 -6t-27.5 46q-21 1 -37.5 -15.5t-25.5 -40.5q-9 -28 -14.5 -63t-10.5 -86.5t-8 -71.5q-4 -35 -4.5 -82 t0.5 -113t0 -110q51 -18 175 -6.5t175 -3.5q-2 -5 -5 -8.5t-9 -6t-10 -3.5t-12 -2.5t-11 -2.5q-2 -1 -35.5 -26t-56.5 -27q-38 -4 -69.5 -1t-69.5 1t-64 -14q2 -38 3 -113t3 -117q1 -36 6.5 -112t6.5 -117q1 -10 2 -30t2 -29q3 -36 10 -68q30 -45 59 -47q19 -1 32.5 11.5 t20.5 37.5t10.5 44t6.5 48q22 39 84.5 39t95.5 -31q-8 -17 -27 -74.5t-36 -84.5q-10 -5 -50.5 -26.5t-70.5 -33t-62 -16.5q-77 -12 -141.5 15.5t-105.5 84.5q-5 14 -8.5 29t-6 34.5t-3.5 30t-3 36.5t-2 32q-4 49 3 142t7 112q0 13 -0.5 95t4.5 95q-9 13 -43.5 15t-64.5 7.5 t-33 27.5z" />
<glyph unicode="&#xe000;" horiz-adv-x="1495" d="M0 0v1495h1495v-1495h-1495z" />
</font>
</defs>
</svg>
